<?xml version="1.0" encoding="iso-8859-1"?>
<!-- Generator: Adobe Illustrator 30.2.1, SVG Export Plug-In . SVG Version: 9.03 Build 0)  -->
<svg version="1.1" id="Layer_1" xmlns="http://www.w3.org/2000/svg" xmlns:xlink="http://www.w3.org/1999/xlink" x="0px" y="0px"
	 viewBox="0 0 1080 1080" style="enable-background:new 0 0 1080 1080;" xml:space="preserve">
<g>
	<g>
		<g>
			<path d="M657.38,653.86l-42.76-44.69c-4.25-4.45,12.03-21.73,17.11-16.55l46.34,47.23c42.51,43.32,108.47,43.19,149.14,4.07
				c43.66-41.99,44.63-108.87,2.48-152.8c-39.39-41.05-110.03-44.15-152.49,1.5L484.79,699.53
				c-72.43,77.89-186.35,94.45-274.52,33.43c-74.52-51.56-100.79-145.04-74.07-230.68c18.87-60.46,65.31-105.96,115.48-124.79
				c66.23-24.85,131.86-18.02,187.43,18.54c12.92,8.5,97.17,72.95,77.15,90.57c-10.45,9.2-41.64-31.83-69.82-56
				c-77.01-66.04-188.39-57.39-252.91,16.84c-64.78,74.53-58.66,187.73,15.1,253.25c73.73,65.49,184.54,61.69,254.43-13.58
				l194.02-208.97c51.42-55.38,135.86-55.67,186.87-6.25c52.15,50.52,54.18,134.15,3.08,186.1
				C795.7,710.16,711.77,710.72,657.38,653.86z"/>
			<path d="M616.4,449.64L421.59,657.37c-38.12,40.65-97.21,50.87-148.89,27.99c-44.98-19.91-76.56-69.06-74.82-123.37
				c1.65-51.47,33.13-96.45,74.74-114.48c50.62-21.93,104.92-14.26,143.28,23.53l47.46,46.76c3.46,3.41,2.54,17.73-1.62,20.35
				c-16.46,10.39-38.59-40.84-87.65-67.08c-48.8-26.1-105.44-7.77-133.51,33.6c-31.11,45.85-24.2,105.19,17.43,141.93
				c38.16,33.68,100.77,38.05,140.9-1.84c67.67-67.28,129.49-135.48,193.7-206.06c56.6-62.22,138.07-91.35,219.45-67.97
				c71.75,20.61,122.35,79.79,138.25,143.04c20.06,79.83-3.76,157.42-63.5,208.22c-73.45,62.46-178.11,63.1-254.74,5.34
				c-13.08-9.85-79.35-64.9-64.84-78.31c14.71-13.59,39.27,28.37,78.94,58.86c48.18,37.02,109.79,48.97,167.6,28.8
				c82.33-28.72,131.07-111.48,118.27-196.36c-12.5-82.88-80.83-150.85-169.96-153.74C707.05,384.8,655.75,407.68,616.4,449.64z"/>
			<path d="M609.98,354.01c0,37.73-30.59,68.32-68.32,68.32s-68.32-30.59-68.32-68.32s30.59-68.32,68.32-68.32
				S609.98,316.28,609.98,354.01z M585.86,353.79c0-24.4-19.78-44.17-44.17-44.17c-24.4,0-44.17,19.78-44.17,44.17
				s19.78,44.17,44.17,44.17C566.08,397.97,585.86,378.19,585.86,353.79z"/>
		</g>
	</g>
</g>
<g>
	<g>
		<g>
			<path d="M655.73,666.01l-42.76-44.69c-4.25-4.45,12.03-21.73,17.11-16.55l46.34,47.23c42.51,43.32,108.47,43.19,149.14,4.07
				c43.66-41.99,44.63-108.87,2.48-152.8c-39.39-41.05-110.03-44.15-152.49,1.5L483.15,711.68
				c-72.43,77.89-186.35,94.45-274.52,33.43c-74.52-51.56-100.79-145.04-74.07-230.68c18.87-60.46,65.31-105.96,115.48-124.79
				c66.23-24.85,131.86-18.02,187.43,18.54c12.92,8.5,97.17,72.95,77.15,90.57c-10.45,9.2-41.64-31.83-69.82-56
				c-77.01-66.04-188.39-57.39-252.91,16.84c-64.78,74.53-58.66,187.73,15.1,253.25c73.73,65.49,184.54,61.69,254.43-13.58
				L655.43,490.3c51.42-55.38,135.86-55.67,186.87-6.25c52.15,50.52,54.18,134.15,3.08,186.1
				C794.06,722.31,710.13,722.86,655.73,666.01z"/>
			<path d="M614.76,461.79L419.94,669.51c-38.12,40.65-97.21,50.87-148.89,27.99c-44.98-19.91-76.56-69.06-74.82-123.37
				c1.65-51.47,33.13-96.45,74.74-114.48c50.62-21.93,104.92-14.26,143.28,23.53l47.46,46.76c3.46,3.41,2.54,17.73-1.62,20.35
				c-16.46,10.39-38.59-40.84-87.65-67.08c-48.8-26.1-105.44-7.77-133.51,33.6c-31.11,45.85-24.2,105.19,17.43,141.93
				c38.16,33.68,100.77,38.05,140.9-1.84c67.67-67.28,129.49-135.48,193.7-206.06c56.6-62.22,138.07-91.35,219.45-67.97
				c71.75,20.61,122.35,79.79,138.25,143.04c20.06,79.83-3.76,157.42-63.5,208.22c-73.45,62.46-178.11,63.1-254.74,5.34
				c-13.08-9.85-79.35-64.9-64.84-78.31c14.71-13.59,39.27,28.37,78.94,58.86c48.18,37.02,109.79,48.97,167.6,28.8
				c82.33-28.72,131.07-111.48,118.27-196.36c-12.5-82.88-80.83-150.85-169.96-153.74C705.41,396.95,654.1,419.83,614.76,461.79z"/>
			<path d="M608.34,366.16c0,37.73-30.59,68.32-68.32,68.32c-37.73,0-68.32-30.59-68.32-68.32s30.59-68.32,68.32-68.32
				C577.75,297.84,608.34,328.43,608.34,366.16z M584.21,365.94c0-24.4-19.78-44.17-44.17-44.17c-24.4,0-44.17,19.78-44.17,44.17
				s19.78,44.17,44.17,44.17C564.43,410.12,584.21,390.34,584.21,365.94z"/>
		</g>
	</g>
</g>
</svg>
