<?xml version="1.0" encoding="iso-8859-1"?>
<!-- Generator: Adobe Illustrator 30.2.1, SVG Export Plug-In . SVG Version: 9.03 Build 0)  -->
<svg version="1.1" id="Layer_1" xmlns="http://www.w3.org/2000/svg" xmlns:xlink="http://www.w3.org/1999/xlink" x="0px" y="0px"
	 viewBox="0 0 1080 1080" style="enable-background:new 0 0 1080 1080;" xml:space="preserve">
<g>
	<path d="M389.71,631.56c-48.35-0.41-82.13-36.94-82.69-83.41l-0.49-40.85c-0.53-43.82,30-84.48,75.86-85.55l76.11-1.77l155.1-84.84
		c9.21-5.04,24.24-2.03,32.46,3.61c7.32,5.02,17.25,17.88,17.25,29.6l-0.14,313.74c-0.01,13.88-11.22,27.55-20.13,32.45
		c-12.85,7.06-26.81,5.46-39.62-1.69l-144.77-80.71L389.71,631.56z M614.59,693.46c5.7,2.14,14.77,3.01,18.06,0.79
		c3.3-2.22,8.05-10.09,8.05-14.85l0.16-306.34c0-5.58-3.67-13.07-7.17-15.11c-2.91-1.69-12.4-1.95-15.72-0.12l-150.13,82.43
		l0.11,170.97L614.59,693.46z M389.27,608.43l56.04,0.1l0.28-165.24l-60.64,0.67c-30.88,0.34-55.37,26.51-55.28,56.59l0.15,51.16
		C329.93,583.56,356.5,608.37,389.27,608.43z"/>
</g>
<line style="fill:none;stroke:#000000;stroke-width:45;stroke-linecap:round;stroke-linejoin:round;stroke-miterlimit:10;" x1="870.79" y1="208.96" x2="209.04" y2="870.71"/>
<g>
	<path d="M389.79,631.73c-48.35-0.41-82.13-36.94-82.69-83.41l-0.49-40.85c-0.53-43.82,30-84.48,75.86-85.55l76.11-1.77l155.1-84.84
		c9.21-5.04,24.24-2.03,32.46,3.61c7.32,5.02,17.25,17.88,17.25,29.6l-0.14,313.74c-0.01,13.88-11.22,27.55-20.13,32.45
		c-12.85,7.06-26.81,5.46-39.62-1.69l-144.77-80.71L389.79,631.73z M614.68,693.62c5.7,2.14,14.77,3.01,18.06,0.79
		c3.3-2.22,8.05-10.09,8.05-14.85l0.16-306.34c0-5.58-3.67-13.07-7.17-15.11c-2.91-1.69-12.4-1.95-15.72-0.12l-150.13,82.43
		l0.11,170.97L614.68,693.62z M389.36,608.59l56.04,0.1l0.28-165.24l-60.64,0.67c-30.88,0.34-55.37,26.51-55.28,56.59l0.15,51.16
		C330.01,583.73,356.59,608.54,389.36,608.59z"/>
</g>
<line style="fill:none;stroke:#000000;stroke-width:45;stroke-linecap:round;stroke-linejoin:round;stroke-miterlimit:10;" x1="870.87" y1="209.13" x2="209.13" y2="870.87"/>
</svg>
