<?xml version="1.0" encoding="iso-8859-1"?>
<!-- Generator: Adobe Illustrator 30.2.1, SVG Export Plug-In . SVG Version: 9.03 Build 0)  -->
<svg version="1.1" id="Layer_1" xmlns="http://www.w3.org/2000/svg" xmlns:xlink="http://www.w3.org/1999/xlink" x="0px" y="0px"
	 viewBox="0 0 1080 1080" style="enable-background:new 0 0 1080 1080;" xml:space="preserve">
<g>
	<path d="M510.31,843.54c91.1-70.48,202.52-157.84,266.52-252.94c58.62-87.11,20.32-138.34,59.08-129.86
		c26.27,147.65-201.68,315.85-306.94,399.2c-10.09,7.99-22.43,11.59-33.32,2.99c-88.58-69.97-192.91-151.61-260.89-239.29
		c-28.28-36.48-47.88-77.21-55.41-123.06c-18.63-113.5,63.57-215.63,178.27-221.81c59.44-3.2,113.75,20.47,151.84,68.25
		c21.09-33.99,125.19-88.68,132.27-60.72c1.1,4.35-6.16,14.92-11.6,15.96c-103.78,19.9-110.76,105.34-132.2,71.14
		c-52.5-83.75-168.62-93.99-242.6-27.75c-75.31,67.43-66.44,176.12-7.53,255.77C321.77,697.2,414.69,767.22,510.31,843.54z"/>
	<path d="M625.56,474.34c-4.48,4.49-14.63,8-18.41,5.25c-3.74-2.73-4.94-14.74-1.27-18.52l46.1-47.45
		c-3.4-32.46-5.67-65.16,3.86-95.76c31.39-100.88,173.69-109.71,263.29-92.7c-4.26,84.69-56.14,223.32-151.4,232.28
		c-36.23,3.41-67.32-6.51-100.92-24.47L625.56,474.34z M844.6,297.61l-103.05,76.04l30.37,6.85c5.25,1.18,14.31,7.41,14.49,12.4
		c0.19,5.24-9.85,12.81-15.19,11.91l-51.93-8.78c-8.18-1.38-23.72,13.32-29.16,18.96c51.17,34.4,113.24,21.03,148.54-28.94
		c29.71-42.07,46.45-88.77,56.09-141.84c-50.65-4.87-98.26-3.67-144.01,11.92c-58.84,20.06-89.29,76.63-73.48,136.26
		c62.46-28.24,32.46-85.03,54.57-97.41c3.38-1.89,15.14-0.56,15.21,3.3l0.27,14.65l-0.22,25.98l83.64-60.05
		c4.07-2.92,14.06-1.4,16.91,1.18C850.5,282.59,847.83,295.23,844.6,297.61z"/>
	<path d="M366.71,347.93c16.91,24.44-94.39,7.94-103,113.9c-0.38,4.73-8.84,13.98-13.39,13.25c-4.56-0.73-10.8-9.97-10.64-15.39
		C242.41,368.14,350.48,324.48,366.71,347.93z"/>
</g>
<g>
	<path d="M502.4,840.46c91.1-70.48,202.52-157.84,266.52-252.94c58.62-87.11,20.32-138.34,59.08-129.86
		c26.27,147.65-201.68,315.85-306.94,399.2c-10.09,7.99-22.43,11.59-33.32,2.99c-88.58-69.97-192.91-151.61-260.89-239.29
		c-28.28-36.48-47.88-77.21-55.41-123.06C152.8,384,235.01,281.87,349.71,275.68c59.44-3.2,113.75,20.47,151.84,68.25
		c21.09-33.99,125.19-88.68,132.27-60.72c1.1,4.35-6.16,14.92-11.6,15.96c-103.78,19.9-110.76,105.34-132.2,71.14
		c-52.5-83.75-168.62-93.99-242.6-27.75c-75.31,67.43-66.44,176.12-7.53,255.77C313.86,694.12,406.78,764.14,502.4,840.46z"/>
	<path d="M617.65,471.26c-4.48,4.49-14.63,8-18.41,5.25c-3.74-2.73-4.94-14.74-1.27-18.52l46.1-47.45
		c-3.4-32.46-5.67-65.16,3.86-95.76c31.39-100.88,173.69-109.71,263.29-92.7c-4.26,84.69-56.14,223.32-151.4,232.28
		c-36.23,3.41-67.32-6.51-100.92-24.47L617.65,471.26z M836.69,294.53l-103.05,76.04l30.37,6.85c5.25,1.18,14.31,7.41,14.49,12.4
		c0.19,5.24-9.85,12.81-15.19,11.91l-51.93-8.78c-8.18-1.38-23.72,13.32-29.16,18.96c51.17,34.4,113.24,21.03,148.54-28.94
		c29.71-42.07,46.45-88.77,56.09-141.84c-50.65-4.87-98.26-3.67-144.01,11.92c-58.84,20.06-89.29,76.63-73.48,136.26
		c62.46-28.24,32.46-85.03,54.57-97.41c3.38-1.89,15.14-0.56,15.21,3.3l0.27,14.65l-0.22,25.98l83.64-60.05
		c4.07-2.92,14.06-1.4,16.91,1.18C842.59,279.51,839.91,292.15,836.69,294.53z"/>
	<path d="M358.8,344.85c16.91,24.44-94.39,7.94-103,113.9c-0.38,4.73-8.84,13.98-13.39,13.25c-4.56-0.73-10.8-9.97-10.64-15.39
		C234.5,365.06,342.57,321.39,358.8,344.85z"/>
</g>
</svg>
