<?xml version="1.0" encoding="iso-8859-1"?>
<!-- Generator: Adobe Illustrator 30.2.1, SVG Export Plug-In . SVG Version: 9.03 Build 0)  -->
<svg version="1.1" id="Layer_1" xmlns="http://www.w3.org/2000/svg" xmlns:xlink="http://www.w3.org/1999/xlink" x="0px" y="0px"
	 viewBox="0 0 1080 1080" style="enable-background:new 0 0 1080 1080;" xml:space="preserve">
<g>
	<path d="M411.9,266.93c43.01-38.86,110.14-19.11,140.14,21.21c31.89,42.87,26.11,98.51-11.07,142.99l282.99,2.18
		c57.87,0.45,95.17,58.05,94.88,109c-0.31,53.84-41.08,106.09-99.48,106.52l-281.59,2.05c44.74,46.52,45.99,107.75,9.25,149.48
		c-36.89,41.9-104.21,51.25-146.13,9.53L195.02,604.97c-33.82-33.66-34.33-91.6-0.32-125.91
		C266.18,406.96,334.61,336.77,411.9,266.93z M523.46,387.47C546.66,358.7,534,318,507.42,298.03
		c-28.75-21.6-62.76-13.71-89.32,12.6L227.02,499.89c-23.14,22.92-25.36,57.82-1.65,81.71l192.25,193.72
		c28.62,28.84,67.43,31.18,95.1,6.11c26.31-23.83,31.12-66.67,4.07-94.5l-41.38-42.58c-3.51-3.61-6.14-16.41-4.93-21.05
		c1.22-4.64,12.47-11.38,18.57-11.38l317.86-0.06c42.89-0.01,73.4-31.15,74-69.58c0.63-40.41-31.49-72.66-73.35-72.64l-313.74,0.09
		c-8.49,0-21.86-6.99-23.15-13.6C466.72,435.91,494.58,423.28,523.46,387.47z"/>
</g>
<g>
	<path d="M403.55,263.96c43.01-38.86,110.14-19.11,140.14,21.21c31.89,42.87,26.11,98.51-11.07,142.99l282.99,2.18
		c57.87,0.45,95.17,58.05,94.88,109c-0.31,53.84-41.08,106.09-99.48,106.52l-281.59,2.05c44.74,46.52,45.99,107.75,9.25,149.48
		c-36.89,41.9-104.21,51.25-146.13,9.53L186.67,602.01c-33.82-33.66-34.33-91.6-0.32-125.91
		C257.82,403.99,326.25,333.81,403.55,263.96z M515.1,384.51c23.21-28.77,10.54-69.47-16.04-89.44
		c-28.75-21.6-62.76-13.71-89.32,12.6L218.67,496.93c-23.14,22.92-25.36,57.82-1.65,81.71l192.25,193.72
		c28.62,28.84,67.43,31.18,95.1,6.11c26.31-23.83,31.12-66.67,4.07-94.5l-41.38-42.58c-3.51-3.61-6.14-16.41-4.93-21.05
		c1.22-4.64,12.47-11.38,18.57-11.38l317.86-0.06c42.89-0.01,73.4-31.15,74-69.58c0.63-40.41-31.49-72.66-73.35-72.64l-313.74,0.09
		c-8.49,0-21.86-6.99-23.15-13.6C458.37,432.95,486.23,420.31,515.1,384.51z"/>
</g>
</svg>
