<?xml version="1.0" encoding="iso-8859-1"?>
<!-- Generator: Adobe Illustrator 30.2.1, SVG Export Plug-In . SVG Version: 9.03 Build 0)  -->
<svg version="1.1" id="Layer_1" xmlns="http://www.w3.org/2000/svg" xmlns:xlink="http://www.w3.org/1999/xlink" x="0px" y="0px"
	 viewBox="0 0 1080 1080" style="enable-background:new 0 0 1080 1080;" xml:space="preserve">
<g>
	<path d="M879.58,539.83c0,187.59-152.07,339.66-339.66,339.66S200.26,727.42,200.26,539.83s152.07-339.66,339.66-339.66
		S879.58,352.24,879.58,539.83z M850.01,539.82c0-171.31-138.88-310.19-310.19-310.19S229.64,368.51,229.64,539.82
		s138.88,310.19,310.19,310.19S850.01,711.13,850.01,539.82z"/>
	<path d="M423.8,541.12c-27.18,11.02-6.45,31.93-18.5,43.44c-3.44,3.29-15.5,4.57-19.2,1.58c-14.16-11.42,3.99-37.16-19.45-40.73
		c-21.87-3.33-15.61,25.5-33.16,31.58c-4.07,1.41-13.78-2.27-16.65-5.48c-12.07-13.53,18.82-33.57,8.06-46.34
		c-7.27-8.63-38.48-44.06-16.31-54.1c27.49-12.45,18.49,45.01,77.17,48.35c57.48,3.27,52.28-60.66,80.68-47.28
		C486.28,481.5,457.77,527.35,423.8,541.12z"/>
	<path d="M753.47,524.76c-9.99,12.37,15.41,27.05,9.75,43.38c-1.42,4.08-9.87,9.5-14.16,8.98c-19.12-2.31-15.09-30.56-32.99-32.01
		c-31.79-2.57-4.27,40.7-27.69,42.7c-6.4,0.55-16.16-7.99-16.75-13.66l-3.05-29.52c-39.7-5-81.92-68.2-52.97-74.53
		c27.15-5.93,21.45,49.54,77.37,48.91c56.62-0.64,48.43-56.28,77.46-47.59C796.26,479.16,757.29,520.03,753.47,524.76z"/>
	<path d="M594.44,682.25c0,30.22-24.5,54.72-54.72,54.72c-30.22,0-54.72-24.5-54.72-54.72c0-30.22,24.5-54.72,54.72-54.72
		C569.94,627.53,594.44,652.02,594.44,682.25z M531.71,708.3c23.82,6.09,32.1-12.86,31.35-27.34c-0.7-13.53-10.17-28.74-29.17-24.6
		c-8.88,1.93-16.76,15.85-17.47,24.58C515.66,690.18,522.24,705.87,531.71,708.3z"/>
</g>
<g>
	<path d="M879.66,540c0,187.59-152.07,339.66-339.66,339.66S200.34,727.59,200.34,540S352.41,200.34,540,200.34
		S879.66,352.41,879.66,540z M850.09,539.99c0-171.31-138.88-310.19-310.19-310.19S229.72,368.68,229.72,539.99
		s138.88,310.19,310.19,310.19S850.09,711.3,850.09,539.99z"/>
	<path d="M423.89,541.29c-27.18,11.02-6.45,31.93-18.5,43.44c-3.44,3.29-15.5,4.57-19.2,1.58c-14.16-11.42,3.99-37.16-19.45-40.73
		c-21.87-3.33-15.61,25.5-33.16,31.58c-4.07,1.41-13.78-2.27-16.65-5.48c-12.07-13.53,18.82-33.57,8.06-46.34
		c-7.27-8.63-38.48-44.06-16.31-54.1c27.49-12.45,18.49,45.01,77.17,48.35c57.48,3.27,52.28-60.66,80.68-47.28
		C486.37,481.67,457.85,527.52,423.89,541.29z"/>
	<path d="M753.55,524.93c-9.99,12.37,15.41,27.05,9.75,43.38c-1.42,4.08-9.87,9.5-14.16,8.98c-19.12-2.31-15.09-30.56-32.99-32.01
		c-31.79-2.57-4.27,40.7-27.69,42.7c-6.4,0.55-16.16-7.99-16.75-13.66l-3.05-29.52c-39.7-5-81.92-68.2-52.97-74.53
		c27.15-5.93,21.45,49.54,77.37,48.91c56.62-0.64,48.43-56.28,77.46-47.59C796.34,479.32,757.38,520.2,753.55,524.93z"/>
	<path d="M594.52,682.41c0,30.22-24.5,54.72-54.72,54.72s-54.72-24.5-54.72-54.72c0-30.22,24.5-54.72,54.72-54.72
		S594.52,652.19,594.52,682.41z M531.8,708.46c23.82,6.09,32.1-12.86,31.35-27.34c-0.7-13.53-10.17-28.74-29.17-24.6
		c-8.88,1.93-16.76,15.85-17.47,24.58C515.74,690.34,522.32,706.04,531.8,708.46z"/>
</g>
</svg>
