<?xml version="1.0" encoding="iso-8859-1"?>
<!-- Generator: Adobe Illustrator 30.2.1, SVG Export Plug-In . SVG Version: 9.03 Build 0)  -->
<svg version="1.1" id="Layer_1" xmlns="http://www.w3.org/2000/svg" xmlns:xlink="http://www.w3.org/1999/xlink" x="0px" y="0px"
	 viewBox="0 0 1080 1080" style="enable-background:new 0 0 1080 1080;" xml:space="preserve">
<g>
	<path d="M457.29,857.75c3.31,24.46-50.55-30.89-68.61-89.08c-21.44-69.06-1.09-138.26,53.86-184.11
		c58.54-48.85,116.9-60.43,175.27-106.05c58.83-45.98,76.51-120.74,45.1-189.04c-19.96-43.42-48.33-55.41-44.53-72.32
		c4.43-19.7,109.09,81.71,65.87,197.78c-41.75,112.11-167.22,118.05-243.53,194.19c-37.5,37.41-52.6,87.9-40.62,139.76
		C415.2,814.32,454.45,836.73,457.29,857.75z"/>
	<path d="M362.09,543.4c-97.7,82.4-32.78,177.22-46.25,186.55c-17.76,12.31-62.49-127.5,41.34-204.52
		c30.95-22.96,62.04-41.1,96.81-58.15c67.47-33.08,135.79-78.34,135.5-158.7c-0.01-3.14,8.09-8.66,9.28-6.88
		c20.21,30.15-15.93,94.56-47.59,123.1C492.95,477.3,425.61,489.83,362.09,543.4z"/>
	<path d="M627.91,602.56c-175.12,85.17-124.57,142.8-147.37,166.81c-13.05,13.75-21.3-71.08,49.37-127.42
		c28.19-22.47,59.35-39.12,92.05-54.89c30.53-14.72,56.87-31.26,84.85-50.13c58.11-39.17,72.82-121.28,50-178.14
		c-1.86-4.64,0.43-12.11,1.24-14.56c9.62-29.09,68.43,120.51-34.8,200.49C692.98,568.2,662.37,585.8,627.91,602.56z"/>
</g>
<g>
	<path d="M457.37,857.92c3.31,24.46-50.55-30.89-68.61-89.08c-21.44-69.06-1.09-138.26,53.86-184.11
		c58.54-48.85,116.9-60.43,175.27-106.05c58.83-45.98,76.51-120.74,45.1-189.04c-19.96-43.42-48.33-55.41-44.53-72.32
		c4.43-19.7,109.09,81.71,65.87,197.78C642.57,527.2,517.1,533.15,440.79,609.29c-37.5,37.41-52.6,87.9-40.62,139.76
		C415.28,814.48,454.53,836.9,457.37,857.92z"/>
	<path d="M362.17,543.57c-97.7,82.4-32.78,177.22-46.25,186.55c-17.76,12.31-62.49-127.5,41.34-204.52
		c30.95-22.96,62.04-41.1,96.81-58.15c67.47-33.08,135.79-78.34,135.5-158.7c-0.01-3.14,8.09-8.66,9.28-6.88
		c20.21,30.15-15.93,94.56-47.59,123.1C493.03,477.46,425.7,489.99,362.17,543.57z"/>
	<path d="M627.99,602.73c-175.12,85.17-124.57,142.8-147.37,166.81c-13.05,13.75-21.3-71.08,49.37-127.42
		c28.19-22.47,59.35-39.12,92.05-54.89c30.53-14.72,56.87-31.26,84.85-50.13c58.11-39.17,72.82-121.28,50-178.14
		c-1.86-4.64,0.43-12.11,1.24-14.56c9.62-29.09,68.43,120.51-34.8,200.49C693.06,568.36,662.45,585.97,627.99,602.73z"/>
</g>
</svg>
