<?xml version="1.0" encoding="iso-8859-1"?>
<!-- Generator: Adobe Illustrator 30.2.1, SVG Export Plug-In . SVG Version: 9.03 Build 0)  -->
<svg version="1.1" id="Layer_1" xmlns="http://www.w3.org/2000/svg" xmlns:xlink="http://www.w3.org/1999/xlink" x="0px" y="0px"
	 viewBox="0 0 1080 1080" style="enable-background:new 0 0 1080 1080;" xml:space="preserve">
<path d="M466.06,815.98l-214.34,55.86c-22.21,4.35-38.45-12.63-39.26-34.74L254.4,612l359.97-363.25
	c44.86-45.27,114.55-43.86,159.23-3.67l43.61,41.93c50.16,48.23,49.84,123.5,0.07,173.83L466.06,815.98z M799.21,316.83
	c-18.47-19.89-37-38.58-56.72-54.25c-36.08-28.67-88.65-15.35-113.54,21.44L790.84,437.3C826.32,404.65,832.61,352.79,799.21,316.83
	z M604.51,305.46l-38.78,40.39l163.72,157.2l38.78-40.39L604.51,305.46z M543.45,368.71L297.92,616.06l30.66,30.43L574.1,399.14
	L543.45,368.71z M597.13,420.52L353.18,668.56l52.41,51.54l243.95-248.03L597.13,420.52z M673.39,494.2L429.51,742.33l32.65,32.09
	l243.88-248.13L673.39,494.2z M338.71,815.69l91.73-25.24L281.55,648.07l-19.76,94.56L338.71,815.69z M298.52,823.23l-43.37-43.76
	l-8.57,60.2L298.52,823.23z"/>
<path d="M468.17,814.91l-214.34,55.86c-22.21,4.35-38.45-12.63-39.26-34.74l41.94-225.1l359.97-363.25
	c44.86-45.27,114.55-43.86,159.23-3.67l43.61,41.93c50.16,48.23,49.84,123.5,0.07,173.83L468.17,814.91z M801.32,315.76
	c-18.47-19.89-37-38.58-56.72-54.25c-36.08-28.67-88.65-15.35-113.54,21.44l161.89,153.29
	C828.43,403.58,834.72,351.72,801.32,315.76z M606.62,304.39l-38.78,40.39l163.72,157.2l38.78-40.39L606.62,304.39z M545.56,367.64
	L300.03,614.99l30.66,30.43l245.53-247.36L545.56,367.64z M599.25,419.45L355.29,667.49l52.41,51.54L651.65,471L599.25,419.45z
	 M675.5,493.13L431.62,741.26l32.65,32.09l243.88-248.13L675.5,493.13z M340.82,814.62l91.73-25.24L283.66,647l-19.76,94.56
	L340.82,814.62z M300.63,822.16l-43.37-43.76l-8.57,60.2L300.63,822.16z"/>
</svg>
