<?xml version="1.0" encoding="iso-8859-1"?>
<!-- Generator: Adobe Illustrator 30.2.1, SVG Export Plug-In . SVG Version: 9.03 Build 0)  -->
<svg version="1.1" id="Layer_1" xmlns="http://www.w3.org/2000/svg" xmlns:xlink="http://www.w3.org/1999/xlink" x="0px" y="0px"
	 viewBox="0 0 1080 1080" style="enable-background:new 0 0 1080 1080;" xml:space="preserve">
<g>
	<path d="M746.11,514.47c0,29.52-23.93,53.45-53.45,53.45s-53.45-23.93-53.45-53.45c0-29.52,23.93-53.45,53.45-53.45
		S746.11,484.95,746.11,514.47z M729.82,514.48c0-20.15-16.34-36.49-36.49-36.49s-36.49,16.34-36.49,36.49
		c0,20.15,16.34,36.49,36.49,36.49S729.82,534.64,729.82,514.48z"/>
	<path d="M705.01,782.13c132.77-80.85,159.44-277.9,75.93-382.81c-9.05-11.38-11.59-23.03-5.68-35.62
		c3.99-8.51,27.31-17.17,34.68-6.38c54.67,80.06,68.22,181.14,39.24,273.5c-21.81,69.5-67.69,120.48-125.94,160.64
		c-135.49,93.42-312.6,71.36-418.31-53.47c-103.27-121.96-94.65-307.17,22.08-420.92c117.58-114.58,304.39-122.28,430.35-15.85
		c11.45,9.67,6.64,27.9-1.36,34.64c-13.81,11.62-25.56,7.04-38.74-3.95c-115.29-96.2-292.49-77.6-383.74,43.55
		c-81.79,108.59-69.17,262.08,25.18,358.85C449.53,827.43,593.21,850.21,705.01,782.13z M304.74,387.92
		c90.67-148.55,294.05-175.77,424.92-68.27l8.93,7.33c2.02,1.66,6.95-4.62,7.75-7.09c3.39-10.5-127.52-116.57-291.02-61.9
		c-85.16,28.48-160.25,97.88-191.24,192.56c-44.99,137.47,21.15,295.59,155.95,353.25C273.88,720.21,214.32,536.06,304.74,387.92z
		 M845.86,559.39c11.4-65.69-15.76-136.24-44.82-186.07c-1.77-2.92-14.29,0.35-13.04,3.31c0.96,2.28,3.81,8.34,5.34,10.35
		C831.86,437.55,844.11,500.74,845.86,559.39z"/>
</g>
<g>
	<path d="M746.19,514.63c0,29.52-23.93,53.45-53.45,53.45s-53.45-23.93-53.45-53.45c0-29.52,23.93-53.45,53.45-53.45
		S746.19,485.11,746.19,514.63z M729.91,514.65c0-20.15-16.34-36.49-36.49-36.49s-36.49,16.34-36.49,36.49
		c0,20.15,16.34,36.49,36.49,36.49S729.91,534.8,729.91,514.65z"/>
	<path d="M705.1,782.29c132.77-80.85,159.44-277.9,75.93-382.81c-9.05-11.38-11.59-23.03-5.68-35.62
		c3.99-8.51,27.31-17.17,34.68-6.38c54.67,80.06,68.22,181.14,39.24,273.5c-21.81,69.5-67.69,120.48-125.94,160.64
		c-135.49,93.42-312.6,71.36-418.31-53.47c-103.27-121.96-94.65-307.17,22.08-420.92c117.58-114.58,304.39-122.28,430.35-15.85
		c11.45,9.67,6.64,27.9-1.36,34.64c-13.81,11.62-25.56,7.04-38.74-3.95c-115.29-96.2-292.49-77.6-383.74,43.55
		c-81.79,108.59-69.17,262.08,25.18,358.85C449.62,827.59,593.29,850.38,705.1,782.29z M304.82,388.08
		c90.67-148.55,294.05-175.77,424.92-68.27l8.93,7.33c2.02,1.66,6.95-4.62,7.75-7.09c3.39-10.5-127.52-116.57-291.02-61.9
		c-85.16,28.48-160.25,97.88-191.24,192.56c-44.99,137.47,21.15,295.59,155.95,353.25C273.97,720.37,214.4,536.22,304.82,388.08z
		 M845.94,559.55c11.4-65.69-15.76-136.24-44.82-186.07c-1.77-2.92-14.29,0.35-13.04,3.31c0.96,2.28,3.81,8.34,5.34,10.35
		C831.95,437.71,844.19,500.91,845.94,559.55z"/>
</g>
</svg>
