<?xml version="1.0" encoding="iso-8859-1"?>
<!-- Generator: Adobe Illustrator 30.2.1, SVG Export Plug-In . SVG Version: 9.03 Build 0)  -->
<svg version="1.1" id="Layer_1" xmlns="http://www.w3.org/2000/svg" xmlns:xlink="http://www.w3.org/1999/xlink" x="0px" y="0px"
	 viewBox="0 0 1080 1080" style="enable-background:new 0 0 1080 1080;" xml:space="preserve">
<g>
	<path d="M880.12,539.83c0,187.89-152.31,340.2-340.2,340.2s-340.2-152.31-340.2-340.2s152.31-340.2,340.2-340.2
		S880.12,351.95,880.12,539.83z M850.37,539.85c0-171.53-139.05-310.58-310.58-310.58S229.22,368.33,229.22,539.85
		s139.05,310.58,310.58,310.58S850.37,711.38,850.37,539.85z"/>
	<path d="M628.76,674.29c6.48-6.48,19.1-9.3,23.47-5.17c7.15,6.79,6.05,18.38-0.59,25.27c-63.8,66.18-166.6,62.81-226.39-2.94
		c-4.13-4.54-1.21-20.63,3.53-22.78c4.76-2.16,15.31-0.45,19.39,3.67C499.02,723.75,575.85,727.22,628.76,674.29z"/>
	<path d="M384.97,512.33c60.28,0.76,51.71-50.29,77.76-50.57c5.68-0.06,14.35,13.32,12.35,19.19
		c-13.32,38.99-48.85,60.76-85.68,62.06c-67.06,2.36-109.63-70.97-82.53-80.93C334.12,452.05,327.24,511.6,384.97,512.33z"/>
	<path d="M688.57,512.32c61.14,2.33,54.45-55.56,81.14-50.1c30.07,6.16-10.23,77.03-72.54,80.25
		c-41.66,2.15-76.98-18.88-93.87-58.77c-2.31-5.45,2.26-18.68,7.47-20.99C636,451.5,630.28,510.1,688.57,512.32z"/>
</g>
<g>
	<path d="M880.2,540c0,187.89-152.31,340.2-340.2,340.2S199.8,727.89,199.8,540S352.11,199.8,540,199.8S880.2,352.11,880.2,540z
		 M850.46,540.02c0-171.53-139.05-310.58-310.58-310.58S229.3,368.49,229.3,540.02S368.35,850.6,539.88,850.6
		S850.46,711.55,850.46,540.02z"/>
	<path d="M628.85,674.45c6.48-6.48,19.1-9.3,23.47-5.17c7.15,6.79,6.05,18.38-0.59,25.27c-63.8,66.18-166.6,62.81-226.39-2.94
		c-4.13-4.54-1.21-20.63,3.53-22.78c4.76-2.16,15.31-0.45,19.39,3.67C499.1,723.92,575.93,727.39,628.85,674.45z"/>
	<path d="M385.05,512.5c60.28,0.76,51.71-50.29,77.76-50.57c5.68-0.06,14.35,13.32,12.35,19.19
		c-13.32,38.99-48.85,60.76-85.68,62.06c-67.06,2.36-109.63-70.97-82.53-80.93C334.21,452.22,327.33,511.77,385.05,512.5z"/>
	<path d="M688.66,512.49c61.14,2.33,54.45-55.56,81.14-50.1c30.07,6.16-10.23,77.03-72.54,80.25
		c-41.66,2.15-76.98-18.88-93.87-58.77c-2.31-5.45,2.26-18.68,7.47-20.99C636.08,451.67,630.37,510.27,688.66,512.49z"/>
</g>
</svg>
