<?xml version="1.0" encoding="iso-8859-1"?>
<!-- Generator: Adobe Illustrator 30.2.1, SVG Export Plug-In . SVG Version: 9.03 Build 0)  -->
<svg version="1.1" id="Layer_1" xmlns="http://www.w3.org/2000/svg" xmlns:xlink="http://www.w3.org/1999/xlink" x="0px" y="0px"
	 viewBox="0 0 1080 1080" style="enable-background:new 0 0 1080 1080;" xml:space="preserve">
<g>
	<path d="M424.04,839.45c-18.99-8.64-26.22-28.07-24.57-46.23c1.69-18.65,14.42-33.32,34.87-40.23
		c1.08-51.38,21.88-95.68,56.03-132.85c60.73-66.12,129.37-80.77,196.62-148.53c79.92-80.53,47.84-159.62,62.81-167.66
		c3.05-1.64,9.77,4.63,10.08,8.2c5.73,65.34-16.64,124.21-61.69,171C636.04,547.71,567.78,564.79,508.44,624
		c-35.05,34.97-57.21,78.67-58.52,128.8c28.41,6.58,42.45,31.56,37.06,56.4C481.05,836.57,451.75,852.05,424.04,839.45z
		 M472.5,798.46c0-15.94-12.92-28.86-28.86-28.86s-28.86,12.92-28.86,28.86s12.92,28.86,28.86,28.86S472.5,814.4,472.5,798.46z"/>
	<path d="M562.01,775.18c-19.54-3.77-30.63-21.05-31.19-37.68c-0.62-18.81,10.87-35.34,31.32-39.64
		c40.74-102.72,137.9-108.1,215.68-187.14c59.43-60.39,41.98-120.57,54.57-129.04c17.68-11.89,16.95,78.68-43.5,140.62
		c-56.04,57.42-101.64,66.34-154.52,107.44c-22.09,17.17-45.3,40.53-53.32,67.44c16.92,11.18,31.68,27.58,26.29,48.24
		C602.46,764.19,585.2,779.66,562.01,775.18z M592.08,736.38c0-12.59-10.21-22.8-22.8-22.8s-22.8,10.21-22.8,22.8
		s10.21,22.8,22.8,22.8S592.08,748.97,592.08,736.38z"/>
	<path d="M394.46,497.1c-164.71,94.91-123.63,185.88-142.4,193.96c-15.37,6.62-15.51-70.33,40.6-134.69
		c73.65-84.47,167.51-87.35,212.61-182.29c-19.84-8.82-30.32-24.71-27.24-43.75c3.21-19.84,20.29-34.29,40.14-33.29
		c20.13,1.01,35.62,16.54,37,36.83c1.34,19.63-12.15,36.91-33.6,42.08C498.44,433.94,447.52,466.52,394.46,497.1z M539.49,335.83
		c0-12.57-10.19-22.77-22.77-22.77s-22.77,10.19-22.77,22.77c0,12.57,10.19,22.77,22.77,22.77S539.49,348.41,539.49,335.83z"/>
	<path d="M486.06,533.09c-186.29,106.72-133.2,222.39-151.14,234.73c-16.65,11.45-24.69-102.32,51.56-178.93
		c71.6-71.94,119.37-74.06,189.03-138.92c78.42-73.01,50.59-148.95,61.43-164.51c16.89-24.25,31.3,104.39-49.54,175.83
		C555.04,489.89,523.24,511.79,486.06,533.09z"/>
	<path d="M672.38,296.47l-30.69-44.29l-26.13,39.82c-1.38,2.1-5.56,5.48-7.02,7.01c-1.47,1.55-11.12-4.83-9.9-6.9l35.06-59.16
		c1.09-1.85,6.89-5.33,8.8-4.72c1.91,0.61,6.33,3.75,7.55,5.68l33.47,53.13c1.17,1.85,1.82,7.13,2.15,8.63
		C686.19,298,674.1,298.95,672.38,296.47z"/>
</g>
<g>
	<path d="M424.12,839.61c-18.99-8.64-26.22-28.07-24.57-46.23c1.69-18.65,14.43-33.32,34.87-40.23
		c1.08-51.38,21.88-95.68,56.03-132.85c60.73-66.12,129.37-80.77,196.62-148.53c79.92-80.53,47.84-159.62,62.81-167.66
		c3.05-1.64,9.77,4.63,10.08,8.2c5.73,65.34-16.64,124.21-61.69,171c-62.16,64.57-130.42,81.64-189.76,140.85
		c-35.05,34.97-57.21,78.67-58.52,128.8c28.41,6.58,42.45,31.56,37.06,56.4C481.13,836.73,451.83,852.21,424.12,839.61z
		 M472.58,798.63c0-15.94-12.92-28.86-28.86-28.86c-15.94,0-28.86,12.92-28.86,28.86c0,15.94,12.92,28.86,28.86,28.86
		C459.66,827.49,472.58,814.57,472.58,798.63z"/>
	<path d="M562.1,775.35c-19.54-3.77-30.63-21.05-31.19-37.68c-0.62-18.81,10.87-35.34,31.32-39.64
		c40.74-102.72,137.9-108.1,215.68-187.14c59.43-60.39,41.98-120.57,54.57-129.04c17.68-11.89,16.95,78.68-43.5,140.62
		c-56.04,57.42-101.64,66.34-154.52,107.44c-22.09,17.17-45.3,40.53-53.32,67.44c16.92,11.18,31.68,27.58,26.29,48.24
		C602.54,764.36,585.28,779.83,562.1,775.35z M592.16,736.55c0-12.59-10.21-22.8-22.8-22.8c-12.59,0-22.8,10.21-22.8,22.8
		s10.21,22.8,22.8,22.8C581.95,759.35,592.16,749.14,592.16,736.55z"/>
	<path d="M394.54,497.26c-164.71,94.91-123.63,185.88-142.4,193.96c-15.37,6.62-15.51-70.33,40.6-134.69
		c73.65-84.47,167.51-87.35,212.61-182.29c-19.84-8.82-30.32-24.71-27.24-43.75c3.21-19.84,20.29-34.29,40.14-33.29
		c20.13,1.01,35.62,16.54,37,36.83c1.34,19.63-12.15,36.91-33.6,42.08C498.52,434.11,447.6,466.69,394.54,497.26z M539.58,336
		c0-12.57-10.19-22.77-22.77-22.77s-22.77,10.19-22.77,22.77s10.19,22.77,22.77,22.77S539.58,348.57,539.58,336z"/>
	<path d="M486.14,533.26C299.85,639.98,352.94,755.65,335,767.99c-16.65,11.45-24.69-102.32,51.56-178.93
		c71.6-71.94,119.37-74.06,189.03-138.92c78.42-73.01,50.59-148.95,61.43-164.51c16.89-24.25,31.3,104.39-49.54,175.83
		C555.12,490.06,523.32,511.96,486.14,533.26z"/>
	<path d="M672.47,296.64l-30.69-44.29l-26.13,39.82c-1.38,2.1-5.56,5.48-7.02,7.01c-1.47,1.55-11.12-4.83-9.9-6.9l35.06-59.16
		c1.09-1.85,6.89-5.33,8.8-4.72c1.91,0.61,6.33,3.75,7.55,5.68l33.47,53.13c1.17,1.85,1.82,7.13,2.15,8.63
		C686.27,298.17,674.19,299.12,672.47,296.64z"/>
</g>
</svg>
