<?xml version="1.0" encoding="iso-8859-1"?>
<!-- Generator: Adobe Illustrator 30.2.1, SVG Export Plug-In . SVG Version: 9.03 Build 0)  -->
<svg version="1.1" id="Layer_1" xmlns="http://www.w3.org/2000/svg" xmlns:xlink="http://www.w3.org/1999/xlink" x="0px" y="0px"
	 viewBox="0 0 1080 1080" style="enable-background:new 0 0 1080 1080;" xml:space="preserve">
<g>
	<g>
		<path d="M541.14,736.27c-78.9,135.1-241.48,169.25-374.34,97.58c11.14-49.66,34.01-93.56,73.91-129.29
			c-82.2-49.22-116.74-104.41-152.85-190.33c13.3-29.19,117.53-50.24,152.29-49.22c-13.05-61.18-13.02-120.97,3.24-183.5
			c61.56-2.09,120.92,11.79,173.51,47.41c27.73-63.32,69.3-112.52,122.78-154.78c55.08,40.83,94.75,91.91,123.29,154.33
			c52.78-33.04,111.03-49.52,174.8-46.11c15.47,59.84,16.06,120.91,1.78,183.22c56.3,2.47,104.68,13.97,152.43,41.58
			c-1.26,12.64-4.77,23.54-10.21,34.51c-29.29,67.9-74.67,124.05-139.76,163.09c39.54,36.37,61.63,79.87,71.97,130.92
			c-49.32,24.91-102.01,37.3-156.56,35.18C667.11,864.29,587.11,819.03,541.14,736.27z M541.81,691.74
			c109.08-70.65,153.32-197.88,115.36-319.26c-21.27-68.02-62.7-124.76-117.09-171.89c-52.64,46.43-93.33,100.81-115.07,166.33
			C384.32,489.55,429.36,622.57,541.81,691.74z M488.36,681.76c-94.27-90.64-122.3-216.09-79.11-333.16
			c-44.27-30.81-96.01-45.94-149.15-46.26c-16.07,70.72-10.21,138.87,15.45,204.31C313.24,594.6,389.56,665.24,488.36,681.76z
			 M589.97,684.37c178.77-35.16,268.3-214.54,231.36-382.53c-54.9,2.92-106.66,16.45-149.62,48.43
			c31.84,90.48,24.08,184.46-23.95,264.29C631.85,641.01,610.08,661.05,589.97,684.37z M486.09,708.05
			c-116.97-30.81-205.08-107.67-239.56-220.54c-48.33-0.26-92.65,8.62-133.21,31.28c25.56,67.46,68.42,124.31,129.37,162.13
			C315.5,724.18,402.31,739.77,486.09,708.05z M968.22,519c-43.38-23.08-87.06-33.65-134.93-29.08
			c-36.98,112.41-123.5,191.53-242.22,218.55C751.3,763.72,911.75,674.42,968.22,519z M521.69,721.44
			c-92.76,32.72-178.71,31.6-261.06-5.74c-35.69,27.98-55.92,64.28-68.14,107.62C309.76,879.17,463.63,842.9,521.69,721.44z
			 M889.64,823.71c-11.8-38.39-28.13-67.06-51.85-95.02l-21.01-11.44c-82.05,37.5-170.83,37.1-258.56,3.88
			C619.72,844.84,771.47,878.9,889.64,823.71z"/>
	</g>
</g>
<g>
	<g>
		<path d="M541.22,753.64c-78.9,135.1-241.48,169.25-374.34,97.58c11.14-49.66,34.01-93.56,73.91-129.29
			C158.6,672.71,124.06,617.52,87.94,531.6c13.3-29.19,117.53-50.24,152.29-49.22c-13.05-61.18-13.02-120.97,3.24-183.5
			c61.56-2.09,120.92,11.79,173.51,47.41c27.73-63.32,69.3-112.52,122.78-154.78c55.08,40.83,94.75,91.91,123.29,154.33
			c52.78-33.04,111.03-49.52,174.8-46.11c15.47,59.84,16.06,120.91,1.78,183.22c56.3,2.47,104.68,13.97,152.43,41.58
			c-1.26,12.64-4.77,23.54-10.21,34.51c-29.29,67.9-74.67,124.05-139.76,163.09c39.54,36.37,61.63,79.87,71.97,130.92
			c-49.32,24.91-102.01,37.3-156.56,35.18C667.2,881.66,587.2,836.41,541.22,753.64z M541.89,709.11
			c109.08-70.65,153.32-197.88,115.36-319.26c-21.27-68.02-62.7-124.76-117.09-171.89c-52.64,46.43-93.33,100.81-115.07,166.33
			C384.4,506.92,429.44,639.94,541.89,709.11z M488.44,699.13c-94.27-90.64-122.3-216.09-79.11-333.16
			c-44.27-30.81-96.01-45.94-149.15-46.26c-16.07,70.72-10.21,138.87,15.45,204.31C313.33,611.97,389.64,682.61,488.44,699.13z
			 M590.05,701.75c178.77-35.16,268.3-214.54,231.36-382.53c-54.9,2.92-106.66,16.45-149.62,48.43
			c31.84,90.48,24.08,184.46-23.95,264.29C631.93,658.38,610.16,678.42,590.05,701.75z M486.17,725.42
			C369.2,694.61,281.09,617.76,246.61,504.88c-48.33-0.26-92.65,8.62-133.21,31.28c25.56,67.46,68.42,124.31,129.37,162.12
			C315.58,741.55,402.39,757.14,486.17,725.42z M968.3,536.38c-43.38-23.08-87.06-33.65-134.93-29.08
			c-36.98,112.41-123.5,191.53-242.22,218.55C751.38,781.09,911.83,691.79,968.3,536.38z M521.78,738.82
			c-92.76,32.72-178.71,31.6-261.06-5.74c-35.69,27.98-55.92,64.28-68.14,107.62C309.85,896.54,463.71,860.27,521.78,738.82z
			 M889.72,841.09c-11.8-38.39-28.13-67.06-51.85-95.02l-21.01-11.44c-82.05,37.5-170.83,37.1-258.56,3.88
			C619.8,862.22,771.55,896.27,889.72,841.09z"/>
	</g>
</g>
</svg>
