<?xml version="1.0" encoding="iso-8859-1"?>
<!-- Generator: Adobe Illustrator 30.2.1, SVG Export Plug-In . SVG Version: 9.03 Build 0)  -->
<svg version="1.1" id="Layer_1" xmlns="http://www.w3.org/2000/svg" xmlns:xlink="http://www.w3.org/1999/xlink" x="0px" y="0px"
	 viewBox="0 0 1080 1080" style="enable-background:new 0 0 1080 1080;" xml:space="preserve">
<g>
	<path d="M675.78,333.28c-85.73-47.03-179.95-50.3-265.08-1.96c-34.67,19.69-74.51-2.29-93.69-38.66
		c-85.11,75.8-123.05,186.02-110.14,295.52L256,571.01c18.87-23.05,39.09-34.57,69.39-27.95c20.41,4.46,47.24,25.02,47.31,54.09
		l0.52,228.42c0.07,31.2-18.79,49.38-41.21,60.31c-32.86,16.02-49.94-11.57-74.76-20.61c-53.7-19.54-98.73-46.64-114.34-100.81
		c-16.34-56.69-5.89-115.55,40.96-154.64l-0.99-61.37c-3.13-194.25,144.84-350.92,338.01-361.22
		c200.39-10.69,376.3,138.94,378.73,340.62l0.98,81.45c29.96,25.59,44.23,62.02,46.89,98.97c5.8,80.77-47.79,134.38-118.42,155.06
		c-22.72,6.65-36.67,39.8-70.33,26.11c-21.13-8.6-48.63-23.31-48.73-56.42l-0.66-222.34c-0.09-31.6,14.37-57.14,39.92-65.9
		c33.58-11.52,59.22,2.96,79.32,28.7l47.5,14.96c11.4-108.51-25.39-219.75-112.86-295.84C747.33,321.49,710.72,352.45,675.78,333.28
		z M689.76,316.89c28.22-2.74,48.37-17.77,52.53-41.83c-118.84-86.95-284.78-88.35-402.7,0.11c-0.33,24.62,34.52,48.74,57.71,36.11
		C489.68,260.95,597.61,258.41,689.76,316.89z M349.47,821.01l-0.16-215.75c-0.02-23.64-16.83-41.61-38.84-41.1
		c-21.42,0.49-37.82,17.05-37.84,41.09l-0.13,218.62c-0.01,24.6,16.83,41.03,37.98,41.37C334.05,865.62,349.49,848.04,349.47,821.01
		z M810.59,831.48l-0.16-230.41c-0.02-23.45-24.23-38.22-42.69-36.91c-19.81,1.41-34.85,19.21-34.84,41.16l0.05,223.89
		c0.01,22.63,20.83,37.57,40.09,37.5C788.6,866.66,810.6,854,810.59,831.48z M249.16,607.68c0-1.63-8.2-7.87-9.82-7.42
		c-47.91,18.28-84.96,68.63-81.11,121.49c3.77,51.71,36.08,101.91,90.83,112.58L249.16,607.68z M923.8,703.14
		c-5.63-52.48-39.64-92.99-90.47-103.99l1.5,235.27C897.17,819.25,930.31,763.82,923.8,703.14z"/>
</g>
<g>
	<path d="M673.99,333.58c-85.73-47.03-179.95-50.3-265.08-1.96c-34.67,19.69-74.51-2.29-93.69-38.66
		c-85.11,75.8-123.05,186.02-110.14,295.52l49.13-17.18c18.87-23.05,39.09-34.57,69.39-27.95c20.41,4.46,47.24,25.02,47.31,54.09
		l0.52,228.42c0.07,31.2-18.79,49.38-41.21,60.31c-32.86,16.02-49.94-11.57-74.76-20.61c-53.7-19.54-98.73-46.64-114.34-100.81
		c-16.34-56.69-5.89-115.55,40.96-154.64l-0.99-61.37c-3.13-194.25,144.84-350.92,338.01-361.22
		c200.39-10.69,376.3,138.94,378.73,340.62l0.98,81.45c29.96,25.59,44.23,62.02,46.89,98.97c5.8,80.77-47.79,134.38-118.42,155.06
		c-22.72,6.65-36.67,39.8-70.33,26.11c-21.13-8.6-48.63-23.31-48.73-56.42l-0.66-222.34c-0.09-31.6,14.37-57.14,39.92-65.9
		c33.58-11.52,59.22,2.96,79.32,28.7l47.5,14.96c11.4-108.51-25.39-219.75-112.86-295.84C745.54,321.78,708.93,352.75,673.99,333.58
		z M687.97,317.18c28.22-2.74,48.37-17.77,52.53-41.83c-118.84-86.95-284.78-88.35-402.7,0.11c-0.33,24.62,34.52,48.74,57.71,36.11
		C487.89,261.25,595.82,258.7,687.97,317.18z M347.68,821.3l-0.16-215.75c-0.02-23.64-16.83-41.61-38.84-41.1
		c-21.42,0.49-37.82,17.05-37.84,41.09l-0.13,218.62c-0.02,24.6,16.83,41.03,37.98,41.37C332.27,865.91,347.7,848.33,347.68,821.3z
		 M808.8,831.78l-0.16-230.41c-0.02-23.45-24.23-38.22-42.69-36.91c-19.81,1.41-34.85,19.21-34.84,41.16l0.05,223.89
		c0.01,22.63,20.83,37.57,40.09,37.5C786.81,866.95,808.81,854.3,808.8,831.78z M247.37,607.98c0-1.63-8.2-7.87-9.82-7.42
		c-47.91,18.28-84.96,68.63-81.11,121.49c3.77,51.71,36.08,101.91,90.83,112.58L247.37,607.98z M922.01,703.43
		c-5.63-52.48-39.64-92.99-90.47-103.99l1.5,235.27C895.38,819.55,928.52,764.12,922.01,703.43z"/>
</g>
</svg>
