<?xml version="1.0" encoding="iso-8859-1"?>
<!-- Generator: Adobe Illustrator 30.2.1, SVG Export Plug-In . SVG Version: 9.03 Build 0)  -->
<svg version="1.1" id="Layer_1" xmlns="http://www.w3.org/2000/svg" xmlns:xlink="http://www.w3.org/1999/xlink" x="0px" y="0px"
	 viewBox="0 0 1080 1080" style="enable-background:new 0 0 1080 1080;" xml:space="preserve">
<path d="M675.15,584.11c-131.24,62.4-114.05,231.26-138.42,216c-20.56-12.88-12.58-108.3-81.84-178.69
	c-69.46-70.59-167.61-59.81-169.91-82.18c-2.39-23.24,100.65-6.58,176.62-90.76c63.02-69.83,55.85-155.68,75.61-168.72
	c21.56-14.23,11.77,103.86,89.22,180.02c66.76,65.65,159,57.09,168.21,76.69c1.83,3.9-7.01,11.91-11.3,12.9
	C745.68,558.13,709.55,567.75,675.15,584.11z M586.35,627.62c37.13-48.07,85.41-69.41,141.81-89.25
	c-123.61-37.11-150.61-90.53-190.84-190.12c-25.47,98.5-86.54,163.67-187.48,190.84c99.31,26.28,166.2,93.56,186.25,195.57
	C550.38,697.14,564.04,662.07,586.35,627.62z"/>
<path d="M813.69,754.3c-57.68,9.13-49.77,59.05-66.94,71.16c-16.77,11.84-7.28-65.51-72.48-72.92c-3.77-0.43-11.08-7.43-13-9.52
	c-12.66-13.8,69.11-7.45,72.08-73.67c0.17-3.7,5.48-12.44,8.41-12.08c3.92,0.49,11.82,7.67,12.22,11.63
	c7.03,68.34,83.43,58.41,73.72,74.78C825.67,747.12,818.41,753.55,813.69,754.3z M745.04,774.38l32.07-31.75l-33.28-32.45
	l-30.26,32.63L745.04,774.38z"/>
<path d="M397.17,342.89c-66.12,9.47-48.02,74.49-67.85,69.49c-17.5-4.41-7-62.55-65.02-70.81c-3.88-0.55-11.56-7.28-13.13-10.48
	c-8.75-17.92,58.27-3.83,66.63-66.46c0.63-4.7,7.58-13.03,11.45-14.71c17.36-7.55,5.83,61.7,67.61,69.71
	c4.43,0.58,12.6,8.07,12.66,11.89C409.57,335.38,401.74,342.24,397.17,342.89z M329.55,300.03l-29.63,31.6l31.11,29.17l29.63-31.6
	L329.55,300.03z"/>
<path d="M675.23,584.27c-131.24,62.4-114.05,231.26-138.42,216c-20.56-12.88-12.58-108.3-81.84-178.68
	c-69.46-70.59-167.61-59.81-169.91-82.18c-2.39-23.24,100.65-6.58,176.62-90.76c63.02-69.83,55.85-155.68,75.61-168.72
	c21.56-14.23,11.77,103.86,89.22,180.02c66.76,65.65,159,57.09,168.21,76.69c1.83,3.9-7.01,11.91-11.3,12.9
	C745.77,558.3,709.63,567.92,675.23,584.27z M586.43,627.79c37.13-48.07,85.41-69.41,141.81-89.25
	c-123.61-37.11-150.61-90.53-190.84-190.12c-25.47,98.5-86.54,163.67-187.48,190.84c99.31,26.28,166.2,93.56,186.25,195.57
	C550.46,697.3,564.12,662.24,586.43,627.79z"/>
<path d="M813.77,754.47c-57.68,9.13-49.77,59.05-66.94,71.16c-16.77,11.84-7.28-65.51-72.48-72.92c-3.77-0.43-11.08-7.43-13-9.52
	c-12.66-13.8,69.11-7.45,72.08-73.67c0.17-3.7,5.48-12.44,8.41-12.08c3.92,0.49,11.82,7.67,12.22,11.63
	c7.03,68.34,83.43,58.41,73.72,74.78C825.75,747.29,818.5,753.72,813.77,754.47z M745.13,774.55l32.07-31.75l-33.28-32.45
	l-30.26,32.63L745.13,774.55z"/>
<path d="M397.25,343.06c-66.12,9.47-48.02,74.49-67.85,69.49c-17.5-4.41-7-62.55-65.02-70.81c-3.88-0.55-11.56-7.28-13.13-10.48
	c-8.75-17.92,58.27-3.83,66.63-66.46c0.63-4.7,7.58-13.03,11.45-14.71c17.36-7.55,5.83,61.7,67.61,69.71
	c4.43,0.58,12.6,8.07,12.66,11.89C409.65,335.54,401.82,342.4,397.25,343.06z M329.64,300.2l-29.63,31.6l31.11,29.17l29.63-31.6
	L329.64,300.2z"/>
</svg>
