<?xml version="1.0" encoding="iso-8859-1"?>
<!-- Generator: Adobe Illustrator 30.2.1, SVG Export Plug-In . SVG Version: 9.03 Build 0)  -->
<svg version="1.1" id="Layer_1" xmlns="http://www.w3.org/2000/svg" xmlns:xlink="http://www.w3.org/1999/xlink" x="0px" y="0px"
	 viewBox="0 0 1080 1080" style="enable-background:new 0 0 1080 1080;" xml:space="preserve">
<path d="M312.61,766.98c-25.2,50.97-44.04,98.09-63.14,148.71c-1.23,3.26-6.34,7.84-9.31,9.1
	c-37.39,15.86,49.97-156.28,54.88-168.58c-91.67-177.58-60.37-352.99,105.61-471.38c134.87-96.2,297.27-145.82,462.94-145.71
	c2.48,0,8.96,3.04,10.89,4.44c2.57,1.86,2.51,11,0.76,14.23c-26.22,48.36-48,99.94-61.76,153.41l-28.32,110.05
	C754.68,539.77,700.9,673.63,589.4,737.32C505.17,785.45,410.18,791.88,312.61,766.98z M322.62,746.92
	c127.68,36.17,262.55,1.81,343.84-106.52c32.08-42.75,54.35-88.28,73.13-138.8c40.45-121.8,49.9-224.12,109.74-341.71
	c-180.07,0.16-415.32,84.6-524.72,227.78c-76.89,100.64-74.92,230.74-18.28,343.06c93.29-170.85,204.4-326.35,350.71-449.69
	c2.95-2.48,11.68-0.8,13.58,1.91c1.89,2.7,1.12,11.99-2.19,14.89C525.19,423.42,413.24,573.49,322.62,746.92z"/>
<path d="M298.91,774.51c-25.2,50.97-44.04,98.09-63.14,148.71c-1.23,3.26-6.34,7.84-9.31,9.1
	c-37.39,15.86,49.97-156.28,54.88-168.58c-91.67-177.58-60.37-352.99,105.61-471.38c134.87-96.2,297.27-145.82,462.94-145.71
	c2.48,0,8.96,3.04,10.89,4.44c2.57,1.86,2.51,11,0.76,14.23c-26.22,48.36-48,99.94-61.76,153.41l-28.32,110.05
	c-30.49,118.51-84.28,252.36-195.77,316.06C491.47,792.97,396.48,799.41,298.91,774.51z M308.93,754.45
	c127.68,36.17,262.55,1.81,343.84-106.52c32.08-42.75,54.35-88.28,73.13-138.8c40.45-121.8,49.9-224.12,109.74-341.71
	c-180.07,0.16-415.32,84.6-524.72,227.78c-76.89,100.64-74.92,230.74-18.28,343.06c93.29-170.85,204.4-326.35,350.71-449.69
	c2.95-2.48,11.68-0.8,13.58,1.91c1.89,2.7,1.12,11.99-2.19,14.89C511.49,430.94,399.55,581.01,308.93,754.45z"/>
</svg>
