<?xml version="1.0" encoding="iso-8859-1"?>
<!-- Generator: Adobe Illustrator 30.2.1, SVG Export Plug-In . SVG Version: 9.03 Build 0)  -->
<svg version="1.1" id="Black" xmlns="http://www.w3.org/2000/svg" xmlns:xlink="http://www.w3.org/1999/xlink" x="0px" y="0px"
	 viewBox="0 0 576 540" style="enable-background:new 0 0 576 540;" xml:space="preserve">
<g>
	<path style="fill:#305157;" d="M351.21,106.94c9.16,1.89,15.24,7.78,18.04,16.02c22.47-16.68,45.23-26.51,71.86-35.65
		c6.44,37.77,12.71,73.39,5.2,111.02c-6,28.38-18.35,53.7-38.92,74.38c2.78,4.63,5.52,8.61,8.76,12.44
		c23.5-23.41,37.89-51.36,44.85-82.9c25.97-6.45,54.34-4.29,80.43,1.37c-16.87,36.32-31.37,68.13-63.56,93.02
		c-11.9,9.41-24.02,16.25-38.52,21.75l8.5,13.03c15.99-6.77,29.78-14.89,43.09-25.48c35.66-30.02,54.03-70.32,71.41-113.15
		c-33.09-8.54-66.24-12.93-98.77-6.64c3.76-39.61-2.91-77.72-10.84-117.93c-29.36,7.97-60.11,19.83-85.27,37.87
		c-12.89-29.41-44.21-62.26-67.17-84.66l-12.7-12.39c-29.17,27.46-62.85,60.29-79.87,96.58c-27.11-18-53.23-28.16-85.35-37.48
		c-7.89,38.41-14.43,78.24-10.71,118.04c-31.12-5.85-66.86-1.79-98,6.88c9.72,26.28,21.14,50.54,36.08,73.71
		c18.74,29.06,44.85,51.57,77.25,64.3c3.11-4.17,5.58-8.01,8.28-12.6c-54.58-21.2-78.64-63.39-101.59-114.88
		c26.92-5.51,54.06-7.89,81.04-1.27c6.08,31.66,21.31,59.56,44.27,83.02c3.17-4.11,5.76-7.95,8.61-12.69
		c-22.17-22.72-35.18-50.62-39.74-81.72c-3.11-20.51-3.71-40.56-0.53-61.09l6.55-42.33c25.91,8,49.54,19.2,71.76,34.99
		c3.26-8.61,9.17-14.23,17.93-15.15c15.05-28.13,40.53-54.65,64.2-77.2C311.28,53.92,335.55,77.33,351.21,106.94z M145.95,436.5
		c20.21-9.9,34.96-26.36,42.87-46.98c8.57-22.35,10.65-42.31,23.3-63.41l-2.57,14.81c50.56-32.91,105.09-33.34,156.12,0.28
		l-2.84-15.86c11.73,20.7,16.04,47.2,24.77,67.64c15.54,36.4,60.67,65.68,96.95,39.57c6.32-4.55,9.81-11.99,9.23-19.46
		c-0.47-6.07-5.31-10.43-11.04-9.32c-5.11,0.99-8.73,6.21-7.31,12.03c1.02,4.17,0.64,7.69-1.22,12.27l-1.33-0.71
		c-0.11-4.27-0.08-7.4-1.04-10.22c-1.67-4.92-6.5-7.73-11.18-6.24c-3.71,1.18-7.1,5.59-6.34,10.35c0.69,4.33,1.15,9.47-3.77,11.72
		c0.77-4.78,1.18-10.19-2.73-13.05c-5.18-3.78-10.91-0.48-14.29,4.5c-0.38-4.18,2.34-7.68,6.18-9.33c3.35-1.43,7.84,0.04,11.16,1.15
		c2.13-3.76,4.8-7.67,7.91-9.13c3.93-1.84,8.44,0.05,12.27,1.77c2.99-4.2,7.38-7.85,12.83-8.84c1.83-9.76-6.69-20.26-16.87-21.53
		c-4.65-0.58-9.12,1.73-9.67,6.35c-0.2,1.65,3.07,4.99,4.75,4.71l5.09-0.84l0.72,11.61c0.04,0.59-0.97,2-1.52,1.81
		c-4.65-1.61-2.96-5.48-4.08-8.84c-4.96-1.27-8.84-4.62-8.12-9.92c0.56-4.12,3.74-7.21,8.82-8.66
		c-6.45-14.94-15.09-27.75-23.88-41.14l-32.49-49.51c-9.27-14.12-19.67-26.66-31.28-39.16c11.02-20.06,16.42-37.64,8.01-59.62
		c-6.34-16.57-16.75-30.33-30.47-42.07c4.89-2.03,9.41-4.7,10.91-9.53c2.18-7.07-1.57-13.72-7.08-18.02
		c-3.59-2.81-8.2-4.4-12.63-3.43c-3.5,0.77-7.45,3.9-9.26,7.54l-4.49,9.02c-10.66-4.93-20.99-6.7-31.85-8.86
		c-4.2-3.87-6.46-11.09-13.91-11.03c1.05,3.95,3.4,7.66,5.91,10.95c2.71,3.55,4.97,5.21,9.44,5.96
		c31.57,5.28,58.89,25.45,71.96,54.39c17.73,39.25-9.26,72.58-45.5,86.99c-36.51,14.52-78.3,7.92-107.56-18.45
		c-13.9-12.53-23.02-30.05-20.79-49.03c1.79-15.32,9.12-29.49,18.66-40.99c15.16-18.27,35.19-29.26,58.27-33.54l10.47-1.94
		c1.1-1.57,0.18-6.43-1.58-7.88c-1.94-1.6-4.08-2.48-7.18-3.3l-0.57,7.45c-10.77,2.03-21.38,4.9-31.36,8.91
		c-3.2-7.47-8-16.67-16.68-16.53c-7.09,0.12-12.79,4.53-15.88,10.44c-2.16,4.13-2.41,8.89-0.21,13.31c1.58,3.17,5.35,6.02,9.85,7.51
		c-12.32,10.56-22.42,23.56-28.94,38.86c-9.59,22.51-5.12,42.02,7.15,62.92c-9.1,9.57-17.88,18.9-25.24,29.99l-36.67,55.27
		c-9.55,14.39-18.6,28.44-25.86,44.38c4.46,1.99,7.47,4.11,8.53,7.6c1.05,3.47-0.07,7.96-3.89,9.49c-3.05,1.22-5.24,2.58-4.98,6.02
		c0.08,1-0.91,3.56-1.79,3.49l-2.47-0.19l0.69-13.07c1.56,1.56,4.86,2.29,6.92,1c1.82-1.14,3.19-4.6,2.07-6.34
		c-3.59-5.59-9.51-4.76-14.66-2.16c-7.08,3.57-13.9,11.57-11.26,19.46c5.24,0.81,9.43,4.76,12.28,8.86
		c3.98-1.68,8.53-3.56,13.15-1.42c2.84,1.32,5.6,5.89,7.6,9.1c3.34-1.64,7.95-3.13,12.03-0.99c2.6,1.36,5.91,5,5.44,9.23
		c-4.21-5.19-10.23-8.75-15.27-4.08c-3.09,2.86-2.68,7.92-1.95,12.12c-9.03-3.1,1.96-19.66-11.39-22.37
		c-4.35-0.88-8.83,2.05-10.19,6.91c-1.02,3.63-1.01,7.93-1.15,12.07c-3.02-3.08-3.59-8.41-2.33-13.13c1.59-5.92-2-11.08-7.79-12.2
		c-5.35-1.04-10.04,3.5-10.6,9.69c-0.62,6.85,2.77,13.92,8.46,18.21C106.15,444.29,127.05,445.75,145.95,436.5z M258.58,207.97
		c11.89-12.35,19.66-23.44,11.57-41.15c-3.75-8.22-12.91-10.88-21.04-6.77c-12.59,6.37-23.16,16.96-29.03,30.12
		c-4.93,11.05,2.71,23.46,14.04,26.2C243.28,218.58,251.96,214.84,258.58,207.97z M348.85,212.5c7.9-5.9,10.28-15.85,5.5-24.13
		c-6.8-11.79-16.63-22.25-28.68-28.14c-8.86-4.33-18.52-1.5-21.97,7.59c-2.4,6.33-3.48,14.21-0.86,20.77
		c3.51,8.79,9.34,16.64,16.47,22.7C327.71,218.42,339.94,219.16,348.85,212.5z M299.97,193.82c-7.03-6.42-18.18-6.54-24.71-0.06
		C284.08,191.96,291.46,192.22,299.97,193.82z M316.26,224.01c-7.7,9.43-16.26,14.24-26.92,11.41l0.22-7.81l11.04-4.97
		c3.61-1.62,6.69-5.79,6.94-9.61c0.09-1.44-1.62-4.25-2.87-4.66c-5.95-1.97-13.37,6.44-28.92,0.11c-2.72-1.11-6.49-0.37-7.88,1.92
		c-4.84,7.93,10.03,14.84,16.64,16.7c1.41,1.9,1.5,6.56,0.24,8.59c-10.27,2.26-19.53-2.99-26.32-11.46
		c0.57,18.59,30.16,19.46,43.43,15.75C309.25,237.88,317.31,231.93,316.26,224.01z M269.38,253.95c9.48,13.15,28.9,11.36,37.03-1.17
		C293.62,258.86,281.9,257.85,269.38,253.95z M311.5,448.21c-10.66,13.76-18.44-3.27-26.91,6.23l-7.15,8.03
		c-9.15,10.27-23.75,2.4-33.33-3.27c-18.06-10.93-37.61-17.69-58.43-18.78c17.92-5.23,34.37,0.63,51.89,7.49
		c-13.97-17.7-34.1-28.61-55.97-31.94c-14.24,16.75-33.79,30.73-56.28,32.24c-9.15,19.55-3.62,41.65,12.11,56.19
		c10.89,10.06,23.54,16.87,38.35,20.82c34.84,9.29,71.9,6.22,105.02-8.18c19.44-8.45,35.74-21.5,47.91-38.37
		c5.88-8.15,9.9-16.87,10.17-26.69c0.13-4.81-2.71-6.25-6.04-8.48C325.67,438.68,317.15,440.9,311.5,448.21z M292.72,519.04
		c22.27,9.67,45.56,12.34,69.11,11.89c20.81-0.41,40.59-4.6,58.95-13.99c25.37-12.98,41.19-40.09,29.08-68.09l-7.11-1.35
		c-19.46-3.69-35.77-15.29-48.35-30.88c-17.47,1.97-32.51,11.75-44.13,24.72c-2.86,3.19-5.28,5.69-5.57,10.67l8.82-4.58
		c13.83-7.18,29.48-11.43,45.05-6.5c-20.68,0.5-39.43,7.54-54.82,20.86C335.42,486.76,315.92,505.07,292.72,519.04z M262.53,461.61
		c6.04,1.33,11.08-1.68,13.08-6.68c-9.05-8.81-19.94-11.56-30.22-2.26C250.82,456.61,256.23,460.22,262.53,461.61z"/>
	<path style="fill:#305157;" d="M145.95,436.5c-18.9,9.26-39.8,7.79-56.24-4.59c-5.69-4.29-9.08-11.36-8.46-18.21
		c0.56-6.19,5.25-10.74,10.6-9.69c5.79,1.13,9.38,6.29,7.79,12.2c-1.26,4.71-0.69,10.05,2.33,13.13c0.14-4.14,0.13-8.44,1.15-12.07
		c1.37-4.87,5.84-7.8,10.19-6.91c13.35,2.7,2.36,19.27,11.39,22.37c-0.73-4.2-1.14-9.26,1.95-12.12c5.04-4.66,11.06-1.11,15.27,4.08
		c0.47-4.23-2.85-7.87-5.44-9.23c-4.08-2.15-8.69-0.65-12.03,0.99c-2-3.2-4.76-7.78-7.6-9.1c-4.62-2.14-9.16-0.26-13.15,1.42
		c-2.84-4.1-7.04-8.05-12.28-8.86c-2.64-7.89,4.18-15.88,11.26-19.46c5.15-2.6,11.07-3.43,14.66,2.16c1.12,1.74-0.24,5.2-2.07,6.34
		c-2.06,1.29-5.36,0.56-6.92-1L107.67,401l2.47,0.19c0.87,0.07,1.86-2.49,1.79-3.49c-0.26-3.44,1.93-4.8,4.98-6.02
		c3.82-1.53,4.94-6.01,3.89-9.49c-1.05-3.49-4.07-5.61-8.53-7.6c7.25-15.94,16.31-29.99,25.86-44.38l36.67-55.27
		c7.36-11.1,16.15-20.43,25.24-29.99c-12.27-20.89-16.75-40.41-7.15-62.92c6.52-15.29,16.62-28.3,28.94-38.86
		c-4.5-1.49-8.27-4.34-9.85-7.51c-2.2-4.42-1.95-9.17,0.21-13.31c3.09-5.91,8.79-10.32,15.88-10.44
		c8.68-0.15,13.49,9.06,16.68,16.53c9.98-4,20.6-6.88,31.36-8.91l0.57-7.45c3.1,0.83,5.24,1.7,7.18,3.3
		c1.76,1.46,2.69,6.32,1.58,7.88l-10.47,1.94c-23.08,4.28-43.1,15.27-58.27,33.54c-9.54,11.49-16.87,25.66-18.66,40.99
		c-2.22,18.98,6.89,36.5,20.79,49.03c29.25,26.38,71.04,32.98,107.56,18.45c36.24-14.42,63.23-47.74,45.5-86.99
		c-13.07-28.94-40.39-49.11-71.96-54.39c-4.47-0.75-6.73-2.42-9.44-5.96c-2.51-3.29-4.86-7-5.91-10.95
		c7.45-0.06,9.71,7.17,13.91,11.03c10.86,2.16,21.19,3.94,31.85,8.86l4.49-9.02c1.82-3.64,5.76-6.78,9.26-7.54
		c4.44-0.97,9.04,0.62,12.63,3.43c5.5,4.3,9.26,10.95,7.08,18.02c-1.49,4.83-6.02,7.51-10.91,9.53
		c13.72,11.74,24.13,25.5,30.47,42.07c8.42,21.98,3.01,39.57-8.01,59.62c11.61,12.5,22,25.03,31.28,39.16l32.49,49.51
		c8.79,13.39,17.43,26.2,23.88,41.14c-5.08,1.45-8.26,4.54-8.82,8.66c-0.72,5.31,3.15,8.66,8.12,9.92c1.12,3.36-0.57,7.23,4.08,8.84
		c0.55,0.19,1.56-1.22,1.52-1.81l-0.72-11.61l-5.09,0.84c-1.67,0.28-4.94-3.06-4.75-4.71c0.55-4.62,5.02-6.93,9.67-6.35
		c10.18,1.27,18.7,11.77,16.87,21.53c-5.46,0.99-9.85,4.64-12.83,8.84c-3.83-1.72-8.34-3.61-12.27-1.77
		c-3.11,1.45-5.78,5.37-7.91,9.13c-3.32-1.11-7.81-2.58-11.16-1.15c-3.84,1.64-6.56,5.15-6.18,9.33c3.38-4.97,9.11-8.27,14.29-4.5
		c3.91,2.86,3.5,8.27,2.73,13.05c4.92-2.25,4.46-7.39,3.77-11.72c-0.76-4.76,2.63-9.17,6.34-10.35c4.68-1.49,9.52,1.32,11.18,6.24
		c0.95,2.82,0.93,5.94,1.04,10.22l1.33,0.71c1.86-4.57,2.24-8.1,1.22-12.27c-1.42-5.81,2.2-11.04,7.31-12.03
		c5.73-1.11,10.57,3.25,11.04,9.32c0.58,7.47-2.9,14.91-9.23,19.46c-36.28,26.11-81.41-3.17-96.95-39.57
		c-8.73-20.44-13.04-46.95-24.77-67.64l2.84,15.86c-51.03-33.62-105.56-33.19-156.12-0.28l2.57-14.81
		c-12.65,21.09-14.73,41.06-23.3,63.41C180.91,410.14,166.16,426.6,145.95,436.5z"/>
	<path style="fill:#305157;" d="M351.21,106.94c-15.65-29.61-39.93-53.02-63.43-76.8c-23.67,22.55-49.15,49.07-64.2,77.2
		c-8.75,0.92-14.67,6.54-17.93,15.15c-22.22-15.8-45.84-27-71.76-34.99l-6.55,42.33c-3.18,20.53-2.59,40.58,0.53,61.09
		c4.56,31.09,17.57,59,39.74,81.72c-2.84,4.73-5.44,8.57-8.61,12.69c-22.96-23.46-38.19-51.36-44.27-83.02
		c-26.98-6.62-54.12-4.24-81.04,1.27c22.96,51.49,47.01,93.68,101.59,114.88c-2.7,4.58-5.18,8.43-8.28,12.6
		c-32.41-12.74-58.52-35.25-77.25-64.3c-14.94-23.17-26.36-47.43-36.08-73.71c31.14-8.67,66.88-12.73,98-6.88
		c-3.72-39.79,2.82-79.62,10.71-118.04c32.11,9.32,58.24,19.48,85.35,37.48c17.02-36.29,50.71-69.12,79.87-96.58l12.7,12.39
		c22.97,22.41,54.28,55.25,67.17,84.66c25.15-18.03,55.9-29.9,85.27-37.87c7.92,40.21,14.6,78.32,10.84,117.93
		c32.54-6.29,65.68-1.9,98.77,6.64c-17.39,42.84-35.76,83.13-71.41,113.15c-13.31,10.59-27.1,18.71-43.09,25.48l-8.5-13.03
		c14.5-5.5,26.61-12.34,38.52-21.75c32.19-24.9,46.69-56.7,63.56-93.02c-26.09-5.66-54.46-7.82-80.43-1.37
		c-6.97,31.55-21.35,59.5-44.85,82.9c-3.24-3.83-5.98-7.8-8.76-12.44c20.57-20.68,32.92-46.01,38.92-74.38
		c7.51-37.64,1.24-73.25-5.2-111.02c-26.62,9.14-49.39,18.98-71.86,35.65C366.44,114.72,360.36,108.83,351.21,106.94z"/>
	<path style="fill:#305157;" d="M311.5,448.21c5.66-7.31,14.18-9.52,21.35-4.72c3.33,2.23,6.17,3.67,6.04,8.48
		c-0.27,9.82-4.3,18.55-10.17,26.69c-12.17,16.87-28.47,29.92-47.91,38.37c-33.12,14.4-70.17,17.47-105.02,8.18
		c-14.81-3.95-27.46-10.76-38.35-20.82c-15.73-14.54-21.27-36.64-12.11-56.19c22.49-1.52,42.04-15.49,56.28-32.24
		c21.86,3.32,42,14.24,55.97,31.94c-17.52-6.86-33.98-12.72-51.89-7.49c20.82,1.09,40.37,7.86,58.43,18.78
		c9.58,5.67,24.19,13.54,33.33,3.27l7.15-8.03C293.05,444.93,300.84,461.97,311.5,448.21z"/>
	<path style="fill:#305157;" d="M292.72,519.04c23.2-13.98,42.7-32.28,51.04-57.26c15.39-13.32,34.14-20.36,54.82-20.86
		c-15.57-4.93-31.23-0.68-45.05,6.5l-8.82,4.58c0.29-4.97,2.71-7.47,5.57-10.67c11.61-12.97,26.65-22.75,44.13-24.72
		c12.57,15.59,28.89,27.19,48.35,30.88l7.11,1.35c12.11,28-3.71,55.11-29.08,68.09c-18.36,9.39-38.14,13.59-58.95,13.99
		C338.27,531.39,314.99,528.72,292.72,519.04z"/>
	<path style="fill:#305157;" d="M348.85,212.5c-8.91,6.66-21.14,5.92-29.53-1.21c-7.13-6.06-12.96-13.91-16.47-22.7
		c-2.62-6.56-1.53-14.45,0.86-20.77c3.44-9.09,13.1-11.93,21.97-7.59c12.05,5.89,21.88,16.35,28.68,28.14
		C359.13,196.65,356.75,206.59,348.85,212.5z M341.12,188.38c0.1-0.35-1.41-1.97-1.7-1.72c-9.72,8.55-16.92,10-28.98,0.15
		c0.65,8.39,8.82,10.71,15.13,11.45C331.97,199,339.52,193.8,341.12,188.38z"/>
	<path style="fill:#305157;" d="M258.58,207.97c-6.62,6.87-15.3,10.62-24.47,8.4c-11.33-2.74-18.97-15.15-14.04-26.2
		c5.87-13.15,16.44-23.75,29.03-30.12c8.13-4.11,17.29-1.44,21.04,6.77C278.24,184.52,270.47,195.62,258.58,207.97z M261.46,188.86
		c-8.65,7.99-18.97,5.06-27.51-2.84c-0.36,7.97,7.39,10.66,12.98,12.05c5.44,1.35,17.58-2.62,16.8-9.45
		C263.67,188.14,262.53,188.59,261.46,188.86z"/>
	<path style="fill:#305157;" d="M316.26,224.01c1.06,7.92-7.01,13.87-14.41,15.94c-13.27,3.72-42.86,2.84-43.43-15.75
		c6.79,8.47,16.05,13.72,26.32,11.46c1.25-2.03,1.17-6.69-0.24-8.59c-6.61-1.86-21.47-8.77-16.64-16.7c1.4-2.29,5.17-3.02,7.88-1.92
		c15.55,6.33,22.97-2.07,28.92-0.11c1.26,0.42,2.97,3.22,2.87,4.66c-0.25,3.82-3.33,7.99-6.94,9.61l-11.04,4.97l-0.22,7.81
		C300,238.25,308.56,233.45,316.26,224.01z"/>
	<path style="fill:#305157;" d="M262.53,461.61c-6.3-1.39-11.7-5-17.14-8.94c10.28-9.3,21.17-6.55,30.22,2.26
		C273.61,459.93,268.57,462.94,262.53,461.61z"/>
	<path style="fill:#305157;" d="M269.38,253.95c12.51,3.9,24.24,4.91,37.03-1.17C298.29,265.31,278.87,267.1,269.38,253.95z"/>
	<path style="fill:#305157;" d="M299.97,193.82c-8.51-1.59-15.89-1.86-24.71-0.06C281.79,187.27,292.94,187.4,299.97,193.82z"/>
	<path style="fill:#FFFFFF;" d="M341.12,188.38c-1.6,5.42-9.15,10.62-15.55,9.87c-6.31-0.74-14.48-3.06-15.13-11.45
		c12.06,9.86,19.26,8.41,28.98-0.15C339.71,186.4,341.23,188.02,341.12,188.38z"/>
	<path style="fill:#FFFFFF;" d="M261.46,188.86c1.07-0.27,2.21-0.72,2.27-0.24c0.77,6.83-11.36,10.8-16.8,9.45
		c-5.59-1.38-13.34-4.07-12.98-12.05C242.49,193.92,252.81,196.86,261.46,188.86z"/>
</g>
</svg>
