<?xml version="1.0" encoding="iso-8859-1"?>
<!-- Generator: Adobe Illustrator 30.2.1, SVG Export Plug-In . SVG Version: 9.03 Build 0)  -->
<svg version="1.1" id="Layer_1" xmlns="http://www.w3.org/2000/svg" xmlns:xlink="http://www.w3.org/1999/xlink" x="0px" y="0px"
	 viewBox="0 0 1080 1080" style="enable-background:new 0 0 1080 1080;" xml:space="preserve">
<g>
	<path d="M939.75,729.9c0.08,35.5-15.82,61.06-51.36,64.89c-70.25,7.59-138.96,18.81-208.19,33.83
		c-47.35,10.27-89.23,25.28-135.86,39.66c-13.9,4.29-35.58-9.78-50.04-14.13c-99.41-29.87-198.3-47.85-301.99-59.34
		c-24.68-2.73-51.76-19.72-51.8-47.98l-0.48-386.05c-0.02-18.14,6.16-34.45,17.84-45.17c12.32-11.29,29.84-11.57,48.91-12.55
		l3.02-51.85c1.57-26.99,28.68-44.12,54.5-38.69c82.25,17.29,215.51,62.19,274.74,124.53c64.17-63.61,185.97-107.79,274.02-123.77
		c30.53-5.54,55.17,17.66,57.37,46.68l3.15,41.57c28.4,0.05,62.94,15.18,63.35,46.94l2.33,176.99L939.75,729.9z M526.54,822.42
		l0.21-452.89c-6.93-16.87-17.98-30.01-33.24-39.77c-71.54-45.76-149.69-75-233.63-93.32c-11.56-2.52-27.23,8.52-27.24,21.51
		l-0.32,405.05c-0.01,16.51,12.49,31.38,27.97,35.6C356.09,724.75,442.94,766.05,526.54,822.42z M818.9,698.84
		c19.4-5.81,26.38-19.39,28.52-37.3l-1.48-62.24l-0.5-338.22c-0.02-13.93-13.73-27.51-28.39-24.34
		c-79.89,17.28-155.07,43.07-223.42,87.75c-14.32,9.36-39.19,27.28-41.08,45.51l0.08,454.76
		C636.27,765.9,723.11,727.53,818.9,698.84z M472.79,819.68c-66.57-45.21-138.28-74.19-213.66-95.58
		c-26.33-7.47-50.97-26.67-50.99-57.34l-0.28-337.6c-15.5-6.62-42.9,3.52-42.91,23.64l-0.22,389.81
		c-0.01,14.69,14.35,26.67,27.98,27.93C287.76,779.34,376.19,798.95,472.79,819.68z M893.96,769.53
		c9.5-0.88,19.34-14.85,19.33-22.84l-0.33-397.8c-0.02-18.41-30.54-27.89-40.4-16.36l-0.44,332.83
		c-0.04,29.54-22.47,49.87-47.34,57.02c-75.75,25.13-149.53,50.36-216.13,97.2C706.49,798.1,795.4,778.71,893.96,769.53z"/>
	<path d="M790.73,658.62c-1.72,5.96-7.97,12.95-11.9,13.09c-26.39,0.91,13.6-44.96-9.32-117.29
		c-39.38-124.25,25.27-142.6-7.23-239.37c-1.25-3.72,2.46-13.29,6.18-14.31c5.26-1.44,13.56,3.21,15.21,8.6
		c32.4,106.1-25.04,125.85,1.31,215.58C797.8,568.62,804.15,611.99,790.73,658.62z"/>
	<path d="M705.69,563.53c-24.14,86.25,9.48,107.92,0.97,130.18c-1.3,3.39-12.62,5.15-14.74,1.18
		c-20.53-38.39-21.55-92.65-7.46-135.47c31.01-94.28-35.68-134.93,1.63-221.79c1.65-3.84,6.32-8.05,8.61-9.93
		c2.27-1.87,10.79,8.85,9.7,12.6C675.29,440.16,735.83,455.84,705.69,563.53z"/>
	<path d="M627.24,648.15c-13.36,47.89,8.99,72.74-7,82.47c-21.5,13.09-21.62-58.65-13.2-90.48c10.98-41.51,10.73-81.26-2.44-123.08
		c-22.91-72.77,2.36-162.06,18.55-140.56c14,18.59-21.87,60.83,4.03,142.38C641,562.38,639.4,604.55,627.24,648.15z"/>
</g>
<g>
	<path d="M939.86,729.59c0.08,35.5-15.82,61.06-51.36,64.89c-70.25,7.59-138.96,18.81-208.19,33.83
		c-47.35,10.27-89.23,25.28-135.86,39.66c-13.9,4.29-35.58-9.78-50.04-14.13c-99.41-29.87-198.3-47.85-301.99-59.34
		c-24.68-2.73-51.76-19.72-51.8-47.98l-0.48-386.05c-0.02-18.14,6.16-34.45,17.84-45.17c12.32-11.29,29.84-11.57,48.91-12.55
		l3.02-51.85c1.57-26.99,28.68-44.12,54.5-38.69c82.25,17.29,215.51,62.19,274.74,124.53c64.17-63.61,185.97-107.79,274.02-123.77
		c30.53-5.54,55.17,17.66,57.37,46.68l3.15,41.57c28.4,0.05,62.94,15.18,63.35,46.94l2.33,176.99L939.86,729.59z M526.65,822.11
		l0.21-452.89c-6.93-16.87-17.98-30.01-33.24-39.77c-71.54-45.76-149.69-75-233.63-93.32c-11.56-2.52-27.23,8.52-27.24,21.51
		l-0.32,405.05c-0.01,16.51,12.49,31.38,27.97,35.6C356.21,724.44,443.05,765.74,526.65,822.11z M819.01,698.54
		c19.39-5.81,26.38-19.39,28.52-37.3l-1.48-62.24l-0.5-338.22c-0.02-13.93-13.73-27.51-28.39-24.34
		c-79.89,17.28-155.07,43.07-223.42,87.75c-14.32,9.36-39.19,27.28-41.08,45.51l0.08,454.76
		C636.38,765.6,723.22,727.23,819.01,698.54z M472.91,819.37c-66.57-45.21-138.28-74.19-213.66-95.58
		c-26.33-7.47-50.97-26.67-50.99-57.34l-0.28-337.6c-15.5-6.62-42.9,3.52-42.91,23.64l-0.22,389.81
		c-0.01,14.69,14.35,26.67,27.98,27.93C287.87,779.03,376.3,798.64,472.91,819.37z M894.08,769.23c9.5-0.88,19.34-14.85,19.33-22.84
		l-0.33-397.8c-0.02-18.41-30.54-27.89-40.4-16.36l-0.44,332.83c-0.04,29.54-22.47,49.87-47.34,57.02
		c-75.75,25.13-149.53,50.36-216.13,97.2C706.6,797.8,795.51,778.4,894.08,769.23z"/>
	<path d="M790.84,658.31c-1.72,5.96-7.97,12.95-11.9,13.09c-26.39,0.91,13.6-44.96-9.32-117.29
		c-39.38-124.25,25.27-142.6-7.23-239.37c-1.25-3.72,2.46-13.29,6.18-14.31c5.26-1.44,13.56,3.21,15.21,8.6
		c32.4,106.1-25.04,125.85,1.31,215.58C797.92,568.31,804.26,611.69,790.84,658.31z"/>
	<path d="M705.8,563.22c-24.14,86.25,9.48,107.92,0.97,130.18c-1.3,3.39-12.62,5.15-14.74,1.18
		c-20.53-38.39-21.55-92.65-7.46-135.47c31.01-94.28-35.68-134.93,1.63-221.79c1.65-3.84,6.32-8.05,8.61-9.93
		c2.27-1.87,10.79,8.85,9.7,12.6C675.4,439.85,735.94,455.54,705.8,563.22z"/>
	<path d="M627.35,647.84c-13.36,47.89,8.99,72.74-7,82.47c-21.5,13.09-21.62-58.65-13.2-90.48c10.98-41.51,10.73-81.26-2.44-123.08
		c-22.91-72.77,2.36-162.06,18.55-140.56c14,18.59-21.87,60.83,4.03,142.38C641.11,562.08,639.51,604.25,627.35,647.84z"/>
</g>
</svg>
