<?xml version="1.0" encoding="iso-8859-1"?>
<!-- Generator: Adobe Illustrator 30.2.1, SVG Export Plug-In . SVG Version: 9.03 Build 0)  -->
<svg version="1.1" id="Layer_1" xmlns="http://www.w3.org/2000/svg" xmlns:xlink="http://www.w3.org/1999/xlink" x="0px" y="0px"
	 viewBox="0 0 1080 1080" style="enable-background:new 0 0 1080 1080;" xml:space="preserve">
<path d="M613.85,320.69c-4.31-2.99-15.85-5.75-17.15-2.96c-1.3,2.78-4.26,12.69-2.91,17.03l29.82,95.37
	c3.41,10.9,0.97,31.51-4.57,39.14c-31.66,43.61-224.29-25.58-364.74,84.53c-75.32,59.05-42.23,98.47-78.65,99.61
	c-56.29,1.76,30.31-197.95,279.87-204.31l129.52-3.3l-29.63-108.41c-5.18-18.93,5.89-44.59,19.72-52.34
	c19.06-10.67,41.62-8.34,59.77,4.21l305.47,211.26c12.33,8.52,20.1,32.36,18.76,44.4c-1.64,14.78-13.16,32.61-26.95,42.08
	L633.65,792.01c-17.62,12.1-39.29,13.29-56.4,3.62c-43.06-24.33-12.31-90.39,2.82-131.83c2.14-5.86,19.42-10.16,24.39-6.81
	c4.98,3.35,11.62,17.13,9.68,23.48l-19.72,64.39c-1.17,3.82,0.82,12.87,2.04,15.95c1.21,3.07,12.52,0.71,16.63-2.11l297.46-203.92
	c4.18-2.87,9.11-10.27,9.36-13.57c0.25-3.3-4.75-11.14-7.72-13.2L613.85,320.69z"/>
<path d="M611.9,320.82c-4.31-2.99-15.85-5.75-17.15-2.96c-1.3,2.78-4.26,12.69-2.91,17.03l29.82,95.37
	c3.41,10.9,0.97,31.51-4.57,39.14c-31.66,43.61-224.29-25.58-364.74,84.53c-75.32,59.05-42.23,98.47-78.65,99.61
	c-56.29,1.76,30.31-197.95,279.87-204.31l129.52-3.3l-29.63-108.41c-5.18-18.93,5.89-44.59,19.72-52.34
	c19.06-10.67,41.62-8.34,59.77,4.21l305.47,211.26c12.33,8.52,20.1,32.36,18.76,44.4c-1.64,14.78-13.16,32.61-26.95,42.08
	L631.7,792.14c-17.62,12.1-39.29,13.29-56.4,3.62c-43.06-24.33-12.31-90.39,2.82-131.83c2.14-5.86,19.42-10.16,24.39-6.81
	c4.98,3.35,11.62,17.13,9.68,23.47l-19.72,64.39c-1.17,3.82,0.82,12.87,2.04,15.95c1.21,3.07,12.52,0.71,16.63-2.11L908.6,554.91
	c4.18-2.87,9.11-10.27,9.36-13.57c0.25-3.3-4.75-11.14-7.72-13.2L611.9,320.82z"/>
</svg>
