<?xml version="1.0" encoding="iso-8859-1"?>
<!-- Generator: Adobe Illustrator 30.2.1, SVG Export Plug-In . SVG Version: 9.03 Build 0)  -->
<svg version="1.1" id="Layer_1" xmlns="http://www.w3.org/2000/svg" xmlns:xlink="http://www.w3.org/1999/xlink" x="0px" y="0px"
	 viewBox="0 0 1080 1080" style="enable-background:new 0 0 1080 1080;" xml:space="preserve">
<g>
	<path d="M267.01,667.85c-38.86-43.01-19.11-110.14,21.21-140.14c42.87-31.89,98.51-26.11,142.99,11.07l2.18-282.99
		c0.45-57.87,58.05-95.17,109-94.88c53.84,0.31,106.09,41.08,106.52,99.48l2.05,281.59c46.52-44.74,107.75-45.99,149.48-9.25
		c41.9,36.89,51.25,104.21,9.53,146.13L605.06,884.73c-33.66,33.82-91.6,34.33-125.91,0.32
		C407.04,813.57,336.86,745.14,267.01,667.85z M387.56,556.29c-28.77-23.21-69.47-10.54-89.44,16.04
		c-21.6,28.75-13.71,62.76,12.6,89.32l189.25,191.08c22.92,23.14,57.82,25.36,81.71,1.65l193.72-192.25
		c28.84-28.62,31.18-67.43,6.11-95.1c-23.83-26.31-66.67-31.12-94.5-4.07l-42.58,41.38c-3.61,3.51-16.41,6.14-21.05,4.93
		c-4.64-1.22-11.38-12.47-11.38-18.57l-0.06-317.86c-0.01-42.89-31.15-73.4-69.58-74c-40.41-0.63-72.66,31.49-72.64,73.35
		l0.09,313.74c0,8.49-6.99,21.86-13.6,23.15C436,613.03,423.36,585.17,387.56,556.29z"/>
</g>
<g>
	<path d="M265.53,672.24c-38.86-43.01-19.1-110.14,21.21-140.14c42.87-31.89,98.51-26.11,142.99,11.07l2.18-282.99
		c0.45-57.87,58.05-95.17,109-94.88c53.84,0.31,106.09,41.08,106.52,99.48l2.05,281.59c46.52-44.74,107.75-45.99,149.48-9.25
		c41.9,36.89,51.25,104.21,9.53,146.13L603.57,889.11c-33.66,33.82-91.6,34.33-125.91,0.32
		C405.56,817.96,335.37,749.53,265.53,672.24z M386.07,560.68c-28.77-23.21-69.47-10.54-89.44,16.04
		c-21.6,28.75-13.71,62.76,12.6,89.32l189.25,191.08c22.92,23.14,57.82,25.36,81.71,1.65l193.72-192.25
		c28.84-28.62,31.18-67.43,6.11-95.1c-23.83-26.31-66.67-31.12-94.5-4.07l-42.58,41.38c-3.61,3.51-16.41,6.14-21.05,4.93
		c-4.64-1.22-11.38-12.47-11.38-18.57l-0.06-317.86c-0.01-42.89-31.15-73.4-69.58-74c-40.41-0.63-72.66,31.49-72.64,73.35
		l0.09,313.74c0,8.49-6.99,21.86-13.6,23.15C434.52,617.41,421.88,589.56,386.07,560.68z"/>
</g>
</svg>
