<?xml version="1.0" encoding="iso-8859-1"?>
<!-- Generator: Adobe Illustrator 30.2.1, SVG Export Plug-In . SVG Version: 9.03 Build 0)  -->
<svg version="1.1" id="Layer_1" xmlns="http://www.w3.org/2000/svg" xmlns:xlink="http://www.w3.org/1999/xlink" x="0px" y="0px"
	 viewBox="0 0 1080 1080" style="enable-background:new 0 0 1080 1080;" xml:space="preserve">
<g>
	<path style="fill:none;stroke:#000000;stroke-width:13;stroke-linecap:round;stroke-miterlimit:10;" d="M668.63,738.53
		c9.27,22.57,2.26,43.63,16.36,59.83c32.95,37.85,105.69,28.31,129.98-16.81c15.82-29.39,16.45-68.22-9.01-91.75
		c-24.93-23.04-60.84-27.77-94.72-28.15c-128.3-1.44-224.7,40.02-320.54,32.07c-76.65-6.36-151.75-37.64-213.92-79.38
		c-4.05-2.72-3.77-17.87,1.08-15.26c80.07,43.23,185.57,77.84,277.05,59.22c103.2-21,236.57-57.41,333.38-29.51
		c50.08,14.43,83.54,57.33,84.24,108.69c0.65,47.65-23.24,89.21-59.91,110.13c-41.18,23.5-93.17,21.43-129.27-6.2
		C651.46,817.05,638.63,773.06,668.63,738.53z"/>
	<g>
		<path style="fill:none;stroke:#000000;stroke-width:13;stroke-linecap:round;stroke-miterlimit:10;" d="M746.68,514.84
			c79.18-33.38,121.97-114.03,83.91-184.9c-17.96-33.44-54.74-58.52-97.21-59.84c-27.58-0.86-52.63,13.04-73.11,30.27
			c-42.26,35.55-50.19,92.96-15.56,136.58l-10.36,5.86c-28.63-22.38-42.53-54.48-39.16-91.11c5.23-56.92,48.27-103.49,95.85-120.94
			c58.11-21.32,116.95-3.9,160.31,38.48c60.2,58.84,61.03,155.9,7.51,221.31c-27.21,33.26-60.77,54.9-103.51,68.57
			c-38.18,12.22-204.37,56.81-230.87,44.09c-2.35-1.13,2.78-8.15,6.53-9.44C600.87,569.7,677.3,544.1,746.68,514.84z"/>
		<path style="fill:none;stroke:#000000;stroke-width:13;stroke-linecap:round;stroke-miterlimit:10;" d="M410.65,594.21
			c46.92-17.01,83.13-48.05,105.57-88.69c17.92-32.44,12.87-71.32-10.89-97.46c-22.16-24.38-60.3-36.83-91.94-21.23
			c-28.51,14.05-41.42,37.57-43.31,65.2c-3.29,48.16,55.32,64.62,47.34,69.89c-1.72,1.13-7.66,4.72-9.67,4.51
			c-44.36-4.75-78.74-47.42-72.36-96.08c9.15-69.78,79-112.34,147.13-89.83c74.4,24.58,111.59,107.94,74.01,179.26
			c-33.89,64.3-100.91,107.33-174.69,110.2c-37.35,1.45-99.8-13.87-125.66-34.02C220.64,568.23,338.17,620.49,410.65,594.21z"/>
	</g>
</g>
<g>
	<path style="fill:none;stroke:#000000;stroke-width:13;stroke-linecap:round;stroke-miterlimit:10;" d="M672.75,735.78
		c9.27,22.57,2.26,43.63,16.36,59.83c32.95,37.85,105.69,28.31,129.98-16.81c15.82-29.39,16.45-68.22-9.01-91.75
		c-24.93-23.04-60.84-27.77-94.72-28.15c-128.3-1.44-224.7,40.02-320.54,32.07c-76.65-6.36-151.75-37.64-213.92-79.38
		c-4.05-2.72-3.77-17.87,1.08-15.26c80.07,43.23,185.57,77.84,277.05,59.22c103.2-21,236.57-57.41,333.38-29.51
		c50.08,14.43,83.54,57.33,84.24,108.69c0.65,47.65-23.24,89.21-59.91,110.13c-41.18,23.5-93.17,21.43-129.27-6.2
		C655.58,814.31,642.75,770.31,672.75,735.78z"/>
	<g>
		<path style="fill:none;stroke:#000000;stroke-width:13;stroke-linecap:round;stroke-miterlimit:10;" d="M750.8,512.1
			c79.18-33.38,121.97-114.03,83.91-184.9c-17.96-33.44-54.74-58.52-97.21-59.84c-27.58-0.86-52.63,13.04-73.11,30.27
			c-42.26,35.55-50.19,92.96-15.56,136.58l-10.36,5.86c-28.63-22.38-42.53-54.48-39.16-91.11c5.23-56.92,48.27-103.49,95.85-120.94
			c58.11-21.32,116.95-3.9,160.31,38.48c60.2,58.84,61.03,155.9,7.51,221.31c-27.21,33.26-60.77,54.9-103.51,68.57
			c-38.18,12.22-204.37,56.81-230.87,44.09c-2.35-1.13,2.78-8.15,6.53-9.44C604.99,566.96,681.42,541.35,750.8,512.1z"/>
		<path style="fill:none;stroke:#000000;stroke-width:13;stroke-linecap:round;stroke-miterlimit:10;" d="M414.77,591.46
			c46.92-17.01,83.13-48.05,105.57-88.69c17.92-32.44,12.87-71.32-10.89-97.46c-22.16-24.38-60.3-36.83-91.94-21.23
			c-28.51,14.05-41.42,37.57-43.31,65.2c-3.29,48.16,55.32,64.62,47.34,69.89c-1.72,1.13-7.66,4.72-9.67,4.51
			c-44.36-4.75-78.74-47.42-72.36-96.08c9.15-69.78,79-112.34,147.13-89.83c74.4,24.58,111.59,107.94,74.01,179.26
			c-33.89,64.3-100.91,107.33-174.69,110.2c-37.35,1.45-99.8-13.87-125.66-34.02C224.76,565.49,342.29,617.75,414.77,591.46z"/>
	</g>
</g>
</svg>
