<?xml version="1.0" encoding="iso-8859-1"?>
<!-- Generator: Adobe Illustrator 30.2.1, SVG Export Plug-In . SVG Version: 9.03 Build 0)  -->
<svg version="1.1" id="Layer_1" xmlns="http://www.w3.org/2000/svg" xmlns:xlink="http://www.w3.org/1999/xlink" x="0px" y="0px"
	 viewBox="0 0 1080 1080" style="enable-background:new 0 0 1080 1080;" xml:space="preserve">
<g>
	<path d="M812.82,411.82c38.86,43.01,19.1,110.14-21.21,140.14c-42.87,31.89-98.51,26.11-142.99-11.07l-2.18,282.99
		c-0.45,57.87-58.05,95.17-109,94.88c-53.84-0.31-106.09-41.08-106.52-99.48l-2.05-281.59c-46.52,44.74-107.75,45.99-149.48,9.25
		c-41.9-36.89-51.25-104.21-9.53-146.13l204.91-205.87c33.66-33.82,91.6-34.33,125.91-0.32
		C672.79,266.09,742.98,334.52,812.82,411.82z M692.28,523.37c28.77,23.21,69.47,10.54,89.44-16.04
		c21.6-28.75,13.71-62.76-12.6-89.32L579.86,226.94c-22.92-23.14-57.82-25.36-81.71-1.65L304.43,417.54
		c-28.84,28.62-31.18,67.43-6.11,95.1c23.83,26.31,66.67,31.12,94.5,4.07l42.58-41.38c3.61-3.51,16.41-6.14,21.05-4.93
		c4.64,1.22,11.38,12.47,11.38,18.57l0.06,317.86c0.01,42.89,31.15,73.4,69.58,74c40.41,0.63,72.66-31.49,72.64-73.35l-0.09-313.74
		c0-8.49,6.99-21.86,13.6-23.15C643.84,466.64,656.47,494.5,692.28,523.37z"/>
</g>
<g>
	<path d="M814.47,407.76c38.86,43.01,19.1,110.14-21.21,140.14c-42.87,31.89-98.51,26.11-142.99-11.07l-2.18,282.99
		c-0.45,57.87-58.05,95.17-109,94.88c-53.84-0.31-106.09-41.08-106.52-99.48l-2.05-281.59c-46.52,44.74-107.75,45.99-149.48,9.25
		c-41.9-36.89-51.25-104.21-9.53-146.13l204.91-205.87c33.66-33.82,91.6-34.33,125.91-0.32
		C674.44,262.04,744.63,330.47,814.47,407.76z M693.93,519.32c28.77,23.21,69.47,10.54,89.44-16.04
		c21.6-28.75,13.71-62.76-12.6-89.32L581.51,222.89c-22.92-23.14-57.82-25.36-81.71-1.65L306.08,413.49
		c-28.84,28.62-31.18,67.43-6.11,95.1c23.83,26.31,66.67,31.12,94.5,4.07l42.58-41.38c3.61-3.51,16.41-6.14,21.05-4.93
		c4.64,1.22,11.38,12.47,11.38,18.57l0.06,317.86c0.01,42.89,31.15,73.4,69.58,74c40.41,0.63,72.66-31.49,72.64-73.35l-0.09-313.74
		c0-8.49,6.99-21.86,13.6-23.15C645.48,462.59,658.12,490.44,693.93,519.32z"/>
</g>
</svg>
