<?xml version="1.0" encoding="iso-8859-1"?>
<!-- Generator: Adobe Illustrator 30.2.1, SVG Export Plug-In . SVG Version: 9.03 Build 0)  -->
<svg version="1.1" id="Layer_1" xmlns="http://www.w3.org/2000/svg" xmlns:xlink="http://www.w3.org/1999/xlink" x="0px" y="0px"
	 viewBox="0 0 1080 1080" style="enable-background:new 0 0 1080 1080;" xml:space="preserve">
<g>
	<path d="M853.22,825.26l-630.82-0.24c-50.48-0.02-85.98-51.49-86.07-97.04l-0.7-370.49c-0.1-54.51,37.25-103.06,96.47-103.07
		l618.54-0.04c49.39,0,93.47,43.88,93.49,92.96l0.16,385.64C944.31,779.37,904.39,825.28,853.22,825.26z M837.49,803.13
		c46.38-0.07,84.5-29.94,84.51-76.26l0.14-373.13c0.02-45.92-37.55-76.79-81.94-76.78l-602.05,0.12
		c-47.1,0.01-79.37,35.15-79.32,81.32l0.37,364c0.05,52.04,38.74,81.71,88.74,81.63L837.49,803.13z"/>
	<path d="M631.76,573.09L497.4,649.61c-9.03,5.14-28.41,4.18-38.55-0.93c-9.1-4.58-18.39-21.74-18.34-34.74l0.48-147.2
		c0.04-11.63,10.75-29.07,19.64-33.93c12.58-6.88,30.77-5.22,43.59,2.09l125.57,71.63c9.64,5.5,19.61,21.68,20.42,31.36
		C650.99,547.4,642.34,567.06,631.76,573.09z M617.13,553.99c4.18-2.38,9.49-12.04,8.64-15.48c-0.64-2.59-5.27-9.45-7.87-10.96
		l-127.07-73.57c-4.03-2.33-15.91-2.93-19.24-0.46c-3.33,2.47-8.1,11.23-8.14,16.6l-0.85,142.92c-0.05,9.11,14.61,20.43,23.34,15.48
		L617.13,553.99z"/>
</g>
<g>
	<path d="M853.3,825.43l-630.82-0.24c-50.48-0.02-85.98-51.49-86.07-97.04l-0.7-370.49c-0.1-54.51,37.25-103.06,96.47-103.07
		l618.54-0.04c49.39,0,93.47,43.88,93.49,92.96l0.16,385.64C944.39,779.54,904.47,825.45,853.3,825.43z M837.57,803.3
		c46.38-0.07,84.5-29.94,84.51-76.26l0.14-373.13c0.02-45.92-37.55-76.79-81.94-76.78l-602.05,0.12
		c-47.1,0.01-79.37,35.15-79.32,81.32l0.37,364c0.05,52.04,38.74,81.71,88.74,81.63L837.57,803.3z"/>
	<path d="M631.84,573.26l-134.36,76.52c-9.03,5.14-28.41,4.18-38.55-0.93c-9.1-4.58-18.39-21.74-18.34-34.74l0.48-147.2
		c0.04-11.63,10.75-29.07,19.64-33.93c12.58-6.88,30.77-5.22,43.59,2.09l125.57,71.63c9.64,5.5,19.61,21.68,20.42,31.36
		C651.07,547.57,642.42,567.23,631.84,573.26z M617.21,554.16c4.18-2.38,9.49-12.04,8.64-15.48c-0.64-2.59-5.27-9.45-7.87-10.96
		l-127.07-73.57c-4.03-2.33-15.91-2.93-19.24-0.46c-3.33,2.47-8.1,11.23-8.14,16.6l-0.85,142.92c-0.05,9.11,14.61,20.43,23.34,15.48
		L617.21,554.16z"/>
</g>
</svg>
