<?xml version="1.0" encoding="iso-8859-1"?>
<!-- Generator: Adobe Illustrator 30.2.1, SVG Export Plug-In . SVG Version: 9.03 Build 0)  -->
<svg version="1.1" id="Layer_1" xmlns="http://www.w3.org/2000/svg" xmlns:xlink="http://www.w3.org/1999/xlink" x="0px" y="0px"
	 viewBox="0 0 1080 1080" style="enable-background:new 0 0 1080 1080;" xml:space="preserve">
<g>
	<path style="fill:none;stroke:#000000;stroke-width:19;stroke-linecap:round;stroke-miterlimit:10;" d="M514.02,602.2l-33.15-68.3
		l-30.47,32.76l23.03,16.79c12.45,9.07,18.2,23.3,10.92,37.68c-5.94,11.74-23.5,16.26-36.97,9.3l-59.01-30.46
		c-18.73-9.67-20.37-31.24-10.15-47.27l72.17-113.25c45.79-24.68,91.71-20.6,99.72-91.76c2.85-25.36-9.23-55.35-30.89-72.3
		l-58.7-45.93c-12.5-9.78-17.29-25.26-9.71-39.81c6.54-12.55,24.56-16.61,38.97-9.85c44.99,21.1,78.7,54.13,108.25,93.15
		c42.5,56.11,17.46,111.41-10.85,170.71l68.59,179.99c28.74,75.43,33.8,155.58,51.07,234.19c4.85,22.1-7.63,42.21-28.3,45.67
		c-21.06,3.52-37.28-11.56-40.73-34.09c-11.25-73.41-27.43-143.95-60.14-213.84l-138.82,232.9c-7.78,13.05-25.41,16-38.51,8.56
		c-8.71-4.94-16.87-22.79-10.75-35.53L514.02,602.2z"/>
	
		<circle style="fill:none;stroke:#000000;stroke-width:19;stroke-linecap:round;stroke-miterlimit:10;" cx="470.97" cy="347.68" r="64.21"/>
</g>
<g>
	<path style="fill:none;stroke:#000000;stroke-width:19;stroke-linecap:round;stroke-miterlimit:10;" d="M514.1,601.91l-33.15-68.3
		l-30.47,32.76l23.03,16.79c12.45,9.07,18.2,23.3,10.92,37.68c-5.94,11.74-23.5,16.26-36.97,9.3l-59.01-30.46
		c-18.73-9.67-20.37-31.24-10.15-47.27l72.17-113.25c45.79-24.68,91.71-20.6,99.72-91.76c2.85-25.36-9.23-55.35-30.89-72.3
		l-58.7-45.93c-12.5-9.78-17.29-25.26-9.71-39.81c6.54-12.55,24.56-16.61,38.97-9.85c44.99,21.1,78.7,54.13,108.25,93.15
		c42.5,56.11,17.46,111.41-10.85,170.71l68.59,179.99c28.74,75.43,33.8,155.58,51.07,234.19c4.85,22.1-7.63,42.21-28.3,45.67
		c-21.06,3.52-37.28-11.56-40.73-34.09c-11.25-73.41-27.43-143.95-60.14-213.84L438.92,888.2c-7.78,13.05-25.41,16-38.51,8.56
		c-8.71-4.94-16.87-22.79-10.75-35.53L514.1,601.91z"/>
	
		<circle style="fill:none;stroke:#000000;stroke-width:19;stroke-linecap:round;stroke-miterlimit:10;" cx="471.05" cy="347.39" r="64.21"/>
</g>
</svg>
