<?xml version="1.0" encoding="iso-8859-1"?>
<!-- Generator: Adobe Illustrator 30.2.1, SVG Export Plug-In . SVG Version: 9.03 Build 0)  -->
<svg version="1.1" id="Layer_1" xmlns="http://www.w3.org/2000/svg" xmlns:xlink="http://www.w3.org/1999/xlink" x="0px" y="0px"
	 viewBox="0 0 1080 1080" style="enable-background:new 0 0 1080 1080;" xml:space="preserve">
<path d="M717.13,627.41L452.72,771.04c-33.54,18.22-68.23,20.83-101.43,2.1c-28.31-15.98-48.15-47-48.07-84.54l0.59-304.25
	c0.07-34.06,23.14-64.47,46.44-77.98c32.04-18.59,67.04-17.08,98.1-0.25l271.15,146.87c35.23,19.08,57.2,47.93,56.69,87
	C775.67,579.47,754.25,607.24,717.13,627.41z M717.82,602.63c25.36-13.81,38.68-36.9,38.26-62.51
	c-0.36-21.81-10.53-49.04-32.72-61.07L431.04,320.56c-22.66-12.29-53.55-9.32-73.52,5.11c-16.37,11.83-32.19,33.24-32.17,58.13
	l0.23,317.43c0.02,24.84,21.38,46.07,37.63,55.09c22.96,12.74,48.45,13.05,71.57,0.46L717.82,602.63z"/>
<path d="M717.43,627.92L453.01,771.56c-33.54,18.22-68.23,20.83-101.43,2.1c-28.31-15.98-48.15-47-48.07-84.54l0.59-304.25
	c0.07-34.06,23.14-64.47,46.44-77.98c32.04-18.59,67.04-17.08,98.1-0.25l271.15,146.87c35.23,19.08,57.2,47.93,56.69,87
	C775.96,579.98,754.55,607.75,717.43,627.92z M718.12,603.14c25.36-13.81,38.68-36.9,38.26-62.51
	c-0.36-21.81-10.53-49.04-32.72-61.07L431.34,321.07c-22.66-12.29-53.55-9.32-73.52,5.11c-16.37,11.83-32.19,33.24-32.17,58.13
	l0.23,317.43c0.02,24.84,21.38,46.07,37.63,55.09c22.96,12.74,48.45,13.05,71.57,0.46L718.12,603.14z"/>
</svg>
