<?xml version="1.0" encoding="iso-8859-1"?>
<!-- Generator: Adobe Illustrator 30.2.1, SVG Export Plug-In . SVG Version: 9.03 Build 0)  -->
<svg version="1.1" id="Layer_1" xmlns="http://www.w3.org/2000/svg" xmlns:xlink="http://www.w3.org/1999/xlink" x="0px" y="0px"
	 viewBox="0 0 1080 1080" style="enable-background:new 0 0 1080 1080;" xml:space="preserve">
<g>
	<path d="M921,667.68c-227.35-140.14-542.45-123.65-762.03-1.17c-7.49,4.18-15.62,0.87-16.89-1.88c-1.58-3.44,0.94-12.43,4.65-14.61
		c66.48-38.95,135.33-64.18,213.61-81.57c-25.67-79.01,1.93-161.84,67.05-210.38c64.76-48.28,154.91-50.25,221.32-3.89
		c67.04,46.8,96.69,130.28,72.78,213.94c71.28,16.64,150.93,46.34,210.67,79.83c3.71,2.08,6.21,12.21,6.63,15.05
		C939.33,666.75,927.13,671.45,921,667.68z M700.53,563.31c24.37-76.22-4.58-151.51-63.88-192.39
		c-59.83-41.24-138.93-39.25-196.95,4.13c-57.02,42.63-83.77,117.05-58.23,188.18C488.56,542.41,592.61,543.81,700.53,563.31z"/>
	<path d="M524.36,907.57c-28.27,16.6-62.04,21.15-87.79-2.62c-8.17-7.54-11.29-26-6.72-36.81c3.57-8.44,17.34-18.01,27.37-25.62
		c-0.8-32.81,1.81-71.88,30.17-94.37c38.51-30.53,95.51-21.91,123.54,18.18c15.26,21.82,12.09,52.18,19.57,75.39
		c5.12,9.2,24.04,21.04,24.5,31.26c0.74,16.63-4.53,33.22-19.69,40.42C599.31,930.5,558.48,928.32,524.36,907.57z M470.29,899.83
		c28.38,2.66,46.99-12.78,68.58-25.16l38.28-21.95l-6.74-49.18c-0.51-3.73,3.3-11.73,6.06-13.7c2.77-1.96,10.59,5.85,11.6,9.61
		l11.97,44.6c13.75-25.93,2.66-57.88-16.38-77.14c-20.02-20.25-59.65-21.96-81.21-3.67c-21.17,17.96-34.13,49.98-19.34,78.82
		l9.88-42.8c0.83-3.58,8.2-10.92,11.52-9.91c3.32,1.01,6.51,9.84,6.03,13.56l-5.47,42.17l25.4,11.35
		c4.18,1.87,9.21,11.96,5.97,14.75c-15.88,13.63-35.46-14.8-71.3-7.2c-8.68,1.84-18.04,15.17-16.07,21.51
		C450.78,891.03,462.28,899.08,470.29,899.83z M634.31,874.99c-16.43-30.49-67.08,4.2-85.84,20.99
		C576.99,908.83,648.37,901.08,634.31,874.99z"/>
	<path d="M585.26,677.47c0,24.3-19.7,44-44,44s-44-19.7-44-44c0-24.3,19.7-44,44-44S585.26,653.17,585.26,677.47z M564.33,677.37
		c0-12.64-10.24-22.88-22.88-22.88s-22.88,10.24-22.88,22.88s10.24,22.88,22.88,22.88S564.33,690.01,564.33,677.37z"/>
	<path d="M550.16,276.84c-0.01,3.77-6.22,11.86-9.44,13.34c-3.23,1.48-10.99-7.92-10.97-11.66l0.4-116.31
		c0.02-4.59,6.56-13.04,10.44-12.42c3.87,0.62,9.85,8.63,9.84,12.72L550.16,276.84z"/>
	<path d="M721.39,365.8c-2.79,2.36-13.16,0.99-15.27-1.55c-2.13-2.57-0.46-12.38,2.7-15.03l89.44-74.74
		c2.68-2.24,11.35-3.46,14.53-2.17c3.97,1.6,2.93,13.71-0.88,16.93L721.39,365.8z"/>
	<path d="M358.09,365.7l-88.78-75.97c-3.18-2.72-4.85-12.37-3.26-15.47c1.98-3.87,12.97-3.37,17.18,0.21l88.2,75.14
		c2.92,2.49,4.28,12.3,2.98,15.34C372.79,368.76,361.62,368.72,358.09,365.7z"/>
	<path d="M452.11,291.97c1.64,3.55-0.18,13.94-2.61,16.24c-3.05,2.88-13.48-1.64-15.59-6.21l-47.48-102.66
		c-1.98-4.27,0.16-14.44,2.83-16.69c3.35-2.82,13.3,2.27,15.29,6.57L452.11,291.97z"/>
	<path d="M645.42,301.46c-1.81,3.81-10.15,7.72-13.51,7.02c-3.39-0.71-7.37-10.29-5.37-14.49l51.2-107.02l11.07-5.06
		c2.97-1.36,6.15,7.64,7.51,12.53L645.42,301.46z"/>
	<path d="M315.4,454.96l-112.81-32.37c-3.68-1.06-8.74-8.43-8.09-11.51c0.64-3.08,10.25-8.78,13.56-7.84l109.67,31.22
		c3.16,0.9,8.64,6.76,10.57,8.42C330.86,445.09,318.81,455.93,315.4,454.96z"/>
	<path d="M768.37,453.52c-4.8,1.29-16.2-2.18-16.93-6.06c-0.72-3.88,5.25-12.7,9.24-13.71l112.59-28.55
		c3.88-0.98,13.46,4.87,13.16,7.9c-0.38,3.84-5.8,10.31-10.22,11.5L768.37,453.52z"/>
	<path d="M849.91,568.99l-81.99-16.24c-5.02-1-11.84-7.88-12.48-11.5c-0.8-4.52,9.77-11.26,14.96-10.22l82.04,16.46
		c3.89,0.78,10.96,8.25,11.14,11.87C863.8,563.88,854.39,569.88,849.91,568.99z"/>
	<path d="M230.29,568.97c-5.38,1.03-14.12-2.57-15.29-5.82c-1.17-3.26,5-12.97,8.79-13.73L310.38,532
		c3.57-0.72,10.73,3.2,13.12,5.67c2.42,2.5-2.09,13.92-6.49,14.76L230.29,568.97z"/>
</g>
<g>
	<path d="M921.02,668.43c-227.35-140.14-542.45-123.65-762.03-1.17c-7.49,4.18-15.62,0.87-16.89-1.88
		c-1.58-3.44,0.94-12.43,4.65-14.61c66.48-38.95,135.33-64.18,213.61-81.57c-25.67-79.01,1.93-161.84,67.05-210.38
		c64.76-48.28,154.91-50.25,221.32-3.89c67.04,46.8,96.69,130.28,72.78,213.94c71.28,16.64,150.93,46.34,210.67,79.83
		c3.71,2.08,6.21,12.21,6.63,15.05C939.35,667.5,927.15,672.2,921.02,668.43z M700.55,564.06c24.37-76.22-4.58-151.51-63.88-192.39
		c-59.83-41.24-138.93-39.25-196.95,4.13c-57.02,42.63-83.77,117.05-58.23,188.18C488.58,543.16,592.63,544.56,700.55,564.06z"/>
	<path d="M524.38,908.32c-28.27,16.6-62.04,21.15-87.79-2.62c-8.17-7.54-11.29-26-6.72-36.81c3.57-8.44,17.34-18.01,27.37-25.62
		c-0.8-32.81,1.81-71.88,30.17-94.37c38.51-30.53,95.51-21.91,123.54,18.18c15.26,21.82,12.09,52.18,19.57,75.39
		c5.12,9.2,24.04,21.04,24.5,31.26c0.74,16.63-4.53,33.22-19.69,40.42C599.33,931.25,558.5,929.07,524.38,908.32z M470.31,900.58
		c28.38,2.66,46.99-12.78,68.58-25.16l38.28-21.95l-6.74-49.18c-0.51-3.73,3.3-11.73,6.06-13.7c2.77-1.96,10.59,5.85,11.6,9.61
		l11.97,44.6c13.75-25.93,2.66-57.88-16.38-77.14c-20.02-20.25-59.65-21.96-81.21-3.67c-21.17,17.96-34.13,49.98-19.34,78.82
		l9.88-42.8c0.83-3.58,8.2-10.92,11.52-9.91c3.32,1.01,6.51,9.84,6.03,13.56l-5.47,42.17l25.4,11.35
		c4.18,1.87,9.21,11.96,5.97,14.75c-15.88,13.63-35.46-14.8-71.3-7.2c-8.68,1.84-18.04,15.17-16.07,21.51
		C450.79,891.78,462.3,899.83,470.31,900.58z M634.33,875.74c-16.43-30.49-67.08,4.2-85.84,20.99
		C577,909.59,648.39,901.83,634.33,875.74z"/>
	<path d="M585.28,678.22c0,24.3-19.7,44-44,44c-24.3,0-44-19.7-44-44c0-24.3,19.7-44,44-44
		C565.58,634.22,585.28,653.92,585.28,678.22z M564.35,678.12c0-12.64-10.24-22.88-22.88-22.88c-12.64,0-22.88,10.24-22.88,22.88
		S528.83,701,541.47,701C554.11,701,564.35,690.76,564.35,678.12z"/>
	<path d="M550.18,277.59c-0.01,3.77-6.22,11.86-9.44,13.34c-3.23,1.48-10.99-7.92-10.97-11.66l0.4-116.31
		c0.02-4.59,6.56-13.04,10.44-12.42c3.87,0.62,9.85,8.63,9.84,12.72L550.18,277.59z"/>
	<path d="M721.41,366.55c-2.79,2.36-13.16,0.99-15.27-1.55c-2.13-2.57-0.46-12.38,2.7-15.03l89.44-74.74
		c2.68-2.24,11.35-3.46,14.53-2.17c3.97,1.6,2.93,13.71-0.88,16.93L721.41,366.55z"/>
	<path d="M358.11,366.45l-88.78-75.97c-3.18-2.72-4.85-12.37-3.26-15.47c1.98-3.87,12.97-3.37,17.18,0.21l88.2,75.14
		c2.92,2.49,4.28,12.3,2.98,15.34C372.81,369.51,361.64,369.47,358.11,366.45z"/>
	<path d="M452.13,292.72c1.64,3.55-0.18,13.94-2.61,16.24c-3.05,2.88-13.48-1.64-15.59-6.21l-47.48-102.66
		c-1.98-4.27,0.16-14.44,2.83-16.69c3.35-2.82,13.3,2.27,15.29,6.57L452.13,292.72z"/>
	<path d="M645.43,302.21c-1.81,3.81-10.15,7.72-13.51,7.02c-3.39-0.71-7.37-10.29-5.37-14.49l51.2-107.02l11.07-5.06
		c2.97-1.36,6.15,7.64,7.51,12.53L645.43,302.21z"/>
	<path d="M315.42,455.71l-112.81-32.37c-3.68-1.06-8.74-8.43-8.09-11.51c0.64-3.08,10.25-8.78,13.56-7.84l109.67,31.22
		c3.16,0.9,8.64,6.76,10.57,8.42C330.88,445.84,318.83,456.68,315.42,455.71z"/>
	<path d="M768.39,454.27c-4.8,1.29-16.2-2.18-16.93-6.06c-0.72-3.88,5.25-12.7,9.24-13.71l112.59-28.55
		c3.88-0.98,13.46,4.87,13.16,7.9c-0.38,3.84-5.8,10.31-10.22,11.5L768.39,454.27z"/>
	<path d="M849.93,569.74l-81.99-16.24c-5.02-1-11.84-7.88-12.48-11.5c-0.8-4.52,9.77-11.26,14.96-10.22l82.04,16.46
		c3.89,0.78,10.96,8.25,11.14,11.87C863.82,564.63,854.41,570.63,849.93,569.74z"/>
	<path d="M230.31,569.72c-5.38,1.03-14.12-2.57-15.29-5.82c-1.17-3.26,5-12.97,8.79-13.73l86.59-17.42
		c3.57-0.72,10.73,3.2,13.12,5.67c2.42,2.5-2.09,13.92-6.49,14.76L230.31,569.72z"/>
</g>
</svg>
