<?xml version="1.0" encoding="iso-8859-1"?>
<!-- Generator: Adobe Illustrator 30.2.1, SVG Export Plug-In . SVG Version: 9.03 Build 0)  -->
<svg version="1.1" id="Layer_1" xmlns="http://www.w3.org/2000/svg" xmlns:xlink="http://www.w3.org/1999/xlink" x="0px" y="0px"
	 viewBox="0 0 1080 1080" style="enable-background:new 0 0 1080 1080;" xml:space="preserve">
<g>
	<path d="M211.68,494.98c-26,1.23-46.46-8.4-56.09-29.18c-9.11-19.65-7.54-48.09,13.19-61.38l65.46-41.98l0.83-78.95
		c0.12-11.39,12.43-26.51,23.21-26.5l51.88,0.02c11.04,0,19.67,11.67,21.43,20.84l4.34,22.6l92.54-54.25
		c72.54-42.52,159.46-36.34,231.41,7.22l240.18,145.42c22.38,13.55,33.29,35.78,24.09,62.13c-7.42,21.25-29.5,37.72-58.2,32.12
		l-0.21,258.4c-0.06,69.24-54.57,124.52-125.01,124.47l-407.11-0.3c-68.5-0.05-122.53-54.83-122.6-121.5l-0.21-225.7L211.68,494.98z
		 M622.07,326.88l240.35,145.24c15.97,9.65,36.42-1.35,42.5-14.69c5.39-11.84,5.27-30.15-9.64-39.23L657.3,273.22
		c-66.24-40.35-148.81-53.07-217.9-11.27L181.93,417.73c-15.31,9.26-16.35,32.03-7.09,44.33c7.45,9.9,25.92,18.71,40.21,9.98
		l228.47-139.66C498.52,298.75,563.17,291.29,622.07,326.88z M312.61,315.54c2.32-10.91,1.77-29.37-1.11-38.56l-38.48-2.72
		c-8.42-0.59-20.51,5.91-20.35,15.04l1.09,60.91L312.61,315.54z M402.79,857.41l336.55-0.75c55.42,0.4,106.87-40.54,107.05-98.44
		l0.84-273.11L600.78,335.4c-45.9-19.01-91.64-18.15-134.76,5.55L229.96,484.98l0.63,273.74c0.13,57.05,52.05,96.94,105.64,99.27
		C358.89,858.97,378.44,857.46,402.79,857.41z"/>
	<path d="M637.31,631.89c0,54.76-44.4,99.15-99.16,99.15s-99.16-44.39-99.16-99.15c0-54.76,44.4-99.15,99.16-99.15
		S637.31,577.13,637.31,631.89z M618.68,631.87c0-44.44-36.03-80.46-80.47-80.46s-80.47,36.02-80.47,80.46s36.03,80.46,80.47,80.46
		S618.68,676.3,618.68,631.87z"/>
</g>
<g>
	<path d="M212.83,488.34c-26,1.23-46.46-8.4-56.09-29.18c-9.11-19.65-7.54-48.09,13.19-61.38l65.46-41.98l0.83-78.95
		c0.12-11.39,12.43-26.51,23.21-26.5l51.88,0.02c11.04,0,19.67,11.67,21.43,20.84l4.34,22.6l92.54-54.25
		c72.54-42.52,159.46-36.34,231.41,7.22l240.18,145.42c22.38,13.55,33.29,35.78,24.09,62.13c-7.42,21.25-29.5,37.72-58.2,32.12
		l-0.21,258.4c-0.06,69.24-54.57,124.52-125.01,124.47l-407.11-0.3c-68.5-0.05-122.53-54.83-122.6-121.5l-0.21-225.7L212.83,488.34z
		 M623.22,320.24l240.35,145.24c15.97,9.65,36.42-1.35,42.5-14.69c5.39-11.84,5.27-30.15-9.64-39.23L658.44,266.59
		c-66.24-40.35-148.81-53.07-217.9-11.27L183.07,411.09c-15.31,9.26-16.35,32.03-7.09,44.33c7.45,9.9,25.92,18.71,40.21,9.98
		l228.47-139.66C499.66,292.11,564.31,284.65,623.22,320.24z M313.75,308.9c2.32-10.91,1.77-29.37-1.11-38.56l-38.48-2.72
		c-8.42-0.59-20.51,5.91-20.35,15.04l1.09,60.91L313.75,308.9z M403.93,850.77l336.55-0.75c55.42,0.4,106.87-40.54,107.05-98.44
		l0.84-273.11L601.92,328.76c-45.9-19.01-91.64-18.15-134.76,5.55L231.1,478.35l0.63,273.74c0.13,57.05,52.05,96.94,105.64,99.27
		C360.03,852.34,379.58,850.83,403.93,850.77z"/>
	<path d="M638.46,625.25c0,54.76-44.4,99.15-99.16,99.15s-99.16-44.39-99.16-99.15s44.4-99.15,99.16-99.15
		S638.46,570.49,638.46,625.25z M619.82,625.23c0-44.44-36.03-80.46-80.47-80.46s-80.47,36.02-80.47,80.46
		c0,44.44,36.03,80.46,80.47,80.46S619.82,669.66,619.82,625.23z"/>
</g>
</svg>
