<?xml version="1.0" encoding="iso-8859-1"?>
<!-- Generator: Adobe Illustrator 30.2.1, SVG Export Plug-In . SVG Version: 9.03 Build 0)  -->
<svg version="1.1" id="Layer_1" xmlns="http://www.w3.org/2000/svg" xmlns:xlink="http://www.w3.org/1999/xlink" x="0px" y="0px"
	 viewBox="0 0 1080 1080" style="enable-background:new 0 0 1080 1080;" xml:space="preserve">
<g>
	<path d="M879.89,539.83c0,187.76-152.21,339.97-339.97,339.97S199.95,727.59,199.95,539.83s152.21-339.97,339.97-339.97
		S879.89,352.07,879.89,539.83z M850.5,539.74c0-171.54-139.06-310.61-310.61-310.61S229.29,368.19,229.29,539.74
		S368.35,850.34,539.9,850.34S850.5,711.28,850.5,539.74z"/>
	<path d="M623.36,735.77c-42.4-49.91-122.42-49.21-163.91-1.43c-7.16,8.25-15.1,13.58-21.56,10.55c-11.31-5.3-13.06-18.03-5.36-26.7
		c57.83-65.13,159.14-66.25,216.01,0.41c4.78,5.6,4.31,20.77-0.74,24C641.37,746.71,630.18,743.8,623.36,735.77z"/>
	<path d="M601.98,300.95l-45.87,70.41c-2.74,4.2-9.9,10.32-13.66,11.65c-4.52,1.6-14.46-5.53-17.06-9.6l-45.88-71.85
		c-3.25-5.09-2.55-17.61,1.81-21.05c4.36-3.44,18.93-1.37,22.21,3.8l36.44,57.37l35.98-55.73c2.9-4.48,16.52-8.7,21.38-6.62
		C603.01,281.75,605.45,295.62,601.98,300.95z"/>
	<path d="M323.78,445.5c-5.47,6.83-16.68,10.66-23.36,8.5c-6.37-2.06-9.67-18.68-4.57-24.59c36.54-42.34,80.42-68.4,132.47-89.26
		c6.04-2.42,19.4,5.04,19.85,10.97C450.22,378.48,378.66,377.01,323.78,445.5z"/>
	<path d="M444.97,502.32c-35.69-28.3-83.17-15.96-106.45,20.62c-2.79,4.38-13.81,7.6-18.97,6.94c-5.15-0.66-11.46-15.96-8.44-21.07
		c30.6-51.85,102.85-69.52,151.59-32.36c5.62,4.29,9.33,14.93,7.66,20.31C468.23,503.65,453.14,508.79,444.97,502.32z"/>
	<path d="M742.77,521.26c-26.03-39.68-76.06-45.15-111.74-17.57c-5.46,4.22-16.75,2.75-21.13-1.96c-3.71-3.98-2.06-17.17,3.54-21.84
		c47.16-39.35,119.76-27.84,154.39,22.51c4.14,6.02,3.47,20.12-1.09,23.82C761.9,530.15,747.04,527.77,742.77,521.26z"/>
	<path d="M758.09,445.14c-53.31-67.69-128.03-66.12-124.56-93.88c0.71-5.7,14.43-12.76,19.81-10.59
		c50.74,20.46,94.25,46.06,131.2,85.7c5.75,6.17,5.56,21.53-0.44,25.72C777.89,456.41,765.01,453.92,758.09,445.14z"/>
</g>
<g>
	<path d="M879.97,540c0,187.76-152.21,339.97-339.97,339.97S200.03,727.76,200.03,540S352.24,200.03,540,200.03
		S879.97,352.24,879.97,540z M850.58,539.9c0-171.54-139.06-310.61-310.61-310.61S229.37,368.36,229.37,539.9
		s139.06,310.61,310.61,310.61S850.58,711.45,850.58,539.9z"/>
	<path d="M623.44,735.94c-42.4-49.91-122.42-49.21-163.91-1.43c-7.16,8.25-15.1,13.58-21.56,10.55c-11.31-5.3-13.06-18.03-5.36-26.7
		c57.83-65.13,159.14-66.25,216.01,0.41c4.78,5.6,4.31,20.77-0.74,24C641.46,746.88,630.27,743.97,623.44,735.94z"/>
	<path d="M602.06,301.12l-45.87,70.41c-2.74,4.2-9.9,10.32-13.66,11.65c-4.52,1.6-14.46-5.53-17.06-9.6l-45.88-71.85
		c-3.25-5.09-2.55-17.61,1.81-21.05c4.36-3.44,18.93-1.37,22.21,3.8l36.44,57.37l35.98-55.73c2.9-4.48,16.52-8.7,21.38-6.62
		C603.09,281.91,605.54,295.79,602.06,301.12z"/>
	<path d="M323.86,445.66c-5.47,6.83-16.68,10.66-23.36,8.5c-6.37-2.06-9.67-18.68-4.57-24.59c36.54-42.34,80.42-68.4,132.47-89.26
		c6.04-2.42,19.4,5.04,19.85,10.97C450.31,378.65,378.74,377.17,323.86,445.66z"/>
	<path d="M445.06,502.48c-35.69-28.3-83.17-15.96-106.45,20.62c-2.79,4.38-13.81,7.6-18.97,6.94c-5.15-0.66-11.46-15.96-8.44-21.07
		c30.6-51.85,102.85-69.52,151.59-32.36c5.62,4.29,9.33,14.93,7.66,20.31C468.32,503.82,453.22,508.96,445.06,502.48z"/>
	<path d="M742.85,521.43c-26.03-39.68-76.06-45.15-111.74-17.57c-5.46,4.22-16.75,2.75-21.13-1.96c-3.71-3.98-2.06-17.17,3.54-21.84
		c47.16-39.35,119.76-27.84,154.39,22.51c4.14,6.02,3.47,20.12-1.09,23.82C761.98,530.32,747.12,527.94,742.85,521.43z"/>
	<path d="M758.18,445.31c-53.31-67.69-128.03-66.12-124.56-93.88c0.71-5.7,14.43-12.76,19.81-10.59
		c50.74,20.46,94.25,46.06,131.2,85.7c5.75,6.17,5.56,21.53-0.44,25.72C777.97,456.58,765.09,454.09,758.18,445.31z"/>
</g>
</svg>
