<?xml version="1.0" encoding="iso-8859-1"?>
<!-- Generator: Adobe Illustrator 30.2.1, SVG Export Plug-In . SVG Version: 9.03 Build 0)  -->
<svg version="1.1" id="Layer_1" xmlns="http://www.w3.org/2000/svg" xmlns:xlink="http://www.w3.org/1999/xlink" x="0px" y="0px"
	 viewBox="0 0 1080 1080" style="enable-background:new 0 0 1080 1080;" xml:space="preserve">
<g>
	<path d="M841.54,845.13c-160.5,46.04-445.96,47.17-607.11-0.96c-15.92-4.76-33.59-18.35-33.09-35.47
		c2.09-71.09,78.22-126.03,138.42-150.4c127.23-51.52,268.43-51.08,395.98-0.69c61.07,24.12,136.92,80.12,141.91,150.95
		C878.99,827.6,858.42,840.29,841.54,845.13z M822.58,826.03c9.77-2.44,27.58-9.72,30.78-18.44
		c-6.25-66.8-88.35-115.89-146.59-135.66c-117.69-39.96-244.47-38.06-359.25,9.31c-49.39,20.38-121.9,71.33-121.36,125.99
		c0.27,27.56,176.02,43.74,203.35,45.3C556.14,859.8,698.86,856.87,822.58,826.03z"/>
	<path d="M661.71,515.73c-62.18,71.16-161.35,76.7-231.05,14.25c-71.54-64.1-85.18-175.45-35.72-258.17
		c30.64-51.25,82.75-81.08,139.33-82.73c58.65-1.71,113.72,27.65,145.89,78.61C728.9,344.9,722.66,445.98,661.71,515.73z
		 M631.63,511.78c69.27-62.65,75.75-170.08,20.05-243.05c-29.66-38.86-73.08-56.59-119.69-54.97
		c-45.59,1.59-86.32,26.05-112.99,66.38c-47.92,72.49-36.65,172.44,27.24,230.89C500.53,560.7,575.33,562.7,631.63,511.78z"/>
</g>
<g>
	<path d="M842.02,850.65c-160.5,46.04-445.96,47.17-607.11-0.96c-15.92-4.76-33.59-18.35-33.09-35.47
		c2.09-71.09,78.22-126.03,138.42-150.4c127.23-51.52,268.43-51.08,395.98-0.69c61.07,24.12,136.92,80.12,141.91,150.95
		C879.47,833.11,858.89,845.81,842.02,850.65z M823.05,831.55c9.77-2.44,27.58-9.72,30.78-18.44
		c-6.25-66.8-88.35-115.89-146.59-135.66c-117.69-39.96-244.47-38.06-359.25,9.31c-49.39,20.38-121.9,71.33-121.36,125.99
		c0.27,27.56,176.02,43.74,203.35,45.3C556.62,865.31,699.33,862.39,823.05,831.55z"/>
	<path d="M662.19,521.24c-62.18,71.16-161.35,76.7-231.05,14.25c-71.54-64.1-85.18-175.45-35.72-258.17
		c30.64-51.25,82.75-81.08,139.33-82.73c58.65-1.71,113.72,27.65,145.89,78.61C729.38,350.42,723.13,451.5,662.19,521.24z
		 M632.1,517.3c69.27-62.65,75.75-170.08,20.05-243.05c-29.66-38.86-73.08-56.59-119.69-54.97c-45.59,1.59-86.32,26.05-112.99,66.38
		c-47.92,72.49-36.65,172.44,27.24,230.89C501,566.22,575.81,568.22,632.1,517.3z"/>
</g>
</svg>
