<?xml version="1.0" encoding="iso-8859-1"?>
<!-- Generator: Adobe Illustrator 30.2.1, SVG Export Plug-In . SVG Version: 9.03 Build 0)  -->
<svg version="1.1" id="Layer_1" xmlns="http://www.w3.org/2000/svg" xmlns:xlink="http://www.w3.org/1999/xlink" x="0px" y="0px"
	 viewBox="0 0 1080 1080" style="enable-background:new 0 0 1080 1080;" xml:space="preserve">
<g>
	<path d="M754.17,540c0,117.77-95.47,213.25-213.25,213.25S327.67,657.78,327.67,540s95.48-213.25,213.25-213.25
		S754.17,422.23,754.17,540z M734.18,540.11c0-106.55-86.38-192.93-192.93-192.93s-192.93,86.38-192.93,192.93
		s86.38,192.93,192.93,192.93S734.18,646.67,734.18,540.11z"/>
	<path d="M734.32,381.23c-14.05-10.72-26.69-22.68-37.12-34.7c-15.64-18.03-10.16-46.55,10.67-57.18
		c38.68-19.73,81.39-48.74,105.4-22.47c7.12,7.79,10.12,24.94,4.99,36.14l-29.06,63.34C780.29,385.78,753.99,396.23,734.32,381.23z
		 M745.33,363.51c3.16,2.87,13.08,4.72,16.42,2.96c2.67-1.41,8.57-6.84,9.85-9.68l28.21-62.46c1.66-3.68-0.19-12.77-2.71-15.48
		c-1.88-2.03-12.01-3.25-15.22-1.73l-66.31,31.6c-5.77,2.75-8.77,19.88-4.33,23.9L745.33,363.51z"/>
	<path d="M386.67,343.12c-18.13,25.72-43.4,52.25-70.99,45.08c-8.06-2.09-20.31-12.69-24.16-21.61l-27.95-64.73
		c-4.77-11.04-2.09-27.92,4.48-35.03c8.06-8.72,25.65-15.55,35.96-10.53l65.12,31.75C387.6,297.06,401.37,322.27,386.67,343.12z
		 M335.14,366.59l33.86-33.02c4.84-4.72,0.69-21.86-5.42-24.9l-63.89-31.7c-4.13-2.05-13.44-1-15.84,2.09
		c-1.92,2.47-3.18,12.11-1.74,15.38l28.85,65.64C313.54,365.96,330.33,371.28,335.14,366.59z"/>
	<path d="M370.47,790.73l-60.19,28.75c-11.74,5.61-27.7,2.79-36.68-4.5c-10.06-8.16-14.06-24.26-9.17-36.72l24.94-63.58
		c3.93-10.03,14.01-20.59,21.9-23.07c29.09-9.18,50.97,15.74,72.6,41.19C399.81,751.55,392.73,780.1,370.47,790.73z M362.57,772.45
		c6.3-2.88,12.73-19.83,7.87-24.92c-8.67-9.08-49.28-57.27-60.82-28.23L282.71,787c-1.16,2.93,0.76,11.39,3.3,13.26
		c2.54,1.87,11.59,1.89,14.99,0.34L362.57,772.45z"/>
	<path d="M568.56,291.42c-18.53,2.82-37.59,2.49-54.55,0.56c-20.09-2.29-36.88-24.15-30.45-44.38
		c8.66-27.24,17.46-50.58,28.53-77.76c3.27-8.03,18.73-14.7,26.45-15c9.13-0.36,27.28,5.31,30.77,14.74l27.55,74.39
		C603.86,262.92,592.4,287.78,568.56,291.42z M565.93,272.01c6.23-0.02,14.49-15.84,12.17-21.93l-25.43-66.63
		c-1.47-3.86-10.06-10.3-13.9-9.39c-3.07,0.73-9.35,6.37-10.63,9.79l-24.97,66.64c-2.38,6.34,5.25,21.69,12.32,21.67L565.93,272.01z
		"/>
	<path d="M572.85,901.78c-5.07,13.76-18.92,22.49-30.11,22.89c-14.48,0.52-27.25-8.2-32.71-22.46l-24.16-63.05
		c-8.31-21.68,3.11-47.47,28.64-51.12c16.74-2.39,36.45-2.28,54.05,0.08c19.77,2.65,36.64,25.9,29.81,44.43L572.85,901.78z
		 M552.7,895.15l25.26-64.31c2.48-6.31-5.23-21.98-11.59-22.3c-17.81-0.89-30.47-1.24-47.94-1.22
		c-10.03,0.01-17.58,15.89-13.94,25.07l25.74,64.9c1.31,3.3,9.2,10.34,11.95,8.83C544.91,904.61,551.23,898.88,552.7,895.15z"/>
	<path d="M774.13,819.51l-59.16-27.05c-8.9-4.07-20.03-14.86-22.91-22.53c-10.92-29.05,17.67-52.7,42.34-72.59
		c19.16-15.44,47.35-6.42,56.33,14.67l29.29,68.77c4.25,9.97-2.96,26.6-10.06,33.1C801.41,821.72,786.13,825,774.13,819.51z
		 M785.04,802.1c2.84,1.33,13.32-1.76,13.95-4.17c0.62-2.39,1.96-10.68,0.73-13.59l-26.58-63.01c-3.85-9.12-18.9-15.16-26.27-8.01
		l-32.36,31.38c-3.19,3.09-4.88,15.12-2.59,18.51c1.83,2.73,7.33,8.06,10.55,9.57L785.04,802.1z"/>
	<path d="M900.73,569.67l-69.83,25.33c-18.59,6.74-40.21-7.71-43.5-27.07c-3.29-19.33-3.01-40.37,0.72-59.38
		c4.15-21.16,26.71-33.95,46.28-26.76l63.86,23.46c14.42,5.3,24.34,16.92,25.01,30.57C923.98,550.53,915.5,564.32,900.73,569.67z
		 M895.04,549.98c4.02-1.5,9.66-11.17,8.45-13.92c-1.2-2.74-5.85-8.13-8.69-9.24l-63.26-24.66c-8.28-3.23-23.59,1.43-23.86,12.03
		l-1.14,44.36c-0.11,4.31,5.44,12.9,8.8,14.6c3.36,1.7,12.37,2.01,16,0.65L895.04,549.98z"/>
	<path d="M254.17,598.22l-84.62-31.62c-8.06-3.01-13.69-21.95-13.48-30.11c0.22-8.16,7.83-24.14,16.17-27.32l70.62-26.89
		c20.76-7.91,45.51,2.9,49.39,27.07c2.69,16.71,2.98,36.84,1.33,54C291.59,584.24,274.23,595.49,254.17,598.22z M250.74,575.03
		c9.37,3.44,23.79-6.22,23.61-15.57l-0.87-43.46c-0.09-4.3-6.55-13.52-10.33-14.45c-3.03-0.74-10.47-0.46-13.43,0.62l-64.34,23.59
		c-3.86,1.42-10.16,10.08-9.14,13.9c1.02,3.82,7.15,10.63,10.96,12.02L250.74,575.03z"/>
	<path d="M542.1,392.61c7.64,23.21-102.15,6.12-131.78,118.65c-1.44,5.46-11.07,11.07-14.63,8.94c-3.45-2.06-5.75-10.26-4.49-15.81
		C413.39,406.66,534.85,370.57,542.1,392.61z"/>
</g>
<g>
	<path d="M754.3,540.19c0,117.77-95.48,213.25-213.25,213.25S327.8,657.96,327.8,540.19s95.48-213.25,213.25-213.25
		S754.3,422.41,754.3,540.19z M734.31,540.29c0-106.55-86.38-192.93-192.93-192.93s-192.93,86.38-192.93,192.93
		s86.38,192.93,192.93,192.93S734.31,646.85,734.31,540.29z"/>
	<path d="M734.46,381.42c-14.05-10.72-26.69-22.68-37.12-34.7c-15.64-18.03-10.16-46.55,10.67-57.18
		c38.68-19.73,81.39-48.74,105.4-22.47c7.12,7.79,10.12,24.94,4.99,36.14l-29.06,63.34C780.42,385.96,754.12,396.41,734.46,381.42z
		 M745.46,363.69c3.16,2.87,13.08,4.72,16.42,2.96c2.67-1.41,8.57-6.84,9.85-9.68l28.21-62.46c1.66-3.68-0.19-12.77-2.71-15.48
		c-1.88-2.03-12.01-3.25-15.22-1.73l-66.31,31.6c-5.77,2.75-8.77,19.88-4.33,23.9L745.46,363.69z"/>
	<path d="M386.8,343.3c-18.13,25.72-43.4,52.25-70.99,45.08c-8.06-2.09-20.31-12.69-24.16-21.61l-27.95-64.73
		c-4.77-11.04-2.09-27.92,4.48-35.03c8.06-8.72,25.65-15.55,35.96-10.53l65.12,31.75C387.73,297.24,401.5,322.45,386.8,343.3z
		 M335.27,366.77l33.86-33.02c4.84-4.72,0.69-21.86-5.42-24.9l-63.89-31.7c-4.13-2.05-13.44-1-15.84,2.09
		c-1.92,2.47-3.18,12.11-1.74,15.38l28.85,65.64C313.67,366.15,330.46,371.46,335.27,366.77z"/>
	<path d="M370.6,790.91l-60.19,28.75c-11.74,5.61-27.7,2.79-36.68-4.5c-10.06-8.16-14.06-24.26-9.17-36.72l24.94-63.58
		c3.93-10.03,14.01-20.59,21.9-23.07c29.09-9.18,50.97,15.74,72.6,41.19C399.94,751.74,392.86,780.28,370.6,790.91z M362.7,772.63
		c6.3-2.88,12.73-19.83,7.87-24.92c-8.67-9.08-49.28-57.27-60.82-28.23l-26.91,67.7c-1.16,2.93,0.76,11.39,3.3,13.26
		c2.54,1.87,11.59,1.89,14.99,0.34L362.7,772.63z"/>
	<path d="M568.69,291.6c-18.53,2.82-37.59,2.49-54.55,0.56c-20.09-2.29-36.88-24.15-30.45-44.38c8.66-27.24,17.46-50.58,28.53-77.76
		c3.27-8.03,18.73-14.7,26.45-15c9.13-0.36,27.28,5.31,30.77,14.74l27.55,74.39C603.99,263.1,592.53,287.97,568.69,291.6z
		 M566.06,272.19c6.23-0.02,14.49-15.84,12.17-21.93l-25.43-66.63c-1.47-3.86-10.06-10.3-13.9-9.39c-3.07,0.73-9.35,6.37-10.63,9.79
		l-24.97,66.64c-2.38,6.34,5.25,21.69,12.32,21.67L566.06,272.19z"/>
	<path d="M572.98,901.96c-5.07,13.76-18.92,22.49-30.11,22.89c-14.48,0.52-27.25-8.2-32.71-22.46l-24.16-63.05
		c-8.31-21.68,3.11-47.47,28.64-51.12c16.74-2.39,36.45-2.28,54.05,0.08c19.77,2.65,36.64,25.9,29.81,44.43L572.98,901.96z
		 M552.83,895.33l25.26-64.31c2.48-6.31-5.23-21.98-11.59-22.3c-17.81-0.89-30.47-1.24-47.94-1.22
		c-10.03,0.01-17.58,15.89-13.94,25.07l25.74,64.9c1.31,3.3,9.2,10.34,11.95,8.83C545.04,904.79,551.36,899.07,552.83,895.33z"/>
	<path d="M774.26,819.69l-59.16-27.05c-8.9-4.07-20.03-14.86-22.91-22.53c-10.92-29.05,17.67-52.7,42.34-72.59
		c19.16-15.44,47.35-6.42,56.33,14.67l29.29,68.77c4.25,9.97-2.96,26.6-10.06,33.1C801.54,821.9,786.26,825.18,774.26,819.69z
		 M785.17,802.28c2.84,1.33,13.32-1.76,13.95-4.17c0.62-2.39,1.96-10.68,0.73-13.59l-26.58-63.01c-3.85-9.12-18.9-15.16-26.27-8.01
		l-32.36,31.38c-3.19,3.09-4.88,15.12-2.59,18.51c1.83,2.73,7.33,8.06,10.55,9.57L785.17,802.28z"/>
	<path d="M900.86,569.86l-69.83,25.33c-18.59,6.74-40.21-7.71-43.5-27.07c-3.29-19.33-3.01-40.37,0.72-59.38
		c4.15-21.16,26.71-33.95,46.28-26.76l63.86,23.46c14.42,5.3,24.34,16.92,25.01,30.57C924.11,550.71,915.63,564.5,900.86,569.86z
		 M895.18,550.16c4.02-1.5,9.66-11.17,8.45-13.91c-1.2-2.74-5.85-8.13-8.69-9.24l-63.26-24.66c-8.28-3.23-23.59,1.43-23.86,12.03
		l-1.14,44.36c-0.11,4.31,5.44,12.9,8.8,14.6c3.36,1.7,12.37,2.01,16,0.65L895.18,550.16z"/>
	<path d="M254.3,598.4l-84.62-31.62c-8.06-3.01-13.69-21.95-13.48-30.11c0.22-8.16,7.83-24.14,16.17-27.32l70.62-26.89
		c20.76-7.91,45.51,2.9,49.39,27.07c2.69,16.71,2.98,36.84,1.33,54C291.72,584.42,274.36,595.67,254.3,598.4z M250.87,575.21
		c9.37,3.44,23.79-6.22,23.61-15.57l-0.87-43.46c-0.09-4.3-6.55-13.52-10.33-14.45c-3.03-0.74-10.47-0.46-13.43,0.62l-64.34,23.59
		c-3.86,1.42-10.16,10.08-9.14,13.9c1.02,3.82,7.15,10.63,10.96,12.02L250.87,575.21z"/>
	<path d="M542.23,392.79c7.64,23.21-102.15,6.12-131.78,118.65c-1.44,5.46-11.07,11.07-14.63,8.94c-3.45-2.06-5.75-10.26-4.49-15.81
		C413.52,406.84,534.98,370.75,542.23,392.79z"/>
</g>
</svg>
