<?xml version="1.0" encoding="iso-8859-1"?>
<!-- Generator: Adobe Illustrator 30.2.1, SVG Export Plug-In . SVG Version: 9.03 Build 0)  -->
<svg version="1.1" id="Layer_1" xmlns="http://www.w3.org/2000/svg" xmlns:xlink="http://www.w3.org/1999/xlink" x="0px" y="0px"
	 viewBox="0 0 1080 1080" style="enable-background:new 0 0 1080 1080;" xml:space="preserve">
<g>
	<path d="M615.61,896.57c-10.57,38.25-74.19,29.78-116.51,28.47c-19.16-0.59-34.89-15.97-39.35-32.91l-15.76-59.75l-51.15-21.62
		l-49.61,29.31c-10.97,6.48-36.99,9.33-47.03-0.23l-54.29-51.73c-20.41-19.45-21.61-45.08-6.86-68.56l26.51-42.19l-20.01-49.09
		l-57.22-14.77c-19.34-4.99-32.8-21.09-32.7-41.16l0.38-77.53c0.1-21.4,15.08-35.3,34.63-39.54l53.21-11.55l20.86-50.88
		l-23.79-39.75c-10.65-17.81-20.21-44.54-3.49-62.62c18.72-20.24,38.38-39.88,58.32-59.22c32.83-31.84,77.28,17.19,103.74,27.3
		l47.75-19.4l16.3-60.01c4.56-16.78,20.62-32.89,39.53-33.11l72.4-0.85c26.05-0.31,42.78,17.41,48.66,41.26l12.69,51.42l49.81,20.51
		c27.87-12.77,71.01-58.67,103.5-26.6l53.05,52.37c17.44,17.22,20.07,40.64,6.27,62.15l-29.31,45.68l20.52,51.22l51.28,11.47
		c22.68,5.07,39.34,21.42,39.56,46.4l0.59,65.57c0.22,24.34-14.6,42.59-37.65,48.14l-54.28,13.08l-19.77,47.56
		c11.61,36.52,63.56,66.46,21.12,109.88l-43.94,44.96c-46.55,47.62-87.91-20.66-111.18-16.91c-17.62,2.84-34.13,13.23-49.14,19.47
		L615.61,896.57z M615.83,816.1l69.06-29.15l60.46,35.32c9.62,5.62,20.84,5.18,28.72-2.62l49.57-49.05
		c6.74-6.67,12.25-21.02,6.83-29.73l-38.36-61.62l29.21-71.09l68.29-15.5c6.69-1.52,16.54-12.87,16.53-19.16l-0.06-75.64
		c-0.01-10.55-9.28-18.81-19.5-21.12l-65.52-14.8l-27.3-69.22c9.59-32.97,57.67-66.61,30.82-93.79l-46.81-47.38
		c-9.17-9.28-24.25-12.26-35.43-4.94L703,272.37c-14.15,9.27-25.82,7.99-41.19,1.35l-45.85-19.78
		c-12.57-22.67-9.98-87.58-40.56-87.69l-68.29-0.24c-37.45-0.13-30.42,58.28-46.01,87.8c-22.11,10.05-44.38,19.1-68.36,26.49
		c-20.71-2.64-68.07-51.96-85.19-35.13l-54.83,53.9c-6.48,6.37-8.92,22.04-4.45,29.8l35.7,61.86l-27.41,68.9
		c-28.73,17.64-84.86,6.64-84.91,38.1l-0.13,71.08c-0.02,10.42,10.45,21.96,20.44,24.28l64.39,14.96l28.77,69.9l-32.97,55.29
		c-4.37,7.33-9.9,24.28-3.47,30.57l58.84,57.59c17.24,16.87,62.61-26.96,84.84-34.63l68.55,29.59
		c13.42,25.98,11.26,88.46,42.71,88.29l69.83-0.39C605.93,904.08,601.4,845.26,615.83,816.1z"/>
	<path d="M695.79,534.41c0,86.67-70.27,156.94-156.96,156.94s-156.96-70.26-156.96-156.94s70.27-156.94,156.96-156.94
		S695.79,447.73,695.79,534.41z M674.76,534.41c0-75.04-60.84-135.88-135.89-135.88s-135.89,60.83-135.89,135.88
		s60.84,135.88,135.89,135.88S674.76,609.45,674.76,534.41z"/>
</g>
<g>
	<path d="M615.76,900.62c-10.57,38.25-74.19,29.78-116.51,28.47c-19.16-0.59-34.89-15.97-39.35-32.91l-15.76-59.75l-51.15-21.62
		l-49.61,29.31c-10.97,6.48-36.99,9.33-47.03-0.23l-54.29-51.73c-20.41-19.45-21.61-45.08-6.86-68.56l26.51-42.19l-20.01-49.09
		l-57.22-14.77c-19.34-4.99-32.8-21.09-32.7-41.16l0.38-77.53c0.1-21.4,15.08-35.3,34.63-39.54l53.21-11.55l20.86-50.88
		l-23.79-39.75c-10.65-17.81-20.21-44.54-3.49-62.62c18.72-20.24,38.38-39.88,58.32-59.22c32.83-31.84,77.28,17.19,103.74,27.3
		l47.75-19.4l16.3-60.01c4.56-16.78,20.62-32.89,39.53-33.11l72.4-0.85c26.05-0.31,42.78,17.41,48.66,41.26l12.69,51.42l49.81,20.51
		c27.87-12.77,71.01-58.67,103.5-26.6l53.05,52.37c17.44,17.22,20.07,40.64,6.27,62.15L816.28,396l20.52,51.22l51.28,11.47
		c22.68,5.07,39.34,21.42,39.56,46.4l0.59,65.57c0.22,24.34-14.6,42.59-37.65,48.14l-54.28,13.08l-19.77,47.56
		c11.61,36.52,63.56,66.46,21.12,109.88l-43.94,44.96c-46.55,47.62-87.91-20.66-111.18-16.91c-17.62,2.84-34.13,13.23-49.14,19.47
		L615.76,900.62z M615.98,820.15l69.06-29.15l60.46,35.32c9.62,5.62,20.84,5.18,28.72-2.62l49.57-49.05
		c6.74-6.67,12.25-21.02,6.83-29.73l-38.36-61.62l29.21-71.09l68.29-15.5c6.69-1.52,16.54-12.87,16.53-19.16l-0.06-75.64
		c-0.01-10.55-9.28-18.81-19.5-21.12l-65.52-14.8l-27.3-69.22c9.59-32.97,57.67-66.61,30.82-93.79l-46.81-47.38
		c-9.17-9.28-24.25-12.26-35.43-4.94l-39.34,25.76c-14.15,9.27-25.82,7.99-41.19,1.35l-45.85-19.78
		c-12.57-22.67-9.98-87.58-40.56-87.69l-68.29-0.24c-37.45-0.13-30.42,58.28-46.01,87.8c-22.11,10.05-44.38,19.1-68.36,26.49
		c-20.71-2.64-68.07-51.96-85.19-35.13l-54.83,53.9c-6.48,6.37-8.92,22.04-4.45,29.8l35.7,61.86l-27.41,68.9
		c-28.73,17.64-84.86,6.64-84.91,38.1l-0.13,71.08c-0.02,10.42,10.45,21.96,20.44,24.28l64.39,14.96l28.77,69.9l-32.97,55.29
		c-4.37,7.33-9.9,24.28-3.47,30.57l58.84,57.59c17.24,16.87,62.61-26.96,84.84-34.63l68.55,29.59
		c13.42,25.98,11.26,88.46,42.71,88.29l69.83-0.39C606.08,908.14,601.54,849.31,615.98,820.15z"/>
	<path d="M695.94,538.46c0,86.67-70.27,156.94-156.96,156.94s-156.96-70.26-156.96-156.94s70.27-156.94,156.96-156.94
		S695.94,451.79,695.94,538.46z M674.9,538.46c0-75.04-60.84-135.88-135.89-135.88s-135.89,60.83-135.89,135.88
		S463.95,674.34,539,674.34S674.9,613.51,674.9,538.46z"/>
</g>
</svg>
