<?xml version="1.0" encoding="iso-8859-1"?>
<!-- Generator: Adobe Illustrator 30.2.1, SVG Export Plug-In . SVG Version: 9.03 Build 0)  -->
<svg version="1.1" id="Layer_1" xmlns="http://www.w3.org/2000/svg" xmlns:xlink="http://www.w3.org/1999/xlink" x="0px" y="0px"
	 viewBox="0 0 1080 1080" style="enable-background:new 0 0 1080 1080;" xml:space="preserve">
<g>
	<path d="M454.02,594.43c34.39,71.95,99.59,119.89,165.18,136.36c86.36,21.7,166.59-2.94,229.85-56.03
		c3.21-2.69,14.88-3.37,18.22-0.94c4,2.92,5.14,13.52,2.35,19.24c-48.15,98.63-139.17,164.98-248.26,181.04
		c-138.66,20.41-274.9-47.57-342.23-164.74c-71.71-124.78-58.14-281,34.96-388.8c80.83-93.58,198.28-135.39,319.6-110.44
		c4.25,0.87,12.43,9.59,11.4,13.75c-1.03,4.16-9.27,9.63-14.34,10.47c-77.49,12.81-139.8,64.99-171.79,124.64
		C417.47,436.31,417.73,518.49,454.02,594.43z M823.8,723.37c-153.59,83.32-330.73,22.71-396.41-132.27
		c-60.03-141.67,3.39-298.6,142.99-364.65c-145.74-5.01-270.47,102.42-304.17,233.44c-36.25,140.95,27.46,285.76,153.31,355.45
		C556.16,891,734.44,857.52,823.8,723.37z"/>
	<path d="M793.89,493.58l-41.96-23.57l-40.32,21.13c-2.64,1.38-10.03,3.15-12.72,3.6c-3.58,0.6-7.87-9.81-7.24-14.06l7.53-50.48
		l-32.7-28.51c-2.87-2.5-5.91-10.54-5.59-13.98c0.31-3.43,8.32-9.36,12.16-9.81l45.88-5.4l18.38-39.22
		c1.57-3.35,7.57-8.77,10.67-9.91c3.87-1.43,12.64,4.6,14.54,8.41l20.51,41.03l42.14,6.04c4.25,0.61,13.74,5.2,15,8.96
		c1.26,3.76-2.66,12.05-6.02,15.04l-31.64,28.22l6.48,48.11c0.39,2.86,0.17,9.02-0.07,11.47
		C808.59,493.89,796.94,495.3,793.89,493.58z M782.05,460.06l-3.2-35.31l22.93-25.37l-36.18-6.33l-15.74-28.74l-13.87,28.67
		l-36.58,7.12l23.13,25.23l-2.12,34.84c10.37-5.62,23.37-14.93,30.92-14.44C758.88,446.22,769.85,453.89,782.05,460.06z"/>
	<path d="M436.94,761.63c3.37,1.85,7.26,12.39,6.12,16.04c-10.53,33.43-137.06-86.1-118.56-121.21
		c-10.62-1.18-18.55-15.65-22.36-27.65c-1.6-5.04,2.14-16.02,6.24-18.48c17.48-10.47,13.05,23.39,36.53,59.16
		C369.53,707.02,394.41,738.24,436.94,761.63z"/>
</g>
<g>
	<path d="M441.71,594.07c34.39,71.95,99.59,119.89,165.18,136.36c86.36,21.7,166.59-2.94,229.85-56.03
		c3.21-2.69,14.88-3.37,18.22-0.94c4,2.92,5.14,13.52,2.35,19.24c-48.15,98.63-139.17,164.98-248.26,181.04
		C470.39,894.15,334.15,826.17,266.81,709c-71.71-124.78-58.14-281,34.96-388.8c80.83-93.58,198.28-135.39,319.6-110.44
		c4.25,0.87,12.43,9.59,11.4,13.75c-1.03,4.16-9.27,9.63-14.34,10.47c-77.49,12.81-139.8,64.99-171.79,124.64
		C405.15,435.95,405.41,518.13,441.71,594.07z M811.48,723.01c-153.59,83.32-330.73,22.71-396.41-132.27
		c-60.03-141.67,3.39-298.6,142.99-364.65c-145.74-5.01-270.47,102.42-304.17,233.44c-36.25,140.95,27.46,285.76,153.31,355.45
		C543.85,890.65,722.12,857.17,811.48,723.01z"/>
	<path d="M781.57,493.23l-41.96-23.57l-40.32,21.13c-2.64,1.38-10.03,3.15-12.72,3.6c-3.58,0.6-7.87-9.81-7.24-14.06l7.53-50.48
		l-32.7-28.51c-2.87-2.5-5.91-10.54-5.59-13.98c0.31-3.43,8.32-9.36,12.16-9.81l45.88-5.4l18.38-39.22
		c1.57-3.35,7.57-8.77,10.67-9.91c3.87-1.43,12.64,4.6,14.54,8.41l20.51,41.03l42.14,6.04c4.25,0.61,13.74,5.2,15,8.96
		c1.26,3.76-2.66,12.05-6.02,15.04l-31.64,28.22l6.48,48.11c0.39,2.86,0.17,9.02-0.07,11.47
		C796.28,493.54,784.63,494.95,781.57,493.23z M769.73,459.7l-3.2-35.31l22.93-25.37l-36.18-6.33l-15.74-28.74l-13.87,28.67
		l-36.58,7.12l23.13,25.23l-2.12,34.84c10.37-5.62,23.37-14.93,30.92-14.44C746.57,445.86,757.54,453.53,769.73,459.7z"/>
	<path d="M424.62,761.28c3.37,1.85,7.26,12.39,6.12,16.04c-10.53,33.43-137.06-86.1-118.56-121.21
		c-10.62-1.18-18.55-15.65-22.36-27.65c-1.6-5.04,2.14-16.02,6.24-18.48c17.48-10.47,13.05,23.39,36.53,59.16
		C357.22,706.67,382.1,737.89,424.62,761.28z"/>
</g>
</svg>
