<?xml version="1.0" encoding="iso-8859-1"?>
<!-- Generator: Adobe Illustrator 30.2.1, SVG Export Plug-In . SVG Version: 9.03 Build 0)  -->
<svg version="1.1" id="Layer_1" xmlns="http://www.w3.org/2000/svg" xmlns:xlink="http://www.w3.org/1999/xlink" x="0px" y="0px"
	 viewBox="0 0 1080 1080" style="enable-background:new 0 0 1080 1080;" xml:space="preserve">
<g>
	<path d="M727.6,672.15c0.04,36.87-29.62,62.84-63.93,64.37c-33.08,1.48-68.02-23.08-68.03-61.09l-0.1-272.39
		c-0.01-36.74,32.46-60.77,65.18-61.43c32.18-0.65,66.58,23.84,66.61,60.14L727.6,672.15z M705.57,667.35l0.19-261.03
		c0.02-25.56-23.34-42.71-45-42.31c-24.89,0.45-43.48,19.64-43.4,45.76l0.84,265.76c0.08,25.55,27.64,40.71,48.15,37.75
		C688.73,710.04,705.55,693.66,705.57,667.35z"/>
	<path d="M485.85,663.61c0.25,40.51-23.7,69.57-61.3,73.16c-34.09,3.26-72.36-21.58-72.32-61.25l0.23-272.48
		c0.03-35.75,30.83-59.66,62.55-61.5c32.46-1.89,68.96,20.77,69.19,57.97L485.85,663.61z M462.6,676.54l-0.31-272.97
		c-0.03-24.1-23.79-39.71-44.27-39.49c-19.79,0.22-43.52,16.26-43.52,40.17l0.02,269.99c0,23.64,23.5,39.46,43.14,39.5
		C439.3,713.79,457.89,700.71,462.6,676.54z"/>
</g>
<g>
	<path d="M727.68,672.31c0.04,36.87-29.62,62.84-63.93,64.37c-33.08,1.48-68.02-23.08-68.03-61.09l-0.1-272.39
		c-0.01-36.74,32.46-60.77,65.18-61.43c32.18-0.65,66.58,23.84,66.61,60.14L727.68,672.31z M705.65,667.51l0.19-261.03
		c0.02-25.56-23.34-42.71-45-42.31c-24.89,0.45-43.48,19.64-43.4,45.76l0.84,265.76c0.08,25.55,27.64,40.71,48.15,37.75
		C688.81,710.21,705.63,693.82,705.65,667.51z"/>
	<path d="M485.94,663.78c0.25,40.51-23.7,69.57-61.3,73.16c-34.09,3.26-72.36-21.58-72.32-61.25l0.23-272.48
		c0.03-35.75,30.83-59.66,62.55-61.5c32.46-1.89,68.96,20.77,69.19,57.97L485.94,663.78z M462.68,676.7l-0.31-272.97
		c-0.03-24.1-23.79-39.71-44.27-39.49c-19.79,0.22-43.52,16.26-43.52,40.17l0.02,269.99c0,23.64,23.5,39.46,43.14,39.5
		C439.38,713.95,457.97,700.87,462.68,676.7z"/>
</g>
</svg>
