<?xml version="1.0" encoding="iso-8859-1"?>
<!-- Generator: Adobe Illustrator 30.2.1, SVG Export Plug-In . SVG Version: 9.03 Build 0)  -->
<svg version="1.1" id="Layer_1" xmlns="http://www.w3.org/2000/svg" xmlns:xlink="http://www.w3.org/1999/xlink" x="0px" y="0px"
	 viewBox="0 0 1080 1080" style="enable-background:new 0 0 1080 1080;" xml:space="preserve">
<g>
	<path d="M667.93,812.74c-43.01,38.86-110.14,19.11-140.14-21.21c-31.89-42.87-26.11-98.51,11.07-142.99l-282.99-2.18
		c-57.87-0.45-95.17-58.05-94.88-109c0.31-53.84,41.08-106.09,99.48-106.52l281.59-2.05c-44.74-46.52-45.99-107.75-9.25-149.48
		c36.89-41.9,104.21-51.25,146.13-9.53l205.87,204.91c33.82,33.66,34.33,91.6,0.32,125.91
		C813.66,672.71,745.23,742.89,667.93,812.74z M556.38,692.19c-23.21,28.77-10.54,69.47,16.04,89.44
		c28.75,21.6,62.76,13.71,89.32-12.6l191.08-189.25c23.14-22.92,25.36-57.82,1.65-81.71L662.21,304.34
		c-28.62-28.84-67.43-31.18-95.1-6.11c-26.31,23.83-31.12,66.67-4.07,94.5l41.38,42.58c3.51,3.61,6.14,16.41,4.93,21.05
		c-1.22,4.64-12.47,11.38-18.57,11.38l-317.86,0.06c-42.89,0.01-73.4,31.15-74,69.58c-0.63,40.41,31.49,72.66,73.35,72.64
		l313.74-0.09c8.49,0,21.86,6.99,23.15,13.6C613.11,643.75,585.25,656.39,556.38,692.19z"/>
</g>
<g>
	<path d="M669.74,813.55c-43.01,38.86-110.14,19.11-140.14-21.21c-31.89-42.87-26.11-98.51,11.07-142.99l-282.99-2.18
		c-57.87-0.45-95.17-58.05-94.88-109c0.31-53.84,41.08-106.09,99.48-106.52l281.59-2.05c-44.74-46.52-45.99-107.75-9.25-149.48
		c36.89-41.9,104.21-51.25,146.13-9.53L886.62,475.5c33.82,33.66,34.33,91.6,0.32,125.91C815.46,673.52,747.04,743.7,669.74,813.55z
		 M558.18,693c-23.21,28.77-10.54,69.47,16.04,89.44c28.75,21.6,62.76,13.71,89.32-12.6l191.08-189.25
		c23.14-22.92,25.36-57.82,1.65-81.71L664.02,305.15c-28.62-28.84-67.43-31.18-95.1-6.11c-26.31,23.83-31.12,66.67-4.07,94.5
		l41.38,42.58c3.51,3.61,6.14,16.41,4.93,21.05c-1.22,4.64-12.47,11.38-18.57,11.38l-317.86,0.06c-42.89,0.01-73.4,31.15-74,69.58
		c-0.63,40.41,31.49,72.66,73.35,72.64l313.74-0.09c8.49,0,21.86,6.99,23.15,13.6C614.92,644.56,587.06,657.2,558.18,693z"/>
</g>
</svg>
