<?xml version="1.0" encoding="iso-8859-1"?>
<!-- Generator: Adobe Illustrator 30.2.1, SVG Export Plug-In . SVG Version: 9.03 Build 0)  -->
<svg version="1.1" id="Layer_1" xmlns="http://www.w3.org/2000/svg" xmlns:xlink="http://www.w3.org/1999/xlink" x="0px" y="0px"
	 viewBox="0 0 1080 1080" style="enable-background:new 0 0 1080 1080;" xml:space="preserve">
<path d="M746.43,867.24c-114.52,3.53-322.32,6.81-422.48-28.2c-31.43-10.99-49.57-37.02-46.76-70.26
	c-27.84,3.34-88.38-20.54-72.23-39.29c10.94-12.7,27.25-2.03,28.68-6.81l4.3-14.38l4.56-15.33c1.04-3.48,13.07-4.96,16.72-4.16
	l41.97,9.13l81.51-88.81l16.71-134.69c2.89-23.29,16.13-41.26,38.11-48.63l42.31-14.17c7.45-2.5,18.67-13.58,20.44-20.81
	c2.25-9.13-1.48-21.61-7.1-30.2c-22.57-34.5-27.61-78.23-12.16-116.59c8.75-21.73,30.94-33.66,49.91-35.79
	c23.48-2.64,49.33,4.61,61.78,26.87c20.55,36.76,18.57,85.04-4.67,119.88c-7.72,11.57-12.49,22.74-9.51,34.58
	c6.49,25.83,38.43,24.62,76.57,43.34c40.6,19.93,24.19,126.14,45.58,174.63c13.83,31.35,51.32,56.37,71.39,86.23
	c20.64,7.78,39.74-11.8,57.99-4.16c4.42,1.85,8.84,11.04,10.8,17.79c7.28,25.03,19.76,6.21,32.95,21.62
	c17.19,20.08-47.29,44.94-74.84,38.8c6.69,33.82-13.18,58.82-44.08,70.23C760.03,845.4,759.18,866.85,746.43,867.24z M564.89,359.71
	c22.88-23.95,26.9-55.04,24.21-86.01c-2.55-29.28-21.44-50.65-49.67-50.43c-25.64,0.21-45.53,19.46-48.99,46.91
	c-4.05,32.08-0.04,64.99,22.02,88.35C527.59,374.56,548.4,376.98,564.89,359.71z M534.02,779.29
	c60.96-21.27,103.07-39.73,163.75-39.68c3.74,0,10.27,12.86,6.99,13.56c-2.46,0.53-6.68,1.22-11.65,1.63
	c-45.99,3.79-88.04,14.99-130.71,32.69c51.91,19.79,99.35,34.15,152.62,41.68c19.51,2.76,42.41-8.81,57.78-20.06
	c10.23-7.49,14.02-25.87,11.21-37.59c-10.86-45.23-133.11-36.71-146.58-54.6c-23.49-31.21-34.48-70.32-31.08-109.63
	c0.64-7.4,19.59-117.47,27.07-73.65l13.8,80.83c3.08,18.05,10.33,36.56,25.31,47.64l105.26,77.93
	c23.44,17.35,53.98,15.13,75.69-0.35c-17.08-2.22-25.37-7.63-26.86-23.1c-0.35-3.64-2.78-13.81-5.95-12.91l-12.57,3.59
	c-9.98,2.84-29.13,7.29-40.97,4.58c-23.55-32.83-63.7-59.79-80.42-95.25c-19.19-40.7-11.76-90.37-21-132.39
	c-13.33-60.6-38.05-33.36-89.13-66.78c-7.8-5.1-12.54-25.49-14.47-32.23c-15.64,1.62-30.27,1.57-46.31-1.22
	c-2.84,51.4-42.98,39.97-86.7,65.01c-25.1,14.38-16.11,132.1-36.31,168.44c-20.14,36.23-59.34,62.93-85.03,96.47
	c-14.48,3.77-52.35-14.37-53.39-8.63l-2.11,11.53c-1.08,5.91-0.79,17.89-5.42,18.7l-21.4,3.74c23.99,15.57,53.45,17.36,78.02-0.69
	l100.07-73.5c15.18-11.15,23.65-28.67,26.76-47.19l13.95-83.09c0.4-2.37,2.45-6.01,3.47-7.79c1.01-1.77,9.3,4.68,9.94,7.11
	c18.43,69.61,26.3,104.95-6.81,173.91c-5.55,11.55-21.04,17.57-33.31,19.06c-30.66,3.73-121.06,11.69-124.5,48.38
	c-4.28,45.63,68.4,60.64,106.22,65.15c113.18,13.52,225.63,15.2,337.81,8.99c-103.57-17.7-176.81-43.68-273.77-77.53
	c-25.05-8.74-61.01-15.3-84.8-17.49c-3.65-0.34-2.69-13.94,0.68-14.2C422.06,736.99,490.4,764.6,534.02,779.29z M363.65,716.68
	l67-7.32c24.95-37.88,32.98-81.54,22.09-124.4l-16.99,72.2L363.65,716.68z M714.62,715.57c-23.71-21.76-49.81-35.24-68.47-60.25
	c-13.61-18.24-11.42-45.22-20.89-65.7c-11.96,43.14,2.67,83.18,23.37,119.3L714.62,715.57z"/>
<path d="M746.95,868.71c-114.52,3.53-322.32,6.81-422.48-28.2c-31.43-10.99-49.57-37.02-46.76-70.26
	c-27.84,3.34-88.38-20.54-72.23-39.29c10.94-12.7,27.25-2.03,28.68-6.81l4.3-14.38l4.56-15.33c1.04-3.48,13.07-4.96,16.72-4.16
	l41.97,9.13l81.51-88.81l16.71-134.69c2.89-23.29,16.13-41.26,38.11-48.63l42.31-14.17c7.45-2.5,18.67-13.58,20.44-20.81
	c2.25-9.13-1.48-21.61-7.1-30.2c-22.57-34.5-27.61-78.23-12.16-116.59c8.75-21.73,30.94-33.66,49.91-35.79
	c23.48-2.64,49.33,4.61,61.78,26.87c20.55,36.76,18.57,85.04-4.67,119.88c-7.72,11.57-12.49,22.74-9.51,34.58
	c6.49,25.83,38.43,24.62,76.57,43.34c40.6,19.93,24.19,126.14,45.58,174.63c13.83,31.35,51.32,56.37,71.39,86.23
	c20.63,7.78,39.74-11.8,57.99-4.16c4.42,1.85,8.84,11.04,10.8,17.79c7.28,25.03,19.76,6.21,32.95,21.62
	c17.19,20.08-47.29,44.94-74.84,38.8c6.69,33.82-13.18,58.82-44.08,70.23C760.55,846.87,759.7,868.32,746.95,868.71z M565.41,361.18
	c22.88-23.95,26.9-55.04,24.21-86.01c-2.55-29.28-21.44-50.65-49.67-50.43c-25.64,0.21-45.53,19.46-49,46.91
	c-4.05,32.08-0.04,64.99,22.02,88.35C528.11,376.02,548.91,378.44,565.41,361.18z M534.53,780.76
	c60.96-21.27,103.07-39.73,163.75-39.68c3.74,0,10.27,12.86,6.99,13.56c-2.46,0.53-6.68,1.22-11.65,1.63
	c-45.99,3.79-88.04,14.99-130.71,32.69c51.91,19.79,99.35,34.15,152.62,41.68c19.51,2.76,42.41-8.81,57.78-20.06
	c10.23-7.49,14.02-25.87,11.21-37.59c-10.86-45.23-133.11-36.71-146.58-54.6c-23.49-31.21-34.48-70.32-31.08-109.63
	c0.64-7.4,19.59-117.47,27.07-73.65l13.8,80.83c3.08,18.05,10.33,36.56,25.31,47.64L778.3,741.5c23.44,17.35,53.98,15.13,75.69-0.35
	c-17.08-2.22-25.37-7.63-26.86-23.1c-0.35-3.64-2.78-13.81-5.95-12.91l-12.57,3.59c-9.98,2.84-29.13,7.29-40.97,4.58
	c-23.55-32.83-63.7-59.79-80.42-95.25c-19.19-40.7-11.76-90.37-21-132.39c-13.33-60.6-38.05-33.36-89.13-66.78
	c-7.8-5.1-12.54-25.49-14.47-32.23c-15.64,1.62-30.27,1.57-46.31-1.22c-2.84,51.4-42.98,39.97-86.7,65.01
	c-25.1,14.38-16.11,132.1-36.31,168.44c-20.14,36.23-59.34,62.93-85.03,96.47c-14.48,3.77-52.35-14.37-53.39-8.63l-2.11,11.53
	c-1.08,5.91-0.79,17.89-5.42,18.7l-21.4,3.74c23.99,15.57,53.45,17.36,78.02-0.69l100.07-73.5c15.18-11.15,23.65-28.67,26.76-47.19
	l13.95-83.09c0.4-2.37,2.45-6.01,3.47-7.79c1-1.77,9.3,4.68,9.94,7.11c18.43,69.61,26.3,104.95-6.81,173.91
	c-5.55,11.55-21.04,17.57-33.31,19.06c-30.66,3.73-121.06,11.69-124.5,48.38c-4.28,45.63,68.4,60.64,106.22,65.15
	c113.18,13.52,225.63,15.2,337.81,8.99c-103.57-17.7-176.81-43.68-273.77-77.53c-25.05-8.74-61.01-15.3-84.8-17.49
	c-3.65-0.34-2.69-13.94,0.68-14.2C422.58,738.46,490.92,766.07,534.53,780.76z M364.17,718.15l67-7.32
	c24.95-37.88,32.98-81.54,22.09-124.4l-16.99,72.2L364.17,718.15z M715.14,717.04c-23.71-21.76-49.81-35.24-68.47-60.25
	c-13.61-18.24-11.42-45.22-20.89-65.7c-11.96,43.14,2.67,83.18,23.37,119.3L715.14,717.04z"/>
</svg>
