<?xml version="1.0" encoding="iso-8859-1"?>
<!-- Generator: Adobe Illustrator 30.2.1, SVG Export Plug-In . SVG Version: 9.03 Build 0)  -->
<svg version="1.1" id="Layer_1" xmlns="http://www.w3.org/2000/svg" xmlns:xlink="http://www.w3.org/1999/xlink" x="0px" y="0px"
	 viewBox="0 0 1080 1080" style="enable-background:new 0 0 1080 1080;" xml:space="preserve">
<g>
	<path d="M549.01,885.56c-0.17,3.59-5.07,11.22-7.62,12.43c-3.4,1.61-12.37-7.58-12.47-11.6l-1.08-44.58
		c-159.35-9.9-285.4-131.75-289.01-292.71l-44.29-1.06c-4.36-0.1-13.4-4.81-15-8.32c-2.01-4.4,9.3-12.42,14.54-12.64l44.51-1.81
		c7.26-158.97,130.2-284.25,288.87-290.04l2.26-48.55c0.25-5.43,18.53-5.7,18.8-0.37l2.37,48.16
		c160.09,5.43,285.17,132.83,292.38,291.89l46.47,0.46c3.28,0.03,10.65,5.03,11.47,8.04c1.09,4-6.74,12.93-11.47,13.08l-46.98,1.46
		c-6.36,160.11-131.77,285.64-291.69,291.93L549.01,885.56z M528.92,325.83L527.96,256c-147.1,5.95-262.91,124.81-267.34,270.28
		l70.15-0.46C340.07,416.8,418.54,332.81,528.92,325.83z M750.38,526.12l71.43-0.57c-7.03-147.38-124.01-263.75-271.56-270.07
		l0.84,70.2C661.06,333.46,742.53,416.55,750.38,526.12z M728.79,549.18l-45.44-1.16c-5.34-0.14-15.76-8.26-13.83-12.44
		c1.55-3.37,9.52-8.18,13.36-8.4l45.92-2.69c-7.99-98.81-82.96-168.91-177.85-178.01l-1.34,47.42c-0.12,4.17-9.21,12.14-12.09,9.68
		c-2.18-1.86-7.91-8.36-8.01-11.19l-1.65-45.7c-93.92,8.41-166.08,79.4-175.3,177.02l42.77,3.49c5.51,0.45,17.3,7.79,15.16,12.25
		c-1.71,3.57-10.1,7.95-14.36,8.22l-43.77,2.71c8.19,98.8,82.55,167.39,175.46,177.83l2.11-49.18c0.14-3.19,8.54-9.08,11.71-9.54
		c2.1-0.31,7.24,5.81,7.4,7.93l3.74,50C650.04,719.16,722.91,643.74,728.79,549.18z M527.69,749.3
		c-112.16-10.07-188.16-93.47-196.44-200.59l-70.75-0.37c-0.29,145.4,124.21,265.64,268.12,271.7L527.69,749.3z M552.32,820.37
		C702.1,812.1,815.5,695.28,821.71,548.7l-71.24-0.09c-9.21,110.47-89.42,193.05-200.5,200.15L552.32,820.37z"/>
	<path d="M628.44,537.06c0,48.89-39.63,88.53-88.53,88.53s-88.53-39.63-88.53-88.53s39.63-88.53,88.53-88.53
		S628.44,488.17,628.44,537.06z M607.01,536.98c0-37.05-30.03-67.08-67.08-67.08c-37.05,0-67.08,30.03-67.08,67.08
		s30.03,67.08,67.08,67.08C576.97,604.06,607.01,574.03,607.01,536.98z"/>
</g>
<g>
	<path d="M548.7,885.25c-0.17,3.59-5.07,11.22-7.62,12.43c-3.4,1.61-12.37-7.58-12.47-11.6l-1.08-44.58
		c-159.35-9.9-285.4-131.75-289.01-292.71l-44.29-1.06c-4.36-0.1-13.4-4.81-15-8.32c-2.01-4.4,9.3-12.42,14.54-12.64l44.51-1.81
		c7.26-158.97,130.2-284.25,288.87-290.04l2.26-48.55c0.25-5.43,18.53-5.7,18.8-0.37l2.37,48.16
		c160.09,5.43,285.17,132.83,292.38,291.89l46.47,0.46c3.28,0.03,10.65,5.03,11.47,8.04c1.09,4-6.74,12.93-11.47,13.08l-46.98,1.46
		c-6.36,160.11-131.77,285.64-291.69,291.93L548.7,885.25z M528.61,325.52l-0.97-69.83c-147.1,5.95-262.91,124.81-267.34,270.28
		l70.15-0.46C339.76,416.48,418.23,332.49,528.61,325.52z M750.07,525.8l71.43-0.57c-7.03-147.38-124.01-263.75-271.56-270.07
		l0.84,70.2C660.75,333.15,742.22,416.24,750.07,525.8z M728.48,548.86l-45.44-1.16c-5.34-0.14-15.76-8.26-13.83-12.44
		c1.55-3.37,9.52-8.18,13.36-8.4l45.92-2.69c-7.99-98.81-82.96-168.91-177.85-178.01l-1.34,47.42c-0.12,4.17-9.21,12.14-12.09,9.68
		c-2.18-1.86-7.91-8.36-8.01-11.19l-1.65-45.7c-93.92,8.41-166.08,79.4-175.3,177.02l42.77,3.49c5.51,0.45,17.3,7.79,15.16,12.25
		c-1.71,3.57-10.1,7.95-14.36,8.22l-43.77,2.71c8.19,98.8,82.55,167.39,175.46,177.83l2.11-49.18c0.14-3.19,8.54-9.08,11.71-9.54
		c2.1-0.31,7.24,5.81,7.4,7.93l3.74,50C649.73,718.84,722.6,643.43,728.48,548.86z M527.38,748.99
		c-112.16-10.07-188.16-93.47-196.44-200.59l-70.75-0.37c-0.29,145.4,124.21,265.64,268.12,271.7L527.38,748.99z M552.01,820.06
		c149.78-8.27,263.18-125.09,269.39-271.68l-71.24-0.09c-9.21,110.47-89.42,193.05-200.5,200.15L552.01,820.06z"/>
	<path d="M628.13,536.75c0,48.89-39.63,88.53-88.53,88.53s-88.53-39.63-88.53-88.53s39.63-88.53,88.53-88.53
		S628.13,487.86,628.13,536.75z M606.7,536.66c0-37.05-30.03-67.08-67.08-67.08s-67.08,30.03-67.08,67.08
		c0,37.05,30.03,67.08,67.08,67.08S606.7,573.71,606.7,536.66z"/>
</g>
</svg>
