<?xml version="1.0" encoding="iso-8859-1"?>
<!-- Generator: Adobe Illustrator 30.2.1, SVG Export Plug-In . SVG Version: 9.03 Build 0)  -->
<svg version="1.1" id="Layer_1" xmlns="http://www.w3.org/2000/svg" xmlns:xlink="http://www.w3.org/1999/xlink" x="0px" y="0px"
	 viewBox="0 0 1080 1080" style="enable-background:new 0 0 1080 1080;" xml:space="preserve">
<g>
	<path d="M546.02,226.65c150.01,7.42,276.34,114.45,308.03,261.25c40.6,188.09-86.89,364.23-272.54,393.63
		c-183.82,29.11-355.79-104.67-375.83-288.52c-20.5-188.02,119.16-355.91,312.43-365.9l1.92-34.26l-44.5-1.86
		c-3.3-0.14-10.19-5.37-12.33-7.71c-2.14-2.34,5.32-13.64,9.91-13.66l111.5-0.57c4.09-0.02,12.62,5.78,14.18,9.2
		c1.94,4.24-8.35,13.51-13.64,13.49l-41.73-0.08L546.02,226.65z M838.06,556.16c0-168.7-136.76-305.46-305.46-305.46
		S227.14,387.46,227.14,556.16S363.9,861.62,532.6,861.62S838.06,724.86,838.06,556.16z"/>
	<path d="M789.02,556.4c0,141.8-114.95,256.75-256.75,256.75S275.51,698.2,275.51,556.4s114.95-256.75,256.75-256.75
		S789.02,414.6,789.02,556.4z M765.48,556.31c0-128.74-104.36-233.1-233.1-233.1s-233.1,104.36-233.1,233.1
		s104.36,233.1,233.1,233.1S765.48,685.05,765.48,556.31z"/>
	<path d="M610.78,605.94c3.81,3.37,7.44,14.72,5.42,18.95c-2.03,4.25-15.47,3.23-19.65-0.33l-75.36-64.07l0.52-159.87
		c0.02-5.16,6.14-12.65,9-14.37c3.8-2.29,14.43,8.11,14.43,12.64l0.03,149.09L610.78,605.94z"/>
</g>
<g>
	<path d="M546.11,226.82c150.01,7.42,276.34,114.45,308.03,261.25c40.6,188.09-86.89,364.23-272.54,393.63
		C397.78,910.81,225.8,777.03,205.76,593.18c-20.5-188.02,119.16-355.91,312.43-365.9l1.92-34.26l-44.5-1.86
		c-3.3-0.14-10.19-5.37-12.33-7.71c-2.14-2.34,5.32-13.64,9.91-13.66l111.5-0.57c4.09-0.02,12.62,5.78,14.18,9.2
		c1.94,4.24-8.35,13.51-13.64,13.49l-41.73-0.08L546.11,226.82z M838.14,556.33c0-168.7-136.76-305.46-305.46-305.46
		S227.23,387.63,227.23,556.33s136.76,305.46,305.46,305.46S838.14,725.03,838.14,556.33z"/>
	<path d="M789.1,556.57c0,141.8-114.95,256.75-256.75,256.75S275.6,698.37,275.6,556.57s114.95-256.75,256.75-256.75
		S789.1,414.77,789.1,556.57z M765.56,556.48c0-128.74-104.36-233.1-233.1-233.1s-233.1,104.36-233.1,233.1
		s104.36,233.1,233.1,233.1S765.56,685.22,765.56,556.48z"/>
	<path d="M610.86,606.11c3.81,3.37,7.44,14.72,5.42,18.95c-2.03,4.25-15.47,3.23-19.65-0.33l-75.36-64.07l0.52-159.87
		c0.02-5.16,6.14-12.65,9-14.37c3.8-2.29,14.43,8.11,14.43,12.64l0.03,149.09L610.86,606.11z"/>
</g>
</svg>
