<?xml version="1.0" encoding="iso-8859-1"?>
<!-- Generator: Adobe Illustrator 30.2.1, SVG Export Plug-In . SVG Version: 9.03 Build 0)  -->
<svg version="1.1" id="Layer_1" xmlns="http://www.w3.org/2000/svg" xmlns:xlink="http://www.w3.org/1999/xlink" x="0px" y="0px"
	 viewBox="0 0 1080 1080" style="enable-background:new 0 0 1080 1080;" xml:space="preserve">
<g>
	<path d="M796.69,842.41l-512.39,0.17c-46.59,0.02-80.78-40.3-80.07-83.68l0.68-42.04l135-0.72l-0.18-355.51l-133.85-0.19
		l-1.73-32.94c-2.85-54.3,35.06-90.43,87.54-90.42l499.14,0.11c43.94,0.01,80.41,26.67,85.77,71.83c1.88,15.82,1.05,32.62,0.13,50.8
		l-134.66,1.14l0.67,355.39l133.3,0.65l1.15,38.12C878.52,798.85,846.28,842.39,796.69,842.41z M340.47,342.98
		c4.31-45.92-9.95-80.63-48.03-87.92c-24.33-4.66-47.06,7.17-60.27,28.05c-10.84,17.15-11.54,37.82-9.05,59.93L340.47,342.98z
		 M752.42,825.54c-18.11-18.97-27.56-37.59-27.56-63.89l0.06-445.91c0-23.83,10.09-41.86,24.53-60.84l-416.3-0.11
		c9.04,15.85,23.67,30.95,23.7,49.59l0.55,457.3c0.03,25.56-8.79,44.55-27.06,63.97L752.42,825.54z M859,342.66
		c3.33-24.04,1.07-45.34-12.65-63.42c-13.87-18.28-36.08-28.69-59.53-22.94c-39.25,9.63-49.6,49.74-43.26,87.19L859,342.66z
		 M338.94,771.76l1.21-37.43l-115.71-0.62c-12.91,39.64,9.75,85.13,54.33,90.18C307.69,827.17,337.95,802.48,338.94,771.76z
		 M846.04,799.69c15.09-18.55,15.92-44.56,11.84-65.61l-115.61,0.42l1.23,38.3c0.79,24.65,21.07,43.22,42.32,49.53
		C806.6,828.51,830.35,818.97,846.04,799.69z"/>
	<path d="M662.59,423.19c8.42,11.68-35.93,38.48-75.69,13.61c-36.86-23.05-58.3,29.17-103.37,1.15
		c-27.76-17.26-45.64,5.71-63.6,1.55c-18.49-4.28,30-42.31,72.52-15.12c32.68,20.9,53.86-29.34,104.69-0.95
		C634.53,444.32,652.64,409.39,662.59,423.19z"/>
	<path d="M661.45,590.73c11.61,9.93-32.6,39.25-73.56,15.19c-39.99-23.49-57.45,28-103.43,0.48c-34.78-20.82-52.73,12.27-64.72-0.41
		c-10.44-11.04,31.96-37.24,72.82-14.59c36.5,20.23,57.69-28.7,105.21,0.43C630.25,611.73,648.86,579.95,661.45,590.73z"/>
	<path d="M662.28,515.09c-16.54,17.2-51.46,20.91-73.13,6.87c-14.14-9.16-32.69-7.9-46.35-0.2c-51.15,28.85-66.39-26.33-109.72,2.72
		c-2.78,1.86-11.78,0.75-13.53-1.79c-9.35-13.61,36.45-36.27,72.17-14.73c36.75,22.16,53.08-30.2,107.58,0.24
		c21.35,11.93,36.94,3.29,57.3-4.97C658.93,502.28,664.73,512.54,662.28,515.09z"/>
</g>
<g>
	<path d="M796.68,842.58l-512.39,0.17c-46.59,0.02-80.78-40.3-80.07-83.68l0.68-42.04l135-0.72l-0.18-355.51l-133.85-0.19
		l-1.73-32.94c-2.85-54.3,35.06-90.43,87.54-90.42l499.14,0.11c43.94,0.01,80.41,26.67,85.77,71.83c1.88,15.82,1.05,32.62,0.13,50.8
		l-134.66,1.14l0.67,355.39l133.3,0.65l1.15,38.12C878.52,799.02,846.27,842.56,796.68,842.58z M340.47,343.14
		c4.31-45.92-9.95-80.63-48.03-87.92c-24.33-4.66-47.06,7.17-60.27,28.05c-10.84,17.15-11.54,37.82-9.05,59.93L340.47,343.14z
		 M752.41,825.7c-18.11-18.97-27.56-37.59-27.56-63.89l0.06-445.91c0-23.83,10.09-41.86,24.53-60.84l-416.3-0.11
		c9.04,15.85,23.67,30.95,23.7,49.59l0.55,457.3c0.03,25.56-8.79,44.55-27.06,63.97L752.41,825.7z M859,342.83
		c3.33-24.04,1.07-45.34-12.65-63.42c-13.87-18.28-36.08-28.69-59.53-22.94c-39.25,9.63-49.6,49.74-43.26,87.19L859,342.83z
		 M338.94,771.93l1.21-37.43l-115.71-0.62c-12.91,39.64,9.75,85.13,54.33,90.18C307.69,827.34,337.94,802.65,338.94,771.93z
		 M846.04,799.86c15.09-18.55,15.92-44.56,11.84-65.61l-115.61,0.42l1.23,38.3c0.79,24.65,21.07,43.22,42.32,49.53
		C806.6,828.67,830.35,819.14,846.04,799.86z"/>
	<path d="M662.58,423.36c8.42,11.68-35.93,38.48-75.69,13.61c-36.86-23.05-58.3,29.17-103.37,1.15
		c-27.76-17.26-45.64,5.71-63.6,1.55c-18.49-4.28,30-42.31,72.52-15.12c32.68,20.9,53.86-29.34,104.69-0.95
		C634.53,444.49,652.64,409.56,662.58,423.36z"/>
	<path d="M661.45,590.89c11.61,9.93-32.6,39.25-73.56,15.19c-39.99-23.49-57.45,28-103.43,0.48c-34.78-20.82-52.73,12.27-64.72-0.41
		c-10.44-11.04,31.96-37.24,72.82-14.59c36.5,20.23,57.69-28.7,105.21,0.43C630.24,611.9,648.86,580.12,661.45,590.89z"/>
	<path d="M662.28,515.25c-16.54,17.2-51.46,20.91-73.13,6.87c-14.14-9.16-32.69-7.9-46.35-0.2c-51.15,28.85-66.39-26.33-109.72,2.72
		c-2.78,1.86-11.78,0.75-13.53-1.79c-9.35-13.61,36.45-36.27,72.17-14.73c36.75,22.16,53.08-30.2,107.58,0.24
		c21.35,11.93,36.94,3.29,57.3-4.97C658.93,502.45,664.73,512.7,662.28,515.25z"/>
</g>
</svg>
