<?xml version="1.0" encoding="iso-8859-1"?>
<!-- Generator: Adobe Illustrator 30.2.1, SVG Export Plug-In . SVG Version: 9.03 Build 0)  -->
<svg version="1.1" id="Layer_1" xmlns="http://www.w3.org/2000/svg" xmlns:xlink="http://www.w3.org/1999/xlink" x="0px" y="0px"
	 viewBox="0 0 1080 1080" style="enable-background:new 0 0 1080 1080;" xml:space="preserve">
<path d="M454.96,735.03c14.82-67.98,69.57-117.52,140.82-114.39c33.84,1.49,74.38,8.45,99.79,32.31c4.3,26.66-17.5,57.01-33.1,78.1
	c-48.06,64.99-131.31,76.34-197.28,28.4c-92.97,46.21-68.67,56.28-75.43,152.85c-0.45,6.5-7.11,16.38-12.39,16.67
	c-5.26,0.29-16.41-11.17-15.86-17.58l12.34-143.87c2.58-30.13-21.04-63.53-33.27-88.17c-47.43-4.24-90.27-21.59-113.98-62.55
	c-29.67-51.25-29.09-116.12-1.77-168.71c52.75,8.92,98.99,32.88,129.71,73.13c32.13,42.09,31.03,95.8,10.78,143.83l23.04,47.17
	c20.86-79.05,51.59-142.33,89.39-210.18c12.66-22.73,1.25-61.54-0.64-86.69c-48.67-27.26-81.06-69.12-81.63-124.75
	c-0.54-53.23,24.01-102.8,65.37-137.96c35.97,20.56,61.84,49.75,79.51,83.96c30.76,59.55,14.95,127.42-33.35,171.74
	c-2.1,14.48,0.03,34.93,2.99,50.72c42.62-52.87,86.91-98.33,139.09-142.45c-0.68-62.47,28.01-119.76,85.39-144.98
	c46.1-20.26,97.92-20.32,145.46-0.7c2.96,63.49-25.61,123.19-76.63,157.77c-42.06,28.51-92.25,28.14-140.4,11.69
	c-62.59,51.73-115.25,106.86-160.65,178.48l74.68-15.39c28.46-56.46,85.74-87.6,147.24-75.24c41.1,8.26,79.03,29.35,106.92,61.12
	c-21.77,44.02-57.71,74.77-101.34,89.65c-57.91,19.74-114.99-1.24-154.45-47.74c-33.87,5.96-73.8,14.11-99.88,33.08
	c-35.96,61.58-53.93,128.13-71.11,197.64L454.96,735.03z M691.54,318.45c87.31,28,152.78-44.84,163.67-127.82
	c-38.33-12.97-76.92-10.67-112.55,6.23c-36.47,17.3-61.32,52.06-64.12,96.28l65.53-43.55c4.51-3,15.08-3.07,18.44,0.06
	c3.35,3.13,1.04,16.74-2.75,19.48L691.54,318.45z M490.6,301.36l9.99,72.21c56.64-61.34,23.48-141.11-36.53-186.63
	c-26.79,29.95-43.57,63.96-42.33,103.34c1.12,35.57,19.64,68.81,51.18,87.51l-7.13-76.77c-0.47-5.04,9.94-15.43,14.02-13.33
	C482.86,289.27,490.04,297.32,490.6,301.36z M612.17,529.3c59.54,55.27,144.13,29.24,185.34-34.77
	c-27.67-24.18-61.79-42.63-99.57-42.87c-35.09-0.22-67.54,19.39-86.36,48.99l70.47-8.35c5.24-0.62,14.46,7.38,14.09,11.75
	c-0.38,4.37-8.33,12.44-12.68,13.17L612.17,529.3z M307.81,571.29l39.7,63.75c28.19-78.73-40.3-144.18-109.62-156.53
	c-4.98,24.85-9.02,46.2-7.53,68.24c3.56,52.43,39.61,96.38,93.16,102.54l-39.75-68.15c-2.5-4.29,1.28-17.39,6.13-17.79
	C293.79,563.02,305.28,567.22,307.81,571.29z M500.99,746.59c70.27,45.25,147.08-15.99,168.15-81.08
	c-63.85-33.68-150.86-26.57-177.14,52.48l69.03-24.85c4.78-1.72,16.39,1.59,17.5,5.91c1.11,4.3-3.87,15.48-8.92,17.67L500.99,746.59
	z"/>
<path d="M452.71,734.22c14.82-67.98,69.57-117.52,140.82-114.39c33.84,1.49,74.38,8.45,99.79,32.31c4.3,26.66-17.5,57.01-33.1,78.1
	c-48.06,64.99-131.31,76.34-197.28,28.4c-92.97,46.21-68.67,56.28-75.43,152.85c-0.45,6.5-7.11,16.38-12.39,16.67
	c-5.26,0.29-16.41-11.17-15.86-17.58l12.34-143.87c2.58-30.13-21.04-63.53-33.27-88.17c-47.43-4.24-90.27-21.59-113.98-62.55
	c-29.67-51.25-29.09-116.12-1.77-168.71c52.75,8.92,98.99,32.88,129.71,73.13c32.13,42.09,31.03,95.8,10.78,143.83l23.04,47.17
	c20.86-79.05,51.59-142.33,89.39-210.18c12.66-22.73,1.25-61.54-0.64-86.69c-48.67-27.26-81.06-69.12-81.63-124.75
	c-0.54-53.23,24.01-102.8,65.37-137.96c35.97,20.56,61.84,49.75,79.51,83.96c30.76,59.55,14.95,127.42-33.35,171.74
	c-2.1,14.48,0.03,34.93,2.99,50.72c42.62-52.87,86.91-98.33,139.09-142.45c-0.68-62.47,28.01-119.76,85.39-144.98
	c46.1-20.26,97.92-20.32,145.46-0.7c2.96,63.49-25.61,123.19-76.63,157.77c-42.06,28.51-92.25,28.14-140.4,11.69
	c-62.59,51.73-115.25,106.86-160.65,178.48l74.68-15.39c28.46-56.46,85.74-87.6,147.24-75.24c41.1,8.26,79.03,29.35,106.92,61.12
	c-21.77,44.02-57.71,74.77-101.34,89.65c-57.91,19.75-114.99-1.24-154.45-47.74c-33.87,5.96-73.8,14.11-99.88,33.08
	c-35.96,61.58-53.93,128.13-71.11,197.64L452.71,734.22z M689.3,317.64c87.31,28,152.78-44.84,163.67-127.82
	c-38.33-12.97-76.92-10.67-112.55,6.23c-36.47,17.3-61.32,52.06-64.12,96.28l65.53-43.55c4.51-3,15.08-3.07,18.44,0.06
	c3.35,3.13,1.04,16.74-2.75,19.48L689.3,317.64z M488.35,300.55l9.99,72.21c56.64-61.34,23.48-141.11-36.53-186.63
	c-26.79,29.95-43.57,63.96-42.33,103.34c1.12,35.57,19.64,68.81,51.18,87.51l-7.13-76.77c-0.47-5.04,9.94-15.43,14.02-13.33
	C480.62,288.46,487.79,296.51,488.35,300.55z M609.92,528.49c59.54,55.27,144.13,29.24,185.34-34.77
	c-27.67-24.18-61.79-42.63-99.57-42.87c-35.09-0.22-67.54,19.39-86.36,48.99l70.47-8.35c5.24-0.62,14.46,7.38,14.09,11.75
	c-0.38,4.37-8.33,12.44-12.68,13.17L609.92,528.49z M305.57,570.48l39.7,63.75c28.19-78.73-40.3-144.18-109.62-156.53
	c-4.98,24.85-9.02,46.2-7.53,68.24c3.56,52.43,39.61,96.38,93.16,102.54l-39.75-68.15c-2.5-4.29,1.28-17.39,6.13-17.79
	C291.54,562.21,303.04,566.41,305.57,570.48z M498.74,745.78c70.27,45.25,147.08-15.99,168.15-81.08
	c-63.85-33.68-150.86-26.57-177.14,52.48l69.03-24.85c4.78-1.72,16.39,1.59,17.5,5.91c1.11,4.3-3.87,15.48-8.92,17.67L498.74,745.78
	z"/>
</svg>
