<?xml version="1.0" encoding="iso-8859-1"?>
<!-- Generator: Adobe Illustrator 30.2.1, SVG Export Plug-In . SVG Version: 9.03 Build 0)  -->
<svg version="1.1" id="Layer_1" xmlns="http://www.w3.org/2000/svg" xmlns:xlink="http://www.w3.org/1999/xlink" x="0px" y="0px"
	 viewBox="0 0 1080 1080" style="enable-background:new 0 0 1080 1080;" xml:space="preserve">
<g>
	<path d="M461.69,746.22c-25.76,28.87-49.03,121.44-65.27,127.01c-39.5,13.56,37.56-133.67,42.92-142.89
		c-75.06-117.22-92.41-253.87,7.82-361.21c96.73-103.59,230.12-157.02,363.18-192.43c6.58-1.75,19.34,5.03,20,10.09
		c18.84,143.14,16.34,335.47-66.75,458.65C691.97,751.62,580.63,763.42,461.69,746.22z M629.39,438.48l80.99-115.14
		c2.99-4.25,18.42-5.31,19.92-1.7c1.48,3.57,2.71,12.42,0.22,16.11L541.32,618.77c26.14,5.98,110.2-30.86,110.18-3.68
		c0,4.5-8.2,12.68-12.93,13.59l-120.43,23.2l-42.29,70.39c110.3,16.3,208.88,0.3,272.96-100.05c71.08-114.35,73.26-284.4,59-418.18
		c-128.25,34.41-271.41,95.79-355.42,198.81c-73.38,92.28-58.06,204.59,1.62,302.28l52.56-78.53l-22.39-126.59
		c-0.97-5.47,8.41-18.21,13.43-16.28c4.01,1.54,10.48,9.15,11.45,13.77l19.64,93.38l78.16-115.43l-19.54-107.18
		c-0.91-4.97,7.68-16.31,12.41-15.03c3.78,1.02,11.95,7.31,12.88,11.41L629.39,438.48z"/>
	<path d="M488.54,903.77c-7.07,0.93-17.68-6.97-17.19-11.43c0.49-4.47,8.22-13.75,12.79-14.26
		c124.66-14.13,236.26-68.99,317.28-164.54c57.31-67.59,91.36-153.35,94.56-240.35c0.22-6.02,8.11-13.62,12.17-14.1
		c5.08-0.6,13.34,10.41,13,17.14c-6.02,117.26-58.57,221.93-145.27,300.09C695.47,848.81,598.83,889.22,488.54,903.77z"/>
	<path d="M362.59,698.18l-185.88,0.89c-5.33,0.03-14.55-7.46-16.46-11.76c-1.91-4.29,8.85-14.02,14.07-14.03l195.87-0.61l8.7,15.69
		C380.55,691.35,368.35,698.15,362.59,698.18z"/>
	<path d="M363.24,766.71l-79.51,0.36c-4.46,0.02-12.74-7.77-13.84-11.86c-1.38-5.13,9.83-13.78,16.33-13.73l78.36,0.61
		c4.04,0.03,12.81,9.87,12.26,13.99C376.27,760.21,367.56,766.7,363.24,766.71z"/>
	<path d="M314.33,631.04l-69.01-0.64c-3.91-0.04-10.12-11.94-7.84-15.07c2.29-3.14,11.18-9.93,15.46-9.93l57.9,0
		c4.31,0,13.31,6.7,15.39,9.96C328.84,619.44,319.43,631.09,314.33,631.04z"/>
</g>
<g>
	<path d="M461.1,746.08c-25.76,28.87-49.03,121.44-65.27,127.01c-39.5,13.56,37.56-133.67,42.92-142.89
		c-75.06-117.22-92.41-253.87,7.82-361.21c96.73-103.59,230.12-157.02,363.18-192.43c6.58-1.75,19.34,5.03,20,10.09
		C848.6,329.81,846.09,522.13,763,645.31C691.38,751.48,580.04,763.28,461.1,746.08z M628.8,438.34l80.99-115.14
		c2.99-4.25,18.42-5.31,19.92-1.7c1.48,3.57,2.71,12.42,0.22,16.11L540.73,618.63c26.14,5.98,110.2-30.86,110.18-3.68
		c0,4.5-8.2,12.68-12.93,13.59l-120.43,23.2l-42.29,70.39c110.3,16.3,208.88,0.3,272.96-100.05c71.08-114.35,73.26-284.4,59-418.18
		C678.96,238.29,535.81,299.68,451.8,402.7c-73.38,92.28-58.06,204.59,1.62,302.28l52.56-78.53l-22.39-126.59
		c-0.97-5.47,8.41-18.21,13.43-16.28c4.01,1.54,10.48,9.15,11.45,13.77l19.64,93.38l78.16-115.43L586.72,368.1
		c-0.91-4.97,7.68-16.31,12.41-15.03c3.78,1.02,11.95,7.31,12.88,11.41L628.8,438.34z"/>
	<path d="M487.94,903.63c-7.07,0.93-17.68-6.97-17.19-11.43c0.49-4.47,8.22-13.75,12.79-14.26
		c124.66-14.13,236.26-68.99,317.28-164.54c57.31-67.59,91.36-153.35,94.56-240.35c0.22-6.02,8.11-13.62,12.17-14.1
		c5.08-0.6,13.34,10.41,13,17.14c-6.02,117.26-58.57,221.93-145.27,300.09C694.88,848.68,598.24,889.08,487.94,903.63z"/>
	<path d="M362,698.04l-185.88,0.9c-5.33,0.03-14.55-7.46-16.46-11.76c-1.91-4.29,8.85-14.02,14.07-14.03l195.87-0.61l8.7,15.69
		C379.96,691.22,367.75,698.01,362,698.04z"/>
	<path d="M362.65,766.58l-79.51,0.36c-4.46,0.02-12.74-7.77-13.84-11.86c-1.38-5.13,9.83-13.78,16.33-13.73l78.36,0.61
		c4.04,0.03,12.81,9.87,12.26,13.99C375.68,760.07,366.97,766.56,362.65,766.58z"/>
	<path d="M313.74,630.9l-69.01-0.64c-3.91-0.04-10.12-11.94-7.84-15.07c2.29-3.14,11.18-9.93,15.46-9.93l57.9,0
		c4.31,0,13.31,6.7,15.39,9.96C328.24,619.3,318.84,630.95,313.74,630.9z"/>
</g>
</svg>
