<?xml version="1.0" encoding="iso-8859-1"?>
<!-- Generator: Adobe Illustrator 30.2.1, SVG Export Plug-In . SVG Version: 9.03 Build 0)  -->
<svg version="1.1" id="Layer_1" xmlns="http://www.w3.org/2000/svg" xmlns:xlink="http://www.w3.org/1999/xlink" x="0px" y="0px"
	 viewBox="0 0 1080 1080" style="enable-background:new 0 0 1080 1080;" xml:space="preserve">
<path d="M734.62,638.27c25.86,25.96,20.78,66.08-1.73,89.65c-22.44,23.5-63.68,31.09-88.66,6.56l-95.62-93.9
	c-4.56-4.48-13.99-4.11-18.47,0.42c-32.07,32.39-62.07,63-95.73,93.74c-26.96,24.62-70.2,16.08-91.74-9.98
	c-23.3-28.19-19.37-66.64,6.89-92.54l84.93-83.74c2.9-2.86,3.26-12.88,0.51-15.61l-88.2-87.48c-26.58-26.36-25.56-67.99-0.28-93.76
	c24.06-24.53,66.27-28.32,92.61-2.09l91.27,90.87c5.4,5.38,14.31,4.06,19.89-1.4l95.77-93.59c25.7-25.11,68.98-14.03,89.12,9.64
	c23.86,28.06,21.3,66.98-4.5,92.56l-84.9,84.18c-4.62,4.58-4.25,12.98,0.38,17.63L734.62,638.27z M713.75,648.81l-84.84-84.82
	c-12.86-12.86-13.27-33.73-0.5-46.52l87.47-87.58c16.92-16.94,17.33-42.63,1.67-60.63c-12.64-14.53-41.46-23.15-58.53-6.31
	l-94.6,93.28c-16.44,16.21-36.32,13.74-51.81-1.82l-85.6-85.97c-17.85-17.92-45.2-19.22-62.77-2.35
	c-17.81,17.11-19.77,44.82-1.44,63.12l89.26,89.11c13.21,13.18,10.28,33.66-1.9,45.79l-85.91,85.63
	c-17.7,17.64-19.92,42.55-2.9,61.99c12.93,14.78,41.7,22.27,59.38,5.03l97.12-94.66c11.9-11.6,30.98-12.53,43.51-0.18l94.52,93.14
	c18.45,18.18,46.92,12.49,61.2-3.51C734.26,692.36,732.11,667.16,713.75,648.81z"/>
<path d="M734.7,638.44c25.86,25.96,20.78,66.08-1.73,89.65c-22.44,23.5-63.68,31.09-88.66,6.56l-95.62-93.9
	c-4.56-4.48-13.99-4.11-18.47,0.42c-32.07,32.39-62.07,63-95.73,93.74c-26.96,24.62-70.2,16.08-91.74-9.98
	c-23.3-28.19-19.37-66.64,6.89-92.54l84.93-83.74c2.9-2.86,3.26-12.88,0.51-15.61l-88.2-87.48c-26.58-26.36-25.56-67.99-0.28-93.76
	c24.06-24.53,66.27-28.32,92.61-2.09l91.27,90.87c5.4,5.38,14.31,4.06,19.89-1.4l95.77-93.59c25.7-25.11,68.98-14.03,89.12,9.64
	c23.86,28.06,21.3,66.98-4.5,92.56l-84.9,84.18c-4.62,4.58-4.25,12.98,0.38,17.63L734.7,638.44z M713.84,648.97l-84.84-84.82
	c-12.86-12.86-13.27-33.73-0.5-46.52l87.47-87.58c16.92-16.94,17.33-42.63,1.67-60.63c-12.64-14.53-41.46-23.15-58.53-6.31
	l-94.6,93.28c-16.44,16.21-36.32,13.74-51.81-1.82l-85.6-85.97c-17.85-17.92-45.2-19.22-62.77-2.35
	c-17.81,17.11-19.77,44.82-1.44,63.12l89.26,89.11c13.21,13.18,10.28,33.66-1.9,45.79l-85.91,85.63
	c-17.7,17.64-19.92,42.55-2.9,61.99c12.93,14.78,41.7,22.27,59.38,5.03l97.12-94.66c11.9-11.6,30.98-12.53,43.51-0.18l94.52,93.14
	c18.45,18.18,46.92,12.49,61.2-3.51C734.34,692.53,732.2,667.33,713.84,648.97z"/>
</svg>
