<?xml version="1.0" encoding="iso-8859-1"?>
<!-- Generator: Adobe Illustrator 30.2.1, SVG Export Plug-In . SVG Version: 9.03 Build 0)  -->
<svg version="1.1" id="Layer_1" xmlns="http://www.w3.org/2000/svg" xmlns:xlink="http://www.w3.org/1999/xlink" x="0px" y="0px"
	 viewBox="0 0 1080 1080" style="enable-background:new 0 0 1080 1080;" xml:space="preserve">
<g>
	<path d="M811.97,730.77c5.52-6.84,19.72-6.95,25.07,0.23c4.59,6.15,1.26,15.53-5.3,23.33C724.7,881.4,546.76,924.68,394.64,851.49
		c-146.22-70.35-229.78-231.41-196.93-397.98c30.26-153.46,162.46-274.51,326.7-287.07c7.43-0.57,32.12-11.46,40.95,2.74
		c2.67,4.29,2.1,16.79-1.68,20.13c-3.79,3.34-14.18,2.95-21.24,3.07c-210.82,3.59-362.93,199.83-319.07,404.84
		c25.06,117.17,112.49,211.05,217.81,246.17c125.67,41.91,255.65,9.44,344.58-79.42C795.88,753.84,801.82,743.34,811.97,730.77z"/>
	<path d="M851.87,677.62c27.73-60.21,38.89-122.16,31.45-188.94C867.05,342.52,758.26,225.6,614.1,198.06
		c-6.52-1.25-14.04-8.89-13.43-13.79c0.59-4.72,10.61-11.02,16.26-10.05c174.54,30.06,298.05,183.91,293.41,361.5
		c-1.4,53.56-13.13,109.25-38.37,154.4c-2.37,4.25-15.22,6.47-18.43,3.82C850.31,691.27,849.77,682.19,851.87,677.62z"/>
	<path d="M431.87,449.93c-3.83-3.15-4.55-16.59-1.8-19.26c2.76-2.68,11.49-3.56,15.22-0.64l85.1,66.58l35.62-0.55l132.9-119.45
		c4.6-4.13,14-6.04,18.86-2.8c4.65,3.1,3.69,15.12-1.48,19.9L582.79,517.29c0.76,15.39-0.31,33.78-11.51,40.73
		c-12.34,7.66-27.33,8.37-39.52,2.89c-14.92-6.71-14.48-28-16.4-42.35L431.87,449.93z M561.34,529.79c0-6.27-5.09-11.36-11.36-11.36
		c-6.27,0-11.36,5.09-11.36,11.36s5.09,11.36,11.36,11.36C556.26,541.15,561.34,536.07,561.34,529.79z"/>
	<path d="M846.09,538.22c-17.52,2.91-53.1,7.55-54.46-9.68c-0.34-4.3,6.91-12.51,11.37-12.51l36.38-0.01c2.8,0,9.32,5.52,11.46,7.34
		C853.52,525.63,849.63,537.63,846.09,538.22z"/>
	<path d="M561.75,812.18c-0.04,4.29-3.8,10.88-6.07,13.2c-2.84,2.91-17.25-0.61-17.33-4.68l-0.88-44.7
		c-0.08-4.14,11.13-11.28,14.96-9.75c3.84,1.54,9.64,9.14,9.6,13.66L561.75,812.18z"/>
	<path d="M302.5,539.4l-38.92,1.71c-3.45,0.15-11.48-5.31-13.16-8.41c-2.1-3.85,3.06-15.82,7.31-15.94l39.24-1.09
		c3.52-0.1,10.19,4.21,12.57,6.45C312.53,524.95,307.43,539.19,302.5,539.4z"/>
	<path d="M559.44,232.16c3.77,12.4,8.55,49.18-7.63,54.68c-20.62,7.01-14.25-41.9-12.57-53.26
		C539.98,228.56,558,227.41,559.44,232.16z"/>
</g>
<g>
	<path d="M801.43,746.28c5.52-6.84,19.72-6.95,25.07,0.23c4.59,6.15,1.26,15.53-5.3,23.33C714.16,896.91,536.23,940.19,384.1,867
		c-146.22-70.35-229.78-231.41-196.93-397.98c30.26-153.46,162.46-274.51,326.7-287.07c7.43-0.57,32.12-11.46,40.95,2.74
		c2.67,4.29,2.1,16.79-1.68,20.13c-3.79,3.34-14.18,2.95-21.24,3.07c-210.82,3.59-362.93,199.83-319.07,404.84
		C237.9,729.9,325.32,823.77,430.64,858.89c125.67,41.91,255.65,9.44,344.58-79.42C785.35,769.35,791.28,758.85,801.43,746.28z"/>
	<path d="M841.34,693.13c27.73-60.21,38.89-122.16,31.45-188.94c-16.27-146.16-125.06-263.08-269.22-290.63
		c-6.52-1.25-14.04-8.89-13.43-13.79c0.59-4.72,10.61-11.02,16.26-10.05c174.54,30.06,298.05,183.91,293.41,361.5
		c-1.4,53.56-13.13,109.25-38.37,154.4c-2.37,4.25-15.22,6.47-18.43,3.82C839.78,706.77,839.23,697.7,841.34,693.13z"/>
	<path d="M421.34,465.44c-3.83-3.15-4.55-16.59-1.8-19.26c2.76-2.68,11.49-3.56,15.22-0.64l85.1,66.58l35.62-0.55l132.9-119.45
		c4.6-4.13,14-6.04,18.86-2.8c4.65,3.1,3.69,15.12-1.48,19.9L572.26,532.8c0.76,15.39-0.31,33.78-11.51,40.73
		c-12.34,7.66-27.33,8.37-39.52,2.89c-14.92-6.71-14.48-28-16.4-42.35L421.34,465.44z M550.81,545.3c0-6.27-5.09-11.36-11.36-11.36
		s-11.36,5.09-11.36,11.36c0,6.27,5.09,11.36,11.36,11.36S550.81,551.57,550.81,545.3z"/>
	<path d="M835.56,553.72c-17.52,2.91-53.1,7.55-54.46-9.68c-0.34-4.3,6.91-12.51,11.37-12.51l36.38-0.01c2.8,0,9.32,5.52,11.46,7.34
		C842.99,541.14,839.1,553.13,835.56,553.72z"/>
	<path d="M551.21,827.68c-0.04,4.29-3.8,10.88-6.07,13.2c-2.84,2.91-17.25-0.61-17.33-4.68l-0.88-44.7
		c-0.08-4.14,11.13-11.28,14.96-9.75c3.84,1.54,9.64,9.14,9.6,13.66L551.21,827.68z"/>
	<path d="M291.96,554.91l-38.92,1.71c-3.45,0.15-11.48-5.31-13.16-8.41c-2.1-3.85,3.06-15.82,7.31-15.94l39.24-1.09
		c3.52-0.1,10.19,4.21,12.57,6.45C302,540.46,296.9,554.69,291.96,554.91z"/>
	<path d="M548.91,247.67c3.77,12.4,8.55,49.18-7.63,54.68c-20.62,7.01-14.25-41.9-12.57-53.26
		C529.45,244.06,547.47,242.91,548.91,247.67z"/>
</g>
</svg>
