<?xml version="1.0" encoding="iso-8859-1"?>
<!-- Generator: Adobe Illustrator 30.2.1, SVG Export Plug-In . SVG Version: 9.03 Build 0)  -->
<svg version="1.1" id="Layer_1" xmlns="http://www.w3.org/2000/svg" xmlns:xlink="http://www.w3.org/1999/xlink" x="0px" y="0px"
	 viewBox="0 0 1080 1080" style="enable-background:new 0 0 1080 1080;" xml:space="preserve">
<path d="M482.18,424.48l0.66,316.16c0.1,49.71-20.13,94.09-61.77,121.3c-51.05,33.36-116.74,36.03-169.23,5.08
	c-33.32-19.65-54.56-51.84-60.46-83.85c-7.62-41.31,4.6-79.2,32.17-108.98c45.1-48.73,112.84-61.11,175.86-36.37l0.3-302.68
	c0.02-21.44,15.17-42.12,35.49-47.37l394.75-102.15c15.1-3.91,34.45,0.13,46.26,8.47c9.99,7.06,19.86,25.52,19.86,41.87
	l-0.17,441.57c-0.02,43.42-27.87,81.97-62.58,103.82c-77.9,49.04-192.31,22.41-220.03-60.05c-14.29-42.51-6.52-83.23,17.98-116.76
	c42.07-57.57,115.54-75,183.13-48.98l0.41-216.05L482.18,424.48z M822.75,314.7c7.73,1.13,13.63,9.03,13.58,15.59l-2.12,261.2
	c-72.11-47.75-155.57-28.74-194.37,39.87c-23.9,42.26-13.37,95.23,25.13,125.08c49.96,38.74,119.92,37.2,169.05-2.41
	c24.28-19.58,40.93-48.2,40.93-81.02l-0.03-439.01c0-17.92-18.3-32.87-34.84-28.58L446.18,307.45
	c-14.57,3.77-24.79,18.09-24.82,32.79l-0.75,332.82c-67.52-41.64-137.3-33.7-183.93,18.74c-37.99,42.72-34.47,103.99,8.33,142.57
	c52.7,45.62,131.07,43.14,182.03-4.54c24.16-22.61,33.53-51.64,33.59-84.55l0.66-337.38L822.75,314.7z"/>
<path d="M479.57,428.09l0.66,316.16c0.1,49.71-20.13,94.09-61.77,121.3c-51.05,33.36-116.74,36.03-169.23,5.08
	c-33.32-19.65-54.56-51.84-60.46-83.85c-7.62-41.31,4.6-79.2,32.17-108.98c45.1-48.73,112.84-61.11,175.86-36.37l0.3-302.68
	c0.02-21.44,15.17-42.12,35.49-47.37l394.75-102.15c15.1-3.91,34.45,0.13,46.26,8.47c9.99,7.06,19.86,25.52,19.86,41.87
	l-0.17,441.57c-0.02,43.42-27.87,81.97-62.58,103.82C752.8,834,638.4,807.37,610.67,724.91c-14.29-42.51-6.52-83.23,17.98-116.76
	c42.07-57.57,115.53-75,183.13-48.98l0.41-216.05L479.57,428.09z M820.14,318.31c7.73,1.13,13.63,9.03,13.58,15.59l-2.12,261.2
	c-72.11-47.75-155.57-28.74-194.37,39.87c-23.9,42.26-13.37,95.23,25.13,125.08c49.96,38.74,119.92,37.2,169.05-2.41
	c24.28-19.58,40.93-48.2,40.93-81.02L872.3,237.6c0-17.92-18.3-32.87-34.84-28.58L443.57,311.06
	c-14.57,3.77-24.79,18.09-24.82,32.79L418,676.67c-67.52-41.64-137.3-33.7-183.93,18.74c-37.99,42.72-34.47,103.99,8.33,142.57
	c52.7,45.62,131.07,43.14,182.03-4.54c24.16-22.61,33.53-51.64,33.59-84.55l0.66-337.38L820.14,318.31z"/>
</svg>
