<?xml version="1.0" encoding="iso-8859-1"?>
<!-- Generator: Adobe Illustrator 30.2.1, SVG Export Plug-In . SVG Version: 9.03 Build 0)  -->
<svg version="1.1" id="Layer_1" xmlns="http://www.w3.org/2000/svg" xmlns:xlink="http://www.w3.org/1999/xlink" x="0px" y="0px"
	 viewBox="0 0 1080 1080" style="enable-background:new 0 0 1080 1080;" xml:space="preserve">
<g>
	<path d="M331.22,645.55c-48.35-0.41-82.13-36.94-82.69-83.41l-0.49-40.85c-0.53-43.82,30-84.48,75.86-85.55l76.11-1.77l155.1-84.84
		c9.21-5.04,24.24-2.03,32.46,3.61c7.32,5.02,17.25,17.88,17.25,29.6l-0.14,313.74c-0.01,13.88-11.22,27.55-20.13,32.45
		c-12.85,7.06-26.81,5.46-39.62-1.69l-144.77-80.71L331.22,645.55z M556.1,707.44c5.7,2.14,14.77,3.01,18.06,0.79
		c3.3-2.22,8.05-10.09,8.05-14.85l0.16-306.34c0-5.58-3.67-13.07-7.17-15.11c-2.91-1.69-12.4-1.95-15.72-0.12l-150.13,82.43
		l0.11,170.97L556.1,707.44z M330.79,622.41l56.04,0.1l0.28-165.24l-60.64,0.67c-30.88,0.34-55.37,26.51-55.28,56.59l0.15,51.16
		C271.44,597.55,298.02,622.35,330.79,622.41z"/>
	<path d="M746.12,699.52c-4.03,4.26-15.19,5.64-18.03,2.85c-2.85-2.8-4.23-12.83-1.38-15.65c80.71-80.06,81.85-210.22,2.23-291.64
		c-4.12-4.21-5.56-12.42-2.71-16.54c2.48-3.58,12.78-4.43,16.45-0.77C830.8,465.88,832.32,608.35,746.12,699.52z"/>
	<path d="M679.4,637.31c-4.81,4.77-12.48,5.59-15.7,3.4c-3.22-2.19-6.1-14.34-3.2-16.94c50.21-44.99,51.16-122.29,1.22-168.48
		c-2.71-2.51-3.26-11.98-1.37-15.14c1.89-3.17,12.2-4.19,14.93-1.7C733.46,491.39,736.15,581.02,679.4,637.31z"/>
</g>
<g>
	<path d="M331.3,645.71c-48.35-0.41-82.13-36.94-82.69-83.41l-0.49-40.85c-0.53-43.82,30-84.48,75.86-85.55l76.11-1.77l155.1-84.84
		c9.21-5.04,24.24-2.03,32.46,3.61c7.32,5.02,17.25,17.88,17.25,29.6l-0.14,313.74c-0.01,13.88-11.22,27.55-20.13,32.45
		c-12.85,7.06-26.81,5.46-39.62-1.69L400.24,646.3L331.3,645.71z M556.19,707.61c5.7,2.14,14.77,3.01,18.06,0.79
		c3.3-2.22,8.05-10.09,8.05-14.85l0.16-306.34c0-5.58-3.67-13.07-7.17-15.11c-2.91-1.69-12.4-1.95-15.72-0.12l-150.13,82.43
		l0.11,170.97L556.19,707.61z M330.87,622.58l56.04,0.1l0.28-165.24l-60.64,0.67c-30.88,0.34-55.37,26.51-55.28,56.59l0.15,51.16
		C271.52,597.71,298.1,622.52,330.87,622.58z"/>
	<path d="M746.21,699.69c-4.03,4.26-15.19,5.64-18.03,2.85c-2.85-2.8-4.23-12.83-1.38-15.65c80.71-80.06,81.85-210.22,2.23-291.64
		c-4.12-4.21-5.56-12.42-2.71-16.54c2.48-3.58,12.78-4.43,16.45-0.77C830.88,466.05,832.4,608.52,746.21,699.69z"/>
	<path d="M679.48,637.48c-4.81,4.77-12.48,5.59-15.7,3.4c-3.22-2.19-6.1-14.34-3.2-16.94c50.21-44.99,51.16-122.29,1.22-168.48
		c-2.71-2.51-3.26-11.98-1.37-15.14c1.89-3.17,12.2-4.19,14.93-1.7C733.54,491.56,736.23,581.19,679.48,637.48z"/>
</g>
</svg>
